<?xml version="1.0" encoding="UTF-8" standalone="no"?>
<!DOCTYPE svg PUBLIC "-//W3C//DTD SVG 1.1//EN"
 "http://www.w3.org/Graphics/SVG/1.1/DTD/svg11.dtd">
<!-- Generated by graphviz version 2.47.3 (20210619.1520)
 -->
<!-- Title: dependencies Pages: 1 -->
<svg width="3947pt" height="453pt"
 viewBox="0.00 0.00 3947.00 453.43" xmlns="http://www.w3.org/2000/svg" xmlns:xlink="http://www.w3.org/1999/xlink">
<g id="graph0" class="graph" transform="scale(1 1) rotate(0) translate(4 449.43)">
<title>dependencies</title>
<polygon fill="white" stroke="transparent" points="-4,4 -4,-449.43 3943,-449.43 3943,4 -4,4"/>
<text text-anchor="middle" x="1969.5" y="-8.2" font-family="sans-serif" font-size="14.00">dependencies</text>
<g id="clust1" class="cluster">
<title>cluster_AppModule</title>
<polygon fill="none" stroke="black" stroke-dasharray="1,5" points="8,-32.8 8,-437.43 3931,-437.43 3931,-32.8 8,-32.8"/>
</g>
<g id="clust2" class="cluster">
<title>cluster_AppModule_declarations</title>
<polygon fill="none" stroke="black" points="168,-247.43 168,-299.43 3911,-299.43 3911,-247.43 168,-247.43"/>
</g>
<g id="clust3" class="cluster">
<title>cluster_AppModule_AppComponent_providers</title>
<polygon fill="none" stroke="black" points="3227,-40.8 3227,-234.43 3923,-234.43 3923,-40.8 3227,-40.8"/>
</g>
<g id="clust27" class="cluster">
<title>cluster_AppModule_imports</title>
<polygon fill="none" stroke="black" points="16,-247.43 16,-299.43 160,-299.43 160,-247.43 16,-247.43"/>
</g>
<g id="clust29" class="cluster">
<title>cluster_AppModule_bootstrap</title>
<polygon fill="none" stroke="black" points="1887,-377.43 1887,-429.43 2011,-429.43 2011,-377.43 1887,-377.43"/>
</g>
<!-- AppComponent -->
<g id="node1" class="node">
<title>AppComponent</title>
<polygon fill="#ffffb3" stroke="black" points="3902.94,-291.43 3797.06,-291.43 3797.06,-255.43 3902.94,-255.43 3902.94,-291.43"/>
<text text-anchor="middle" x="3850" y="-269.23" font-family="Times,serif" font-size="14.00">AppComponent</text>
</g>
<!-- AppModule -->
<g id="node25" class="node">
<title>AppModule</title>
<polygon fill="#8dd3c7" stroke="black" points="1990.66,-356.43 1987.66,-360.43 1966.66,-360.43 1963.66,-356.43 1907.34,-356.43 1907.34,-320.43 1990.66,-320.43 1990.66,-356.43"/>
<text text-anchor="middle" x="1949" y="-334.23" font-family="Times,serif" font-size="14.00">AppModule</text>
</g>
<!-- AppComponent&#45;&gt;AppModule -->
<g id="edge1" class="edge">
<title>AppComponent&#45;&gt;AppModule</title>
<path fill="none" stroke="black" d="M3850,-291.75C3850,-315.09 3850,-352.43 3850,-352.43 3850,-352.43 2000.92,-352.43 2000.92,-352.43"/>
<polygon fill="black" stroke="black" points="2000.92,-348.93 1990.92,-352.43 2000.92,-355.93 2000.92,-348.93"/>
</g>
<!-- AppEventsComponent -->
<g id="node2" class="node">
<title>AppEventsComponent</title>
<polygon fill="#ffffb3" stroke="black" points="3779.54,-291.43 3636.46,-291.43 3636.46,-255.43 3779.54,-255.43 3779.54,-291.43"/>
<text text-anchor="middle" x="3708" y="-269.23" font-family="Times,serif" font-size="14.00">AppEventsComponent</text>
</g>
<!-- AppEventsComponent&#45;&gt;AppModule -->
<g id="edge5" class="edge">
<title>AppEventsComponent&#45;&gt;AppModule</title>
<path fill="none" stroke="black" d="M3708,-291.67C3708,-314.44 3708,-350.43 3708,-350.43 3708,-350.43 2000.75,-350.43 2000.75,-350.43"/>
<polygon fill="black" stroke="black" points="2000.75,-346.93 1990.75,-350.43 2000.75,-353.93 2000.75,-346.93"/>
</g>
<!-- AppFilesComponent -->
<g id="node3" class="node">
<title>AppFilesComponent</title>
<polygon fill="#ffffb3" stroke="black" points="3618.16,-291.43 3485.84,-291.43 3485.84,-255.43 3618.16,-255.43 3618.16,-291.43"/>
<text text-anchor="middle" x="3552" y="-269.23" font-family="Times,serif" font-size="14.00">AppFilesComponent</text>
</g>
<!-- AppFilesComponent&#45;&gt;AppModule -->
<g id="edge6" class="edge">
<title>AppFilesComponent&#45;&gt;AppModule</title>
<path fill="none" stroke="black" d="M3552,-291.72C3552,-313.63 3552,-347.43 3552,-347.43 3552,-347.43 2001.05,-347.43 2001.05,-347.43"/>
<polygon fill="black" stroke="black" points="2001.05,-343.93 1991.05,-347.43 2001.05,-350.93 2001.05,-343.93"/>
</g>
<!-- AppManageComponent -->
<g id="node4" class="node">
<title>AppManageComponent</title>
<polygon fill="#ffffb3" stroke="black" points="3467.03,-291.43 3316.97,-291.43 3316.97,-255.43 3467.03,-255.43 3467.03,-291.43"/>
<text text-anchor="middle" x="3392" y="-269.23" font-family="Times,serif" font-size="14.00">AppManageComponent</text>
</g>
<!-- AppManageComponent&#45;&gt;AppModule -->
<g id="edge7" class="edge">
<title>AppManageComponent&#45;&gt;AppModule</title>
<path fill="none" stroke="black" d="M3392,-291.59C3392,-312.92 3392,-345.43 3392,-345.43 3392,-345.43 2001.02,-345.43 2001.02,-345.43"/>
<polygon fill="black" stroke="black" points="2001.02,-341.93 1991.02,-345.43 2001.02,-348.93 2001.02,-341.93"/>
</g>
<!-- AppSettingsComponent -->
<g id="node5" class="node">
<title>AppSettingsComponent</title>
<polygon fill="#ffffb3" stroke="black" points="3298.05,-291.43 3147.95,-291.43 3147.95,-255.43 3298.05,-255.43 3298.05,-291.43"/>
<text text-anchor="middle" x="3223" y="-269.23" font-family="Times,serif" font-size="14.00">AppSettingsComponent</text>
</g>
<!-- AppSettingsComponent&#45;&gt;AppModule -->
<g id="edge8" class="edge">
<title>AppSettingsComponent&#45;&gt;AppModule</title>
<path fill="none" stroke="black" d="M3223,-291.45C3223,-312.19 3223,-343.43 3223,-343.43 3223,-343.43 2000.66,-343.43 2000.66,-343.43"/>
<polygon fill="black" stroke="black" points="2000.66,-339.93 1990.66,-343.43 2000.66,-346.93 2000.66,-339.93"/>
</g>
<!-- AppTemplatesComponent -->
<g id="node6" class="node">
<title>AppTemplatesComponent</title>
<polygon fill="#ffffb3" stroke="black" points="3129.75,-291.43 2966.25,-291.43 2966.25,-255.43 3129.75,-255.43 3129.75,-291.43"/>
<text text-anchor="middle" x="3048" y="-269.23" font-family="Times,serif" font-size="14.00">AppTemplatesComponent</text>
</g>
<!-- AppTemplatesComponent&#45;&gt;AppModule -->
<g id="edge9" class="edge">
<title>AppTemplatesComponent&#45;&gt;AppModule</title>
<path fill="none" stroke="black" d="M3048,-291.65C3048,-311.79 3048,-341.43 3048,-341.43 3048,-341.43 2000.74,-341.43 2000.74,-341.43"/>
<polygon fill="black" stroke="black" points="2000.74,-337.93 1990.74,-341.43 2000.74,-344.93 2000.74,-337.93"/>
</g>
<!-- BuildISOComponent -->
<g id="node7" class="node">
<title>BuildISOComponent</title>
<polygon fill="#ffffb3" stroke="black" points="2948.5,-291.43 2813.5,-291.43 2813.5,-255.43 2948.5,-255.43 2948.5,-291.43"/>
<text text-anchor="middle" x="2881" y="-269.23" font-family="Times,serif" font-size="14.00">BuildISOComponent</text>
</g>
<!-- BuildISOComponent&#45;&gt;AppModule -->
<g id="edge10" class="edge">
<title>BuildISOComponent&#45;&gt;AppModule</title>
<path fill="none" stroke="black" d="M2881,-291.53C2881,-310.76 2881,-338.43 2881,-338.43 2881,-338.43 2000.86,-338.43 2000.86,-338.43"/>
<polygon fill="black" stroke="black" points="2000.86,-334.93 1990.86,-338.43 2000.86,-341.93 2000.86,-334.93"/>
</g>
<!-- CheckSysComponent -->
<g id="node8" class="node">
<title>CheckSysComponent</title>
<polygon fill="#ffffb3" stroke="black" points="2795.83,-291.43 2658.17,-291.43 2658.17,-255.43 2795.83,-255.43 2795.83,-291.43"/>
<text text-anchor="middle" x="2727" y="-269.23" font-family="Times,serif" font-size="14.00">CheckSysComponent</text>
</g>
<!-- CheckSysComponent&#45;&gt;AppModule -->
<g id="edge11" class="edge">
<title>CheckSysComponent&#45;&gt;AppModule</title>
<path fill="none" stroke="black" d="M2727,-291.65C2727,-310.25 2727,-336.43 2727,-336.43 2727,-336.43 2000.83,-336.43 2000.83,-336.43"/>
<polygon fill="black" stroke="black" points="2000.83,-332.93 1990.83,-336.43 2000.83,-339.93 2000.83,-332.93"/>
</g>
<!-- DistrosComponent -->
<g id="node9" class="node">
<title>DistrosComponent</title>
<polygon fill="#ffffb3" stroke="black" points="2639.77,-291.43 2518.23,-291.43 2518.23,-255.43 2639.77,-255.43 2639.77,-291.43"/>
<text text-anchor="middle" x="2579" y="-269.23" font-family="Times,serif" font-size="14.00">DistrosComponent</text>
</g>
<!-- DistrosComponent&#45;&gt;AppModule -->
<g id="edge12" class="edge">
<title>DistrosComponent&#45;&gt;AppModule</title>
<path fill="none" stroke="black" d="M2558.7,-291.45C2558.7,-308.8 2558.7,-332.43 2558.7,-332.43 2558.7,-332.43 2000.91,-332.43 2000.91,-332.43"/>
<polygon fill="black" stroke="black" points="2000.91,-328.93 1990.91,-332.43 2000.91,-335.93 2000.91,-328.93"/>
</g>
<!-- DistrosComponent&#45;&gt;AppModule -->
<g id="edge13" class="edge">
<title>DistrosComponent&#45;&gt;AppModule</title>
<path fill="none" stroke="black" d="M2599.3,-291.73C2599.3,-309.7 2599.3,-334.43 2599.3,-334.43 2599.3,-334.43 2000.67,-334.43 2000.67,-334.43"/>
<polygon fill="black" stroke="black" points="2000.67,-330.93 1990.67,-334.43 2000.67,-337.93 2000.67,-330.93"/>
</g>
<!-- ImagesComponent -->
<g id="node10" class="node">
<title>ImagesComponent</title>
<polygon fill="#ffffb3" stroke="black" points="2499.76,-291.43 2378.24,-291.43 2378.24,-255.43 2499.76,-255.43 2499.76,-291.43"/>
<text text-anchor="middle" x="2439" y="-269.23" font-family="Times,serif" font-size="14.00">ImagesComponent</text>
</g>
<!-- ImagesComponent&#45;&gt;AppModule -->
<g id="edge14" class="edge">
<title>ImagesComponent&#45;&gt;AppModule</title>
<path fill="none" stroke="black" d="M2459.29,-291.45C2459.29,-307.82 2459.29,-329.43 2459.29,-329.43 2459.29,-329.43 2000.76,-329.43 2000.76,-329.43"/>
<polygon fill="black" stroke="black" points="2000.76,-325.93 1990.76,-329.43 2000.76,-332.93 2000.76,-325.93"/>
</g>
<!-- ImagesComponent&#45;&gt;AppModule -->
<g id="edge15" class="edge">
<title>ImagesComponent&#45;&gt;AppModule</title>
<path fill="none" stroke="black" d="M2418.71,-291.71C2418.71,-307.37 2418.71,-327.43 2418.71,-327.43 2418.71,-327.43 2000.68,-327.43 2000.68,-327.43"/>
<polygon fill="black" stroke="black" points="2000.68,-323.93 1990.68,-327.43 2000.68,-330.93 2000.68,-323.93"/>
</g>
<!-- ImportDVDComponent -->
<g id="node11" class="node">
<title>ImportDVDComponent</title>
<polygon fill="#ffffb3" stroke="black" points="2359.75,-291.43 2210.25,-291.43 2210.25,-255.43 2359.75,-255.43 2359.75,-291.43"/>
<text text-anchor="middle" x="2285" y="-269.23" font-family="Times,serif" font-size="14.00">ImportDVDComponent</text>
</g>
<!-- ImportDVDComponent&#45;&gt;AppModule -->
<g id="edge16" class="edge">
<title>ImportDVDComponent&#45;&gt;AppModule</title>
<path fill="none" stroke="black" d="M2285,-291.61C2285,-306.61 2285,-325.43 2285,-325.43 2285,-325.43 2000.88,-325.43 2000.88,-325.43"/>
<polygon fill="black" stroke="black" points="2000.88,-321.93 1990.88,-325.43 2000.88,-328.93 2000.88,-321.93"/>
</g>
<!-- LogInFormComponent -->
<g id="node12" class="node">
<title>LogInFormComponent</title>
<polygon fill="#ffffb3" stroke="black" points="2191.88,-291.43 2046.12,-291.43 2046.12,-255.43 2191.88,-255.43 2191.88,-291.43"/>
<text text-anchor="middle" x="2119" y="-269.23" font-family="Times,serif" font-size="14.00">LogInFormComponent</text>
</g>
<!-- LogInFormComponent&#45;&gt;AppModule -->
<g id="edge17" class="edge">
<title>LogInFormComponent&#45;&gt;AppModule</title>
<path fill="none" stroke="black" d="M2119,-291.48C2119,-305.8 2119,-323.43 2119,-323.43 2119,-323.43 2001.02,-323.43 2001.02,-323.43"/>
<polygon fill="black" stroke="black" points="2001.02,-319.93 1991.02,-323.43 2001.02,-326.93 2001.02,-319.93"/>
</g>
<!-- ManageMenuComponent -->
<g id="node13" class="node">
<title>ManageMenuComponent</title>
<polygon fill="#ffffb3" stroke="black" points="2028.58,-291.43 1869.42,-291.43 1869.42,-255.43 2028.58,-255.43 2028.58,-291.43"/>
<text text-anchor="middle" x="1949" y="-269.23" font-family="Times,serif" font-size="14.00">ManageMenuComponent</text>
</g>
<!-- ManageMenuComponent&#45;&gt;AppModule -->
<g id="edge18" class="edge">
<title>ManageMenuComponent&#45;&gt;AppModule</title>
<path fill="none" stroke="black" d="M1949,-291.53C1949,-291.53 1949,-310.42 1949,-310.42"/>
<polygon fill="black" stroke="black" points="1945.5,-310.42 1949,-320.42 1952.5,-310.42 1945.5,-310.42"/>
</g>
<!-- ManagementClassesComponent -->
<g id="node14" class="node">
<title>ManagementClassesComponent</title>
<polygon fill="#ffffb3" stroke="black" points="1851.41,-291.43 1654.59,-291.43 1654.59,-255.43 1851.41,-255.43 1851.41,-291.43"/>
<text text-anchor="middle" x="1753" y="-269.23" font-family="Times,serif" font-size="14.00">ManagementClassesComponent</text>
</g>
<!-- ManagementClassesComponent&#45;&gt;AppModule -->
<g id="edge19" class="edge">
<title>ManagementClassesComponent&#45;&gt;AppModule</title>
<path fill="none" stroke="black" d="M1753,-291.48C1753,-305.8 1753,-323.43 1753,-323.43 1753,-323.43 1896.95,-323.43 1896.95,-323.43"/>
<polygon fill="black" stroke="black" points="1896.95,-326.93 1906.95,-323.43 1896.95,-319.93 1896.95,-326.93"/>
</g>
<!-- NavbarComponent -->
<g id="node15" class="node">
<title>NavbarComponent</title>
<polygon fill="#ffffb3" stroke="black" points="1637.03,-291.43 1514.97,-291.43 1514.97,-255.43 1637.03,-255.43 1637.03,-291.43"/>
<text text-anchor="middle" x="1576" y="-269.23" font-family="Times,serif" font-size="14.00">NavbarComponent</text>
</g>
<!-- NavbarComponent&#45;&gt;AppModule -->
<g id="edge20" class="edge">
<title>NavbarComponent&#45;&gt;AppModule</title>
<path fill="none" stroke="black" d="M1576,-291.61C1576,-306.61 1576,-325.43 1576,-325.43 1576,-325.43 1897.3,-325.43 1897.3,-325.43"/>
<polygon fill="black" stroke="black" points="1897.3,-328.93 1907.3,-325.43 1897.3,-321.93 1897.3,-328.93"/>
</g>
<!-- NotFoundComponent -->
<g id="node16" class="node">
<title>NotFoundComponent</title>
<polygon fill="#ffffb3" stroke="black" points="1497.11,-291.43 1358.89,-291.43 1358.89,-255.43 1497.11,-255.43 1497.11,-291.43"/>
<text text-anchor="middle" x="1428" y="-269.23" font-family="Times,serif" font-size="14.00">NotFoundComponent</text>
</g>
<!-- NotFoundComponent&#45;&gt;AppModule -->
<g id="edge21" class="edge">
<title>NotFoundComponent&#45;&gt;AppModule</title>
<path fill="none" stroke="black" d="M1428,-291.71C1428,-307.37 1428,-327.43 1428,-327.43 1428,-327.43 1897.25,-327.43 1897.25,-327.43"/>
<polygon fill="black" stroke="black" points="1897.25,-330.93 1907.25,-327.43 1897.25,-323.93 1897.25,-330.93"/>
</g>
<!-- PackagesComponent -->
<g id="node17" class="node">
<title>PackagesComponent</title>
<polygon fill="#ffffb3" stroke="black" points="1340.92,-291.43 1207.08,-291.43 1207.08,-255.43 1340.92,-255.43 1340.92,-291.43"/>
<text text-anchor="middle" x="1274" y="-269.23" font-family="Times,serif" font-size="14.00">PackagesComponent</text>
</g>
<!-- PackagesComponent&#45;&gt;AppModule -->
<g id="edge22" class="edge">
<title>PackagesComponent&#45;&gt;AppModule</title>
<path fill="none" stroke="black" d="M1274,-291.45C1274,-307.82 1274,-329.43 1274,-329.43 1274,-329.43 1897.29,-329.43 1897.29,-329.43"/>
<polygon fill="black" stroke="black" points="1897.29,-332.93 1907.29,-329.43 1897.29,-325.93 1897.29,-332.93"/>
</g>
<!-- ProfilesComponent -->
<g id="node18" class="node">
<title>ProfilesComponent</title>
<polygon fill="#ffffb3" stroke="black" points="1189.38,-291.43 1064.62,-291.43 1064.62,-255.43 1189.38,-255.43 1189.38,-291.43"/>
<text text-anchor="middle" x="1127" y="-269.23" font-family="Times,serif" font-size="14.00">ProfilesComponent</text>
</g>
<!-- ProfilesComponent&#45;&gt;AppModule -->
<g id="edge23" class="edge">
<title>ProfilesComponent&#45;&gt;AppModule</title>
<path fill="none" stroke="black" d="M1147.81,-291.45C1147.81,-308.8 1147.81,-332.43 1147.81,-332.43 1147.81,-332.43 1897.33,-332.43 1897.33,-332.43"/>
<polygon fill="black" stroke="black" points="1897.33,-335.93 1907.33,-332.43 1897.33,-328.93 1897.33,-335.93"/>
</g>
<!-- ProfilesComponent&#45;&gt;AppModule -->
<g id="edge24" class="edge">
<title>ProfilesComponent&#45;&gt;AppModule</title>
<path fill="none" stroke="black" d="M1106.19,-291.73C1106.19,-309.7 1106.19,-334.43 1106.19,-334.43 1106.19,-334.43 1897.2,-334.43 1897.2,-334.43"/>
<polygon fill="black" stroke="black" points="1897.2,-337.93 1907.2,-334.43 1897.2,-330.93 1897.2,-337.93"/>
</g>
<!-- RepoSyncComponent -->
<g id="node19" class="node">
<title>RepoSyncComponent</title>
<polygon fill="#ffffb3" stroke="black" points="1046.38,-291.43 907.62,-291.43 907.62,-255.43 1046.38,-255.43 1046.38,-291.43"/>
<text text-anchor="middle" x="977" y="-269.23" font-family="Times,serif" font-size="14.00">RepoSyncComponent</text>
</g>
<!-- RepoSyncComponent&#45;&gt;AppModule -->
<g id="edge25" class="edge">
<title>RepoSyncComponent&#45;&gt;AppModule</title>
<path fill="none" stroke="black" d="M977,-291.65C977,-310.25 977,-336.43 977,-336.43 977,-336.43 1897.23,-336.43 1897.23,-336.43"/>
<polygon fill="black" stroke="black" points="1897.23,-339.93 1907.23,-336.43 1897.23,-332.93 1897.23,-339.93"/>
</g>
<!-- ReposComponent -->
<g id="node20" class="node">
<title>ReposComponent</title>
<polygon fill="#ffffb3" stroke="black" points="889.33,-291.43 772.67,-291.43 772.67,-255.43 889.33,-255.43 889.33,-291.43"/>
<text text-anchor="middle" x="831" y="-269.23" font-family="Times,serif" font-size="14.00">ReposComponent</text>
</g>
<!-- ReposComponent&#45;&gt;AppModule -->
<g id="edge26" class="edge">
<title>ReposComponent&#45;&gt;AppModule</title>
<path fill="none" stroke="black" d="M811.61,-291.65C811.61,-311.79 811.61,-341.43 811.61,-341.43 811.61,-341.43 1897.17,-341.43 1897.17,-341.43"/>
<polygon fill="black" stroke="black" points="1897.17,-344.93 1907.17,-341.43 1897.17,-337.93 1897.17,-344.93"/>
</g>
<!-- ReposComponent&#45;&gt;AppModule -->
<g id="edge27" class="edge">
<title>ReposComponent&#45;&gt;AppModule</title>
<path fill="none" stroke="black" d="M850.39,-291.53C850.39,-310.76 850.39,-338.43 850.39,-338.43 850.39,-338.43 1897.27,-338.43 1897.27,-338.43"/>
<polygon fill="black" stroke="black" points="1897.27,-341.93 1907.27,-338.43 1897.27,-334.93 1897.27,-341.93"/>
</g>
<!-- SnippetsComponent -->
<g id="node21" class="node">
<title>SnippetsComponent</title>
<polygon fill="#ffffb3" stroke="black" points="754.56,-291.43 625.44,-291.43 625.44,-255.43 754.56,-255.43 754.56,-291.43"/>
<text text-anchor="middle" x="690" y="-269.23" font-family="Times,serif" font-size="14.00">SnippetsComponent</text>
</g>
<!-- SnippetsComponent&#45;&gt;AppModule -->
<g id="edge28" class="edge">
<title>SnippetsComponent&#45;&gt;AppModule</title>
<path fill="none" stroke="black" d="M690,-291.45C690,-312.19 690,-343.43 690,-343.43 690,-343.43 1897.11,-343.43 1897.11,-343.43"/>
<polygon fill="black" stroke="black" points="1897.11,-346.93 1907.11,-343.43 1897.11,-339.93 1897.11,-346.93"/>
</g>
<!-- SyncComponent -->
<g id="node22" class="node">
<title>SyncComponent</title>
<polygon fill="#ffffb3" stroke="black" points="607.83,-291.43 498.17,-291.43 498.17,-255.43 607.83,-255.43 607.83,-291.43"/>
<text text-anchor="middle" x="553" y="-269.23" font-family="Times,serif" font-size="14.00">SyncComponent</text>
</g>
<!-- SyncComponent&#45;&gt;AppModule -->
<g id="edge29" class="edge">
<title>SyncComponent&#45;&gt;AppModule</title>
<path fill="none" stroke="black" d="M553,-291.59C553,-312.92 553,-345.43 553,-345.43 553,-345.43 1897.22,-345.43 1897.22,-345.43"/>
<polygon fill="black" stroke="black" points="1897.22,-348.93 1907.22,-345.43 1897.22,-341.93 1897.22,-348.93"/>
</g>
<!-- SystemsComponent -->
<g id="node23" class="node">
<title>SystemsComponent</title>
<polygon fill="#ffffb3" stroke="black" points="480,-291.43 352,-291.43 352,-255.43 480,-255.43 480,-291.43"/>
<text text-anchor="middle" x="416" y="-269.23" font-family="Times,serif" font-size="14.00">SystemsComponent</text>
</g>
<!-- SystemsComponent&#45;&gt;AppModule -->
<g id="edge30" class="edge">
<title>SystemsComponent&#45;&gt;AppModule</title>
<path fill="none" stroke="black" d="M437.33,-291.72C437.33,-313.63 437.33,-347.43 437.33,-347.43 437.33,-347.43 1896.99,-347.43 1896.99,-347.43"/>
<polygon fill="black" stroke="black" points="1896.99,-350.93 1906.99,-347.43 1896.99,-343.93 1896.99,-350.93"/>
</g>
<!-- SystemsComponent&#45;&gt;AppModule -->
<g id="edge31" class="edge">
<title>SystemsComponent&#45;&gt;AppModule</title>
<path fill="none" stroke="black" d="M394.67,-291.67C394.67,-314.44 394.67,-350.43 394.67,-350.43 394.67,-350.43 1897.02,-350.43 1897.02,-350.43"/>
<polygon fill="black" stroke="black" points="1897.02,-353.93 1907.02,-350.43 1897.02,-346.93 1897.02,-353.93"/>
</g>
<!-- UnauthorizedComponent -->
<g id="node24" class="node">
<title>UnauthorizedComponent</title>
<polygon fill="#ffffb3" stroke="black" points="333.53,-291.43 176.47,-291.43 176.47,-255.43 333.53,-255.43 333.53,-291.43"/>
<text text-anchor="middle" x="255" y="-269.23" font-family="Times,serif" font-size="14.00">UnauthorizedComponent</text>
</g>
<!-- UnauthorizedComponent&#45;&gt;AppModule -->
<g id="edge32" class="edge">
<title>UnauthorizedComponent&#45;&gt;AppModule</title>
<path fill="none" stroke="black" d="M255,-291.75C255,-315.09 255,-352.43 255,-352.43 255,-352.43 1897.13,-352.43 1897.13,-352.43"/>
<polygon fill="black" stroke="black" points="1897.13,-355.93 1907.13,-352.43 1897.13,-348.93 1897.13,-355.93"/>
</g>
<!-- AppComponent  -->
<g id="node30" class="node">
<title>AppComponent </title>
<polygon fill="#80b1d3" stroke="black" points="2003.44,-421.43 1894.56,-421.43 1894.56,-385.43 2003.44,-385.43 2003.44,-421.43"/>
<text text-anchor="middle" x="1949" y="-399.23" font-family="Times,serif" font-size="14.00">AppComponent </text>
</g>
<!-- AppModule&#45;&gt;AppComponent  -->
<g id="edge34" class="edge">
<title>AppModule&#45;&gt;AppComponent </title>
<path fill="none" stroke="black" stroke-dasharray="1,5" d="M1949,-356.53C1949,-356.53 1949,-375.42 1949,-375.42"/>
<polygon fill="black" stroke="black" points="1945.5,-375.42 1949,-385.42 1952.5,-375.42 1945.5,-375.42"/>
</g>
<!-- CobblerApiService -->
<g id="node26" class="node">
<title>CobblerApiService</title>
<ellipse fill="#fdb462" stroke="black" cx="3695" cy="-137.61" rx="85.67" ry="18"/>
<text text-anchor="middle" x="3695" y="-133.41" font-family="Times,serif" font-size="14.00">CobblerApiService</text>
</g>
<!-- CobblerApiService&#45;&gt;AppComponent -->
<g id="edge2" class="edge">
<title>CobblerApiService&#45;&gt;AppComponent</title>
<path fill="none" stroke="black" d="M3780.6,-138.43C3785.77,-138.43 3788.93,-138.43 3788.93,-138.43 3788.93,-138.43 3788.93,-273.43 3788.93,-273.43 3788.93,-273.43 3789.76,-273.43 3789.76,-273.43"/>
<polygon fill="black" stroke="black" points="3787.17,-276.93 3797.17,-273.43 3787.17,-269.93 3787.17,-276.93"/>
</g>
<!-- { provide: , useFactory: () =&gt; {
 &#160;&#160;&#160;&#160;&#160;&#160;&#160;const value = localStorage.getItem();
 &#160;&#160;&#160;&#160;&#160;&#160;&#160;if (value) {
 &#160;&#160;&#160;&#160;&#160;&#160;&#160;&#160;&#160;&#160;&#160;return new URL(value);
 &#160;&#160;&#160;&#160;&#160;&#160;&#160;}
 &#160;&#160;&#160;&#160;&#160;&#160;&#160;return new URL();
 &#160;&#160;&#160;} } -->
<g id="node27" class="node">
<title>{ provide: , useFactory: () =&gt; {
 &#160;&#160;&#160;&#160;&#160;&#160;&#160;const value = localStorage.getItem();
 &#160;&#160;&#160;&#160;&#160;&#160;&#160;if (value) {
 &#160;&#160;&#160;&#160;&#160;&#160;&#160;&#160;&#160;&#160;&#160;return new URL(value);
 &#160;&#160;&#160;&#160;&#160;&#160;&#160;}
 &#160;&#160;&#160;&#160;&#160;&#160;&#160;return new URL();
 &#160;&#160;&#160;} }</title>
<ellipse fill="#fdb462" stroke="black" cx="3413" cy="-137.61" rx="177.97" ry="88.63"/>
<text text-anchor="middle" x="3413" y="-183.81" font-family="Times,serif" font-size="14.00">{ provide: , useFactory: () =&gt; {</text>
<text text-anchor="middle" x="3413" y="-167.01" font-family="Times,serif" font-size="14.00"> &#160;&#160;&#160;&#160;&#160;&#160;&#160;const value = localStorage.getItem();</text>
<text text-anchor="middle" x="3413" y="-150.21" font-family="Times,serif" font-size="14.00"> &#160;&#160;&#160;&#160;&#160;&#160;&#160;if (value) {</text>
<text text-anchor="middle" x="3413" y="-133.41" font-family="Times,serif" font-size="14.00"> &#160;&#160;&#160;&#160;&#160;&#160;&#160;&#160;&#160;&#160;&#160;return new URL(value);</text>
<text text-anchor="middle" x="3413" y="-116.61" font-family="Times,serif" font-size="14.00"> &#160;&#160;&#160;&#160;&#160;&#160;&#160;}</text>
<text text-anchor="middle" x="3413" y="-99.81" font-family="Times,serif" font-size="14.00"> &#160;&#160;&#160;&#160;&#160;&#160;&#160;return new URL();</text>
<text text-anchor="middle" x="3413" y="-83.01" font-family="Times,serif" font-size="14.00"> &#160;&#160;&#160;} }</text>
</g>
<!-- { provide: , useFactory: () =&gt; {
 &#160;&#160;&#160;&#160;&#160;&#160;&#160;const value = localStorage.getItem();
 &#160;&#160;&#160;&#160;&#160;&#160;&#160;if (value) {
 &#160;&#160;&#160;&#160;&#160;&#160;&#160;&#160;&#160;&#160;&#160;return new URL(value);
 &#160;&#160;&#160;&#160;&#160;&#160;&#160;}
 &#160;&#160;&#160;&#160;&#160;&#160;&#160;return new URL();
 &#160;&#160;&#160;} }&#45;&gt;AppComponent -->
<g id="edge3" class="edge">
<title>{ provide: , useFactory: () =&gt; {
 &#160;&#160;&#160;&#160;&#160;&#160;&#160;const value = localStorage.getItem();
 &#160;&#160;&#160;&#160;&#160;&#160;&#160;if (value) {
 &#160;&#160;&#160;&#160;&#160;&#160;&#160;&#160;&#160;&#160;&#160;return new URL(value);
 &#160;&#160;&#160;&#160;&#160;&#160;&#160;}
 &#160;&#160;&#160;&#160;&#160;&#160;&#160;return new URL();
 &#160;&#160;&#160;} }&#45;&gt;AppComponent</title>
<path fill="none" stroke="black" d="M3554.75,-191.43C3676.81,-191.43 3833.43,-191.43 3833.43,-191.43 3833.43,-191.43 3833.43,-245.23 3833.43,-245.23"/>
<polygon fill="black" stroke="black" points="3829.93,-245.23 3833.43,-255.23 3836.93,-245.23 3829.93,-245.23"/>
</g>
<!-- UserService -->
<g id="node28" class="node">
<title>UserService</title>
<ellipse fill="#fdb462" stroke="black" cx="3857" cy="-137.61" rx="58.44" ry="18"/>
<text text-anchor="middle" x="3857" y="-133.41" font-family="Times,serif" font-size="14.00">UserService</text>
</g>
<!-- UserService&#45;&gt;AppComponent -->
<g id="edge4" class="edge">
<title>UserService&#45;&gt;AppComponent</title>
<path fill="none" stroke="black" d="M3868.07,-155.37C3868.07,-155.37 3868.07,-245.23 3868.07,-245.23"/>
<polygon fill="black" stroke="black" points="3864.57,-245.23 3868.07,-255.23 3871.57,-245.23 3864.57,-245.23"/>
</g>
<!-- UserService&#45;&gt;AppModule -->
<g id="edge35" class="edge">
<title>UserService&#45;&gt;AppModule</title>
<path fill="none" stroke="black" d="M3908.97,-145.85C3908.97,-185.45 3908.97,-354.43 3908.97,-354.43 3908.97,-354.43 2000.84,-354.43 2000.84,-354.43"/>
<polygon fill="black" stroke="black" points="2000.84,-350.93 1990.84,-354.43 2000.84,-357.93 2000.84,-350.93"/>
</g>
<!-- AppRoutingModule -->
<g id="node29" class="node">
<title>AppRoutingModule</title>
<polygon fill="#8dd3c7" stroke="black" points="152.27,-291.43 149.27,-295.43 128.27,-295.43 125.27,-291.43 23.73,-291.43 23.73,-255.43 152.27,-255.43 152.27,-291.43"/>
<text text-anchor="middle" x="88" y="-269.23" font-family="Times,serif" font-size="14.00">AppRoutingModule</text>
</g>
<!-- AppRoutingModule&#45;&gt;AppModule -->
<g id="edge33" class="edge">
<title>AppRoutingModule&#45;&gt;AppModule</title>
<path fill="none" stroke="black" d="M88,-291.81C88,-315.7 88,-354.43 88,-354.43 88,-354.43 1897.08,-354.43 1897.08,-354.43"/>
<polygon fill="black" stroke="black" points="1897.08,-357.93 1907.08,-354.43 1897.08,-350.93 1897.08,-357.93"/>
</g>
</g>
</svg>
