<?xml version="1.0" encoding="UTF-8" standalone="no"?>
<!DOCTYPE svg PUBLIC "-//W3C//DTD SVG 1.1//EN"
 "http://www.w3.org/Graphics/SVG/1.1/DTD/svg11.dtd">
<!-- Generated by graphviz version 2.46.1 (20210213.1702)
 -->
<!-- Title: dependencies Pages: 1 -->
<svg width="4271pt" height="284pt"
 viewBox="0.00 0.00 4271.00 284.00" xmlns="http://www.w3.org/2000/svg" xmlns:xlink="http://www.w3.org/1999/xlink">
<g id="graph0" class="graph" transform="scale(1 1) rotate(0) translate(4 280)">
<title>dependencies</title>
<polygon fill="white" stroke="transparent" points="-4,4 -4,-280 4267,-280 4267,4 -4,4"/>
<text text-anchor="start" x="2110.51" y="-42.4" font-family="sans-serif" font-weight="bold" font-size="14.00">Legend</text>
<polygon fill="#ffffb3" stroke="transparent" points="1897.5,-10 1897.5,-30 1917.5,-30 1917.5,-10 1897.5,-10"/>
<text text-anchor="start" x="1921.13" y="-15.4" font-family="sans-serif" font-size="14.00"> &#160;Declarations</text>
<polygon fill="#8dd3c7" stroke="transparent" points="2010.5,-10 2010.5,-30 2030.5,-30 2030.5,-10 2010.5,-10"/>
<text text-anchor="start" x="2034.23" y="-15.4" font-family="sans-serif" font-size="14.00"> &#160;Module</text>
<polygon fill="#80b1d3" stroke="transparent" points="2096.5,-10 2096.5,-30 2116.5,-30 2116.5,-10 2096.5,-10"/>
<text text-anchor="start" x="2120.28" y="-15.4" font-family="sans-serif" font-size="14.00"> &#160;Bootstrap</text>
<polygon fill="#fdb462" stroke="transparent" points="2193.5,-10 2193.5,-30 2213.5,-30 2213.5,-10 2193.5,-10"/>
<text text-anchor="start" x="2217.17" y="-15.4" font-family="sans-serif" font-size="14.00"> &#160;Providers</text>
<polygon fill="#fb8072" stroke="transparent" points="2289.5,-10 2289.5,-30 2309.5,-30 2309.5,-10 2289.5,-10"/>
<text text-anchor="start" x="2313.23" y="-15.4" font-family="sans-serif" font-size="14.00"> &#160;Exports</text>
<g id="clust1" class="cluster">
<title>cluster_AppModule</title>
<polygon fill="none" stroke="black" stroke-dasharray="1,5" points="8,-70 8,-268 4255,-268 4255,-70 8,-70"/>
</g>
<g id="clust2" class="cluster">
<title>cluster_AppModule_declarations</title>
<polygon fill="none" stroke="black" points="168,-78 168,-130 4247,-130 4247,-78 168,-78"/>
</g>
<g id="clust29" class="cluster">
<title>cluster_AppModule_imports</title>
<polygon fill="none" stroke="black" points="16,-78 16,-130 160,-130 160,-78 16,-78"/>
</g>
<g id="clust31" class="cluster">
<title>cluster_AppModule_bootstrap</title>
<polygon fill="none" stroke="black" points="1959,-208 1959,-260 2083,-260 2083,-208 1959,-208"/>
</g>
<!-- AppComponent -->
<g id="node1" class="node">
<title>AppComponent</title>
<polygon fill="#ffffb3" stroke="black" points="4238.94,-122 4133.06,-122 4133.06,-86 4238.94,-86 4238.94,-122"/>
<text text-anchor="middle" x="4186" y="-99.8" font-family="Times,serif" font-size="14.00">AppComponent</text>
</g>
<!-- AppModule -->
<g id="node27" class="node">
<title>AppModule</title>
<polygon fill="#8dd3c7" stroke="black" points="2062.66,-187 2059.66,-191 2038.66,-191 2035.66,-187 1979.34,-187 1979.34,-151 2062.66,-151 2062.66,-187"/>
<text text-anchor="middle" x="2021" y="-164.8" font-family="Times,serif" font-size="14.00">AppModule</text>
</g>
<!-- AppComponent&#45;&gt;AppModule -->
<g id="edge1" class="edge">
<title>AppComponent&#45;&gt;AppModule</title>
<path fill="none" stroke="black" d="M4186,-122.38C4186,-146.28 4186,-185 4186,-185 4186,-185 2072.79,-185 2072.79,-185"/>
<polygon fill="black" stroke="black" points="2072.79,-181.5 2062.79,-185 2072.79,-188.5 2072.79,-181.5"/>
</g>
<!-- AppEventsComponent -->
<g id="node2" class="node">
<title>AppEventsComponent</title>
<polygon fill="#ffffb3" stroke="black" points="4115.54,-122 3972.46,-122 3972.46,-86 4115.54,-86 4115.54,-122"/>
<text text-anchor="middle" x="4044" y="-99.8" font-family="Times,serif" font-size="14.00">AppEventsComponent</text>
</g>
<!-- AppEventsComponent&#45;&gt;AppModule -->
<g id="edge2" class="edge">
<title>AppEventsComponent&#45;&gt;AppModule</title>
<path fill="none" stroke="black" d="M4044,-122.32C4044,-145.66 4044,-183 4044,-183 4044,-183 2072.79,-183 2072.79,-183"/>
<polygon fill="black" stroke="black" points="2072.79,-179.5 2062.79,-183 2072.79,-186.5 2072.79,-179.5"/>
</g>
<!-- AppFilesComponent -->
<g id="node3" class="node">
<title>AppFilesComponent</title>
<polygon fill="#ffffb3" stroke="black" points="3954.16,-122 3821.84,-122 3821.84,-86 3954.16,-86 3954.16,-122"/>
<text text-anchor="middle" x="3888" y="-99.8" font-family="Times,serif" font-size="14.00">AppFilesComponent</text>
</g>
<!-- AppFilesComponent&#45;&gt;AppModule -->
<g id="edge3" class="edge">
<title>AppFilesComponent&#45;&gt;AppModule</title>
<path fill="none" stroke="black" d="M3888,-122.25C3888,-145.02 3888,-181 3888,-181 3888,-181 2073.06,-181 2073.06,-181"/>
<polygon fill="black" stroke="black" points="2073.06,-177.5 2063.06,-181 2073.06,-184.5 2073.06,-177.5"/>
</g>
<!-- AppManageComponent -->
<g id="node4" class="node">
<title>AppManageComponent</title>
<polygon fill="#ffffb3" stroke="black" points="3803.03,-122 3652.97,-122 3652.97,-86 3803.03,-86 3803.03,-122"/>
<text text-anchor="middle" x="3728" y="-99.8" font-family="Times,serif" font-size="14.00">AppManageComponent</text>
</g>
<!-- AppManageComponent&#45;&gt;AppModule -->
<g id="edge4" class="edge">
<title>AppManageComponent&#45;&gt;AppModule</title>
<path fill="none" stroke="black" d="M3728,-122.29C3728,-144.21 3728,-178 3728,-178 3728,-178 2072.77,-178 2072.77,-178"/>
<polygon fill="black" stroke="black" points="2072.77,-174.5 2062.77,-178 2072.77,-181.5 2072.77,-174.5"/>
</g>
<!-- AppSettingsComponent -->
<g id="node5" class="node">
<title>AppSettingsComponent</title>
<polygon fill="#ffffb3" stroke="black" points="3634.05,-122 3483.95,-122 3483.95,-86 3634.05,-86 3634.05,-122"/>
<text text-anchor="middle" x="3559" y="-99.8" font-family="Times,serif" font-size="14.00">AppSettingsComponent</text>
</g>
<!-- AppSettingsComponent&#45;&gt;AppModule -->
<g id="edge5" class="edge">
<title>AppSettingsComponent&#45;&gt;AppModule</title>
<path fill="none" stroke="black" d="M3559,-122.17C3559,-143.5 3559,-176 3559,-176 3559,-176 2072.94,-176 2072.94,-176"/>
<polygon fill="black" stroke="black" points="2072.94,-172.5 2062.94,-176 2072.94,-179.5 2072.94,-172.5"/>
</g>
<!-- AppTemplatesComponent -->
<g id="node6" class="node">
<title>AppTemplatesComponent</title>
<polygon fill="#ffffb3" stroke="black" points="3465.75,-122 3302.25,-122 3302.25,-86 3465.75,-86 3465.75,-122"/>
<text text-anchor="middle" x="3384" y="-99.8" font-family="Times,serif" font-size="14.00">AppTemplatesComponent</text>
</g>
<!-- AppTemplatesComponent&#45;&gt;AppModule -->
<g id="edge6" class="edge">
<title>AppTemplatesComponent&#45;&gt;AppModule</title>
<path fill="none" stroke="black" d="M3384,-122.03C3384,-142.77 3384,-174 3384,-174 3384,-174 2072.91,-174 2072.91,-174"/>
<polygon fill="black" stroke="black" points="2072.91,-170.5 2062.91,-174 2072.91,-177.5 2072.91,-170.5"/>
</g>
<!-- BuildISOComponent -->
<g id="node7" class="node">
<title>BuildISOComponent</title>
<polygon fill="#ffffb3" stroke="black" points="3284.5,-122 3149.5,-122 3149.5,-86 3284.5,-86 3284.5,-122"/>
<text text-anchor="middle" x="3217" y="-99.8" font-family="Times,serif" font-size="14.00">BuildISOComponent</text>
</g>
<!-- BuildISOComponent&#45;&gt;AppModule -->
<g id="edge7" class="edge">
<title>BuildISOComponent&#45;&gt;AppModule</title>
<path fill="none" stroke="black" d="M3217,-122.22C3217,-142.37 3217,-172 3217,-172 3217,-172 2072.86,-172 2072.86,-172"/>
<polygon fill="black" stroke="black" points="2072.87,-168.5 2062.86,-172 2072.86,-175.5 2072.87,-168.5"/>
</g>
<!-- CheckSysComponent -->
<g id="node8" class="node">
<title>CheckSysComponent</title>
<polygon fill="#ffffb3" stroke="black" points="3131.83,-122 2994.17,-122 2994.17,-86 3131.83,-86 3131.83,-122"/>
<text text-anchor="middle" x="3063" y="-99.8" font-family="Times,serif" font-size="14.00">CheckSysComponent</text>
</g>
<!-- CheckSysComponent&#45;&gt;AppModule -->
<g id="edge8" class="edge">
<title>CheckSysComponent&#45;&gt;AppModule</title>
<path fill="none" stroke="black" d="M3063,-122.11C3063,-141.34 3063,-169 3063,-169 3063,-169 2072.81,-169 2072.81,-169"/>
<polygon fill="black" stroke="black" points="2072.81,-165.5 2062.81,-169 2072.81,-172.5 2072.81,-165.5"/>
</g>
<!-- CurrentOBJComponent -->
<g id="node9" class="node">
<title>CurrentOBJComponent</title>
<polygon fill="#ffffb3" stroke="black" points="2976.48,-122 2827.52,-122 2827.52,-86 2976.48,-86 2976.48,-122"/>
<text text-anchor="middle" x="2902" y="-99.8" font-family="Times,serif" font-size="14.00">CurrentOBJComponent</text>
</g>
<!-- CurrentOBJComponent&#45;&gt;AppModule -->
<g id="edge9" class="edge">
<title>CurrentOBJComponent&#45;&gt;AppModule</title>
<path fill="none" stroke="black" d="M2902,-122.22C2902,-140.83 2902,-167 2902,-167 2902,-167 2072.9,-167 2072.9,-167"/>
<polygon fill="black" stroke="black" points="2072.9,-163.5 2062.9,-167 2072.9,-170.5 2072.9,-163.5"/>
</g>
<!-- DistrosComponent -->
<g id="node10" class="node">
<title>DistrosComponent</title>
<polygon fill="#ffffb3" stroke="black" points="2809.77,-122 2688.23,-122 2688.23,-86 2809.77,-86 2809.77,-122"/>
<text text-anchor="middle" x="2749" y="-99.8" font-family="Times,serif" font-size="14.00">DistrosComponent</text>
</g>
<!-- DistrosComponent&#45;&gt;AppModule -->
<g id="edge10" class="edge">
<title>DistrosComponent&#45;&gt;AppModule</title>
<path fill="none" stroke="black" d="M2769.3,-122.3C2769.3,-140.27 2769.3,-165 2769.3,-165 2769.3,-165 2072.84,-165 2072.84,-165"/>
<polygon fill="black" stroke="black" points="2072.84,-161.5 2062.84,-165 2072.83,-168.5 2072.84,-161.5"/>
</g>
<!-- DistrosComponent&#45;&gt;AppModule -->
<g id="edge11" class="edge">
<title>DistrosComponent&#45;&gt;AppModule</title>
<path fill="none" stroke="black" d="M2728.7,-122.02C2728.7,-139.37 2728.7,-163 2728.7,-163 2728.7,-163 2072.89,-163 2072.89,-163"/>
<polygon fill="black" stroke="black" points="2072.89,-159.5 2062.89,-163 2072.89,-166.5 2072.89,-159.5"/>
</g>
<!-- ImagesComponent -->
<g id="node11" class="node">
<title>ImagesComponent</title>
<polygon fill="#ffffb3" stroke="black" points="2669.76,-122 2548.24,-122 2548.24,-86 2669.76,-86 2669.76,-122"/>
<text text-anchor="middle" x="2609" y="-99.8" font-family="Times,serif" font-size="14.00">ImagesComponent</text>
</g>
<!-- ImagesComponent&#45;&gt;AppModule -->
<g id="edge12" class="edge">
<title>ImagesComponent&#45;&gt;AppModule</title>
<path fill="none" stroke="black" d="M2629.29,-122.03C2629.29,-138.4 2629.29,-160 2629.29,-160 2629.29,-160 2072.81,-160 2072.81,-160"/>
<polygon fill="black" stroke="black" points="2072.81,-156.5 2062.81,-160 2072.81,-163.5 2072.81,-156.5"/>
</g>
<!-- ImagesComponent&#45;&gt;AppModule -->
<g id="edge13" class="edge">
<title>ImagesComponent&#45;&gt;AppModule</title>
<path fill="none" stroke="black" d="M2588.71,-122.28C2588.71,-137.95 2588.71,-158 2588.71,-158 2588.71,-158 2072.74,-158 2072.74,-158"/>
<polygon fill="black" stroke="black" points="2072.74,-154.5 2062.74,-158 2072.74,-161.5 2072.74,-154.5"/>
</g>
<!-- ImportDVDComponent -->
<g id="node12" class="node">
<title>ImportDVDComponent</title>
<polygon fill="#ffffb3" stroke="black" points="2529.75,-122 2380.25,-122 2380.25,-86 2529.75,-86 2529.75,-122"/>
<text text-anchor="middle" x="2455" y="-99.8" font-family="Times,serif" font-size="14.00">ImportDVDComponent</text>
</g>
<!-- ImportDVDComponent&#45;&gt;AppModule -->
<g id="edge14" class="edge">
<title>ImportDVDComponent&#45;&gt;AppModule</title>
<path fill="none" stroke="black" d="M2455,-122.19C2455,-137.18 2455,-156 2455,-156 2455,-156 2073.01,-156 2073.01,-156"/>
<polygon fill="black" stroke="black" points="2073.01,-152.5 2063.01,-156 2073.01,-159.5 2073.01,-152.5"/>
</g>
<!-- LogInFormComponent -->
<g id="node13" class="node">
<title>LogInFormComponent</title>
<polygon fill="#ffffb3" stroke="black" points="2361.88,-122 2216.12,-122 2216.12,-86 2361.88,-86 2361.88,-122"/>
<text text-anchor="middle" x="2289" y="-99.8" font-family="Times,serif" font-size="14.00">LogInFormComponent</text>
</g>
<!-- LogInFormComponent&#45;&gt;AppModule -->
<g id="edge15" class="edge">
<title>LogInFormComponent&#45;&gt;AppModule</title>
<path fill="none" stroke="black" d="M2289,-122.05C2289,-136.37 2289,-154 2289,-154 2289,-154 2072.88,-154 2072.88,-154"/>
<polygon fill="black" stroke="black" points="2072.88,-150.5 2062.88,-154 2072.87,-157.5 2072.88,-150.5"/>
</g>
<!-- ManageMenuComponent -->
<g id="node14" class="node">
<title>ManageMenuComponent</title>
<polygon fill="#ffffb3" stroke="black" points="2198.58,-122 2039.42,-122 2039.42,-86 2198.58,-86 2198.58,-122"/>
<text text-anchor="middle" x="2119" y="-99.8" font-family="Times,serif" font-size="14.00">ManageMenuComponent</text>
</g>
<!-- ManageMenuComponent&#45;&gt;AppModule -->
<g id="edge16" class="edge">
<title>ManageMenuComponent&#45;&gt;AppModule</title>
<path fill="none" stroke="black" d="M2051.14,-122.11C2051.14,-122.11 2051.14,-140.99 2051.14,-140.99"/>
<polygon fill="black" stroke="black" points="2047.64,-140.99 2051.14,-150.99 2054.64,-140.99 2047.64,-140.99"/>
</g>
<!-- ManagementClassesComponent -->
<g id="node15" class="node">
<title>ManagementClassesComponent</title>
<polygon fill="#ffffb3" stroke="black" points="2021.41,-122 1824.59,-122 1824.59,-86 2021.41,-86 2021.41,-122"/>
<text text-anchor="middle" x="1923" y="-99.8" font-family="Times,serif" font-size="14.00">ManagementClassesComponent</text>
</g>
<!-- ManagementClassesComponent&#45;&gt;AppModule -->
<g id="edge17" class="edge">
<title>ManagementClassesComponent&#45;&gt;AppModule</title>
<path fill="none" stroke="black" d="M2000.19,-122.11C2000.19,-122.11 2000.19,-140.99 2000.19,-140.99"/>
<polygon fill="black" stroke="black" points="1996.69,-140.99 2000.19,-150.99 2003.69,-140.99 1996.69,-140.99"/>
</g>
<!-- NavbarComponent -->
<g id="node16" class="node">
<title>NavbarComponent</title>
<polygon fill="#ffffb3" stroke="black" points="1807.03,-122 1684.97,-122 1684.97,-86 1807.03,-86 1807.03,-122"/>
<text text-anchor="middle" x="1746" y="-99.8" font-family="Times,serif" font-size="14.00">NavbarComponent</text>
</g>
<!-- NavbarComponent&#45;&gt;AppModule -->
<g id="edge18" class="edge">
<title>NavbarComponent&#45;&gt;AppModule</title>
<path fill="none" stroke="black" d="M1746,-122.05C1746,-136.37 1746,-154 1746,-154 1746,-154 1969.23,-154 1969.23,-154"/>
<polygon fill="black" stroke="black" points="1969.23,-157.5 1979.23,-154 1969.23,-150.5 1969.23,-157.5"/>
</g>
<!-- NotFoundComponent -->
<g id="node17" class="node">
<title>NotFoundComponent</title>
<polygon fill="#ffffb3" stroke="black" points="1667.11,-122 1528.89,-122 1528.89,-86 1667.11,-86 1667.11,-122"/>
<text text-anchor="middle" x="1598" y="-99.8" font-family="Times,serif" font-size="14.00">NotFoundComponent</text>
</g>
<!-- NotFoundComponent&#45;&gt;AppModule -->
<g id="edge19" class="edge">
<title>NotFoundComponent&#45;&gt;AppModule</title>
<path fill="none" stroke="black" d="M1598,-122.19C1598,-137.18 1598,-156 1598,-156 1598,-156 1969.28,-156 1969.28,-156"/>
<polygon fill="black" stroke="black" points="1969.28,-159.5 1979.28,-156 1969.28,-152.5 1969.28,-159.5"/>
</g>
<!-- PackagesComponent -->
<g id="node18" class="node">
<title>PackagesComponent</title>
<polygon fill="#ffffb3" stroke="black" points="1510.92,-122 1377.08,-122 1377.08,-86 1510.92,-86 1510.92,-122"/>
<text text-anchor="middle" x="1444" y="-99.8" font-family="Times,serif" font-size="14.00">PackagesComponent</text>
</g>
<!-- PackagesComponent&#45;&gt;AppModule -->
<g id="edge20" class="edge">
<title>PackagesComponent&#45;&gt;AppModule</title>
<path fill="none" stroke="black" d="M1444,-122.28C1444,-137.95 1444,-158 1444,-158 1444,-158 1969.04,-158 1969.04,-158"/>
<polygon fill="black" stroke="black" points="1969.04,-161.5 1979.04,-158 1969.04,-154.5 1969.04,-161.5"/>
</g>
<!-- ProfilesComponent -->
<g id="node19" class="node">
<title>ProfilesComponent</title>
<polygon fill="#ffffb3" stroke="black" points="1359.38,-122 1234.62,-122 1234.62,-86 1359.38,-86 1359.38,-122"/>
<text text-anchor="middle" x="1297" y="-99.8" font-family="Times,serif" font-size="14.00">ProfilesComponent</text>
</g>
<!-- ProfilesComponent&#45;&gt;AppModule -->
<g id="edge21" class="edge">
<title>ProfilesComponent&#45;&gt;AppModule</title>
<path fill="none" stroke="black" d="M1317.81,-122.03C1317.81,-138.4 1317.81,-160 1317.81,-160 1317.81,-160 1969.12,-160 1969.12,-160"/>
<polygon fill="black" stroke="black" points="1969.12,-163.5 1979.12,-160 1969.12,-156.5 1969.12,-163.5"/>
</g>
<!-- ProfilesComponent&#45;&gt;AppModule -->
<g id="edge22" class="edge">
<title>ProfilesComponent&#45;&gt;AppModule</title>
<path fill="none" stroke="black" d="M1276.19,-122.02C1276.19,-139.37 1276.19,-163 1276.19,-163 1276.19,-163 1969.09,-163 1969.09,-163"/>
<polygon fill="black" stroke="black" points="1969.09,-166.5 1979.09,-163 1969.09,-159.5 1969.09,-166.5"/>
</g>
<!-- RepoSyncComponent -->
<g id="node20" class="node">
<title>RepoSyncComponent</title>
<polygon fill="#ffffb3" stroke="black" points="1216.38,-122 1077.62,-122 1077.62,-86 1216.38,-86 1216.38,-122"/>
<text text-anchor="middle" x="1147" y="-99.8" font-family="Times,serif" font-size="14.00">RepoSyncComponent</text>
</g>
<!-- RepoSyncComponent&#45;&gt;AppModule -->
<g id="edge23" class="edge">
<title>RepoSyncComponent&#45;&gt;AppModule</title>
<path fill="none" stroke="black" d="M1147,-122.3C1147,-140.27 1147,-165 1147,-165 1147,-165 1969.14,-165 1969.14,-165"/>
<polygon fill="black" stroke="black" points="1969.14,-168.5 1979.14,-165 1969.14,-161.5 1969.14,-168.5"/>
</g>
<!-- ReposComponent -->
<g id="node21" class="node">
<title>ReposComponent</title>
<polygon fill="#ffffb3" stroke="black" points="1059.33,-122 942.67,-122 942.67,-86 1059.33,-86 1059.33,-122"/>
<text text-anchor="middle" x="1001" y="-99.8" font-family="Times,serif" font-size="14.00">ReposComponent</text>
</g>
<!-- ReposComponent&#45;&gt;AppModule -->
<g id="edge24" class="edge">
<title>ReposComponent&#45;&gt;AppModule</title>
<path fill="none" stroke="black" d="M1020.39,-122.22C1020.39,-140.83 1020.39,-167 1020.39,-167 1020.39,-167 1969.28,-167 1969.28,-167"/>
<polygon fill="black" stroke="black" points="1969.28,-170.5 1979.28,-167 1969.28,-163.5 1969.28,-170.5"/>
</g>
<!-- ReposComponent&#45;&gt;AppModule -->
<g id="edge25" class="edge">
<title>ReposComponent&#45;&gt;AppModule</title>
<path fill="none" stroke="black" d="M981.61,-122.11C981.61,-141.34 981.61,-169 981.61,-169 981.61,-169 1969.29,-169 1969.29,-169"/>
<polygon fill="black" stroke="black" points="1969.29,-172.5 1979.29,-169 1969.29,-165.5 1969.29,-172.5"/>
</g>
<!-- SnippetsComponent -->
<g id="node22" class="node">
<title>SnippetsComponent</title>
<polygon fill="#ffffb3" stroke="black" points="924.56,-122 795.44,-122 795.44,-86 924.56,-86 924.56,-122"/>
<text text-anchor="middle" x="860" y="-99.8" font-family="Times,serif" font-size="14.00">SnippetsComponent</text>
</g>
<!-- SnippetsComponent&#45;&gt;AppModule -->
<g id="edge26" class="edge">
<title>SnippetsComponent&#45;&gt;AppModule</title>
<path fill="none" stroke="black" d="M860,-122.22C860,-142.37 860,-172 860,-172 860,-172 1969.34,-172 1969.34,-172"/>
<polygon fill="black" stroke="black" points="1969.34,-175.5 1979.34,-172 1969.34,-168.5 1969.34,-175.5"/>
</g>
<!-- SyncComponent -->
<g id="node23" class="node">
<title>SyncComponent</title>
<polygon fill="#ffffb3" stroke="black" points="777.83,-122 668.17,-122 668.17,-86 777.83,-86 777.83,-122"/>
<text text-anchor="middle" x="723" y="-99.8" font-family="Times,serif" font-size="14.00">SyncComponent</text>
</g>
<!-- SyncComponent&#45;&gt;AppModule -->
<g id="edge27" class="edge">
<title>SyncComponent&#45;&gt;AppModule</title>
<path fill="none" stroke="black" d="M723,-122.03C723,-142.77 723,-174 723,-174 723,-174 1969.28,-174 1969.28,-174"/>
<polygon fill="black" stroke="black" points="1969.28,-177.5 1979.28,-174 1969.28,-170.5 1969.28,-177.5"/>
</g>
<!-- SystemsComponent -->
<g id="node24" class="node">
<title>SystemsComponent</title>
<polygon fill="#ffffb3" stroke="black" points="650,-122 522,-122 522,-86 650,-86 650,-122"/>
<text text-anchor="middle" x="586" y="-99.8" font-family="Times,serif" font-size="14.00">SystemsComponent</text>
</g>
<!-- SystemsComponent&#45;&gt;AppModule -->
<g id="edge28" class="edge">
<title>SystemsComponent&#45;&gt;AppModule</title>
<path fill="none" stroke="black" d="M607.33,-122.17C607.33,-143.5 607.33,-176 607.33,-176 607.33,-176 1969.08,-176 1969.08,-176"/>
<polygon fill="black" stroke="black" points="1969.08,-179.5 1979.08,-176 1969.08,-172.5 1969.08,-179.5"/>
</g>
<!-- SystemsComponent&#45;&gt;AppModule -->
<g id="edge29" class="edge">
<title>SystemsComponent&#45;&gt;AppModule</title>
<path fill="none" stroke="black" d="M564.67,-122.29C564.67,-144.21 564.67,-178 564.67,-178 564.67,-178 1968.99,-178 1968.99,-178"/>
<polygon fill="black" stroke="black" points="1968.99,-181.5 1978.99,-178 1968.99,-174.5 1968.99,-181.5"/>
</g>
<!-- TestServicesComponent -->
<g id="node25" class="node">
<title>TestServicesComponent</title>
<polygon fill="#ffffb3" stroke="black" points="504.36,-122 351.64,-122 351.64,-86 504.36,-86 504.36,-122"/>
<text text-anchor="middle" x="428" y="-99.8" font-family="Times,serif" font-size="14.00">TestServicesComponent</text>
</g>
<!-- TestServicesComponent&#45;&gt;AppModule -->
<g id="edge30" class="edge">
<title>TestServicesComponent&#45;&gt;AppModule</title>
<path fill="none" stroke="black" d="M428,-122.25C428,-145.02 428,-181 428,-181 428,-181 1969.21,-181 1969.21,-181"/>
<polygon fill="black" stroke="black" points="1969.21,-184.5 1979.21,-181 1969.21,-177.5 1969.21,-184.5"/>
</g>
<!-- UnauthorizedComponent -->
<g id="node26" class="node">
<title>UnauthorizedComponent</title>
<polygon fill="#ffffb3" stroke="black" points="333.53,-122 176.47,-122 176.47,-86 333.53,-86 333.53,-122"/>
<text text-anchor="middle" x="255" y="-99.8" font-family="Times,serif" font-size="14.00">UnauthorizedComponent</text>
</g>
<!-- UnauthorizedComponent&#45;&gt;AppModule -->
<g id="edge31" class="edge">
<title>UnauthorizedComponent&#45;&gt;AppModule</title>
<path fill="none" stroke="black" d="M255,-122.32C255,-145.66 255,-183 255,-183 255,-183 1969.09,-183 1969.09,-183"/>
<polygon fill="black" stroke="black" points="1969.09,-186.5 1979.09,-183 1969.09,-179.5 1969.09,-186.5"/>
</g>
<!-- AppComponent  -->
<g id="node29" class="node">
<title>AppComponent </title>
<polygon fill="#80b1d3" stroke="black" points="2075.44,-252 1966.56,-252 1966.56,-216 2075.44,-216 2075.44,-252"/>
<text text-anchor="middle" x="2021" y="-229.8" font-family="Times,serif" font-size="14.00">AppComponent </text>
</g>
<!-- AppModule&#45;&gt;AppComponent  -->
<g id="edge33" class="edge">
<title>AppModule&#45;&gt;AppComponent </title>
<path fill="none" stroke="black" stroke-dasharray="1,5" d="M2021,-187.11C2021,-187.11 2021,-205.99 2021,-205.99"/>
<polygon fill="black" stroke="black" points="2017.5,-205.99 2021,-215.99 2024.5,-205.99 2017.5,-205.99"/>
</g>
<!-- AppRoutingModule -->
<g id="node28" class="node">
<title>AppRoutingModule</title>
<polygon fill="#8dd3c7" stroke="black" points="152.27,-122 149.27,-126 128.27,-126 125.27,-122 23.73,-122 23.73,-86 152.27,-86 152.27,-122"/>
<text text-anchor="middle" x="88" y="-99.8" font-family="Times,serif" font-size="14.00">AppRoutingModule</text>
</g>
<!-- AppRoutingModule&#45;&gt;AppModule -->
<g id="edge32" class="edge">
<title>AppRoutingModule&#45;&gt;AppModule</title>
<path fill="none" stroke="black" d="M88,-122.38C88,-146.28 88,-185 88,-185 88,-185 1969.28,-185 1969.28,-185"/>
<polygon fill="black" stroke="black" points="1969.28,-188.5 1979.28,-185 1969.28,-181.5 1969.28,-188.5"/>
</g>
</g>
</svg>
