<?xml version="1.0" encoding="UTF-8" standalone="no"?>
<!DOCTYPE svg PUBLIC "-//W3C//DTD SVG 1.1//EN"
 "http://www.w3.org/Graphics/SVG/1.1/DTD/svg11.dtd">
<!-- Generated by graphviz version 2.47.3 (20210619.1520)
 -->
<!-- Title: dependencies Pages: 1 -->
<svg width="3935pt" height="312pt"
 viewBox="0.00 0.00 3935.00 311.80" xmlns="http://www.w3.org/2000/svg" xmlns:xlink="http://www.w3.org/1999/xlink">
<g id="graph0" class="graph" transform="scale(1 1) rotate(0) translate(4 307.8)">
<title>dependencies</title>
<polygon fill="white" stroke="transparent" points="-4,4 -4,-307.8 3931,-307.8 3931,4 -4,4"/>
<text text-anchor="middle" x="1963.5" y="-8.2" font-family="sans-serif" font-size="14.00">dependencies</text>
<g id="clust1" class="cluster">
<title>cluster_AppModule</title>
<polygon fill="none" stroke="black" stroke-dasharray="1,5" points="8,-32.8 8,-295.8 3919,-295.8 3919,-32.8 8,-32.8"/>
</g>
<g id="clust27" class="cluster">
<title>cluster_AppModule_imports</title>
<polygon fill="none" stroke="black" points="3767,-105.8 3767,-157.8 3911,-157.8 3911,-105.8 3767,-105.8"/>
</g>
<g id="clust29" class="cluster">
<title>cluster_AppModule_bootstrap</title>
<polygon fill="none" stroke="black" points="1820,-235.8 1820,-287.8 1944,-287.8 1944,-235.8 1820,-235.8"/>
</g>
<g id="clust2" class="cluster">
<title>cluster_AppModule_declarations</title>
<polygon fill="none" stroke="black" points="16,-105.8 16,-157.8 3759,-157.8 3759,-105.8 16,-105.8"/>
</g>
<g id="clust3" class="cluster">
<title>cluster_AppModule_AppComponent_providers</title>
<polygon fill="none" stroke="black" points="3346,-40.8 3346,-92.8 3851,-92.8 3851,-40.8 3346,-40.8"/>
</g>
<!-- AppComponent -->
<g id="node1" class="node">
<title>AppComponent</title>
<polygon fill="#ffffb3" stroke="black" points="3750.94,-149.8 3645.06,-149.8 3645.06,-113.8 3750.94,-113.8 3750.94,-149.8"/>
<text text-anchor="middle" x="3698" y="-127.6" font-family="Times,serif" font-size="14.00">AppComponent</text>
</g>
<!-- AppModule -->
<g id="node25" class="node">
<title>AppModule</title>
<polygon fill="#8dd3c7" stroke="black" points="1923.66,-214.8 1920.66,-218.8 1899.66,-218.8 1896.66,-214.8 1840.34,-214.8 1840.34,-178.8 1923.66,-178.8 1923.66,-214.8"/>
<text text-anchor="middle" x="1882" y="-192.6" font-family="Times,serif" font-size="14.00">AppModule</text>
</g>
<!-- AppComponent&#45;&gt;AppModule -->
<g id="edge1" class="edge">
<title>AppComponent&#45;&gt;AppModule</title>
<path fill="none" stroke="black" d="M3698,-150.12C3698,-173.46 3698,-210.8 3698,-210.8 3698,-210.8 1933.78,-210.8 1933.78,-210.8"/>
<polygon fill="black" stroke="black" points="1933.78,-207.3 1923.78,-210.8 1933.78,-214.3 1933.78,-207.3"/>
</g>
<!-- AppEventsComponent -->
<g id="node2" class="node">
<title>AppEventsComponent</title>
<polygon fill="#ffffb3" stroke="black" points="3627.54,-149.8 3484.46,-149.8 3484.46,-113.8 3627.54,-113.8 3627.54,-149.8"/>
<text text-anchor="middle" x="3556" y="-127.6" font-family="Times,serif" font-size="14.00">AppEventsComponent</text>
</g>
<!-- AppEventsComponent&#45;&gt;AppModule -->
<g id="edge4" class="edge">
<title>AppEventsComponent&#45;&gt;AppModule</title>
<path fill="none" stroke="black" d="M3556,-149.81C3556,-172.29 3556,-207.8 3556,-207.8 3556,-207.8 1933.8,-207.8 1933.8,-207.8"/>
<polygon fill="black" stroke="black" points="1933.8,-204.3 1923.8,-207.8 1933.8,-211.3 1933.8,-204.3"/>
</g>
<!-- AppFilesComponent -->
<g id="node3" class="node">
<title>AppFilesComponent</title>
<polygon fill="#ffffb3" stroke="black" points="3466.16,-149.8 3333.84,-149.8 3333.84,-113.8 3466.16,-113.8 3466.16,-149.8"/>
<text text-anchor="middle" x="3400" y="-127.6" font-family="Times,serif" font-size="14.00">AppFilesComponent</text>
</g>
<!-- AppFilesComponent&#45;&gt;AppModule -->
<g id="edge5" class="edge">
<title>AppFilesComponent&#45;&gt;AppModule</title>
<path fill="none" stroke="black" d="M3400,-150.09C3400,-172.01 3400,-205.8 3400,-205.8 3400,-205.8 1933.79,-205.8 1933.79,-205.8"/>
<polygon fill="black" stroke="black" points="1933.79,-202.3 1923.79,-205.8 1933.79,-209.3 1933.79,-202.3"/>
</g>
<!-- AppManageComponent -->
<g id="node4" class="node">
<title>AppManageComponent</title>
<polygon fill="#ffffb3" stroke="black" points="3315.03,-149.8 3164.97,-149.8 3164.97,-113.8 3315.03,-113.8 3315.03,-149.8"/>
<text text-anchor="middle" x="3240" y="-127.6" font-family="Times,serif" font-size="14.00">AppManageComponent</text>
</g>
<!-- AppManageComponent&#45;&gt;AppModule -->
<g id="edge6" class="edge">
<title>AppManageComponent&#45;&gt;AppModule</title>
<path fill="none" stroke="black" d="M3240,-150.08C3240,-171.12 3240,-202.8 3240,-202.8 3240,-202.8 1933.76,-202.8 1933.76,-202.8"/>
<polygon fill="black" stroke="black" points="1933.76,-199.3 1923.76,-202.8 1933.76,-206.3 1933.76,-199.3"/>
</g>
<!-- AppSettingsComponent -->
<g id="node5" class="node">
<title>AppSettingsComponent</title>
<polygon fill="#ffffb3" stroke="black" points="3146.05,-149.8 2995.95,-149.8 2995.95,-113.8 3146.05,-113.8 3146.05,-149.8"/>
<text text-anchor="middle" x="3071" y="-127.6" font-family="Times,serif" font-size="14.00">AppSettingsComponent</text>
</g>
<!-- AppSettingsComponent&#45;&gt;AppModule -->
<g id="edge7" class="edge">
<title>AppSettingsComponent&#45;&gt;AppModule</title>
<path fill="none" stroke="black" d="M3071,-149.93C3071,-170.37 3071,-200.8 3071,-200.8 3071,-200.8 1933.97,-200.8 1933.97,-200.8"/>
<polygon fill="black" stroke="black" points="1933.97,-197.3 1923.97,-200.8 1933.97,-204.3 1933.97,-197.3"/>
</g>
<!-- AppTemplatesComponent -->
<g id="node6" class="node">
<title>AppTemplatesComponent</title>
<polygon fill="#ffffb3" stroke="black" points="2977.75,-149.8 2814.25,-149.8 2814.25,-113.8 2977.75,-113.8 2977.75,-149.8"/>
<text text-anchor="middle" x="2896" y="-127.6" font-family="Times,serif" font-size="14.00">AppTemplatesComponent</text>
</g>
<!-- AppTemplatesComponent&#45;&gt;AppModule -->
<g id="edge8" class="edge">
<title>AppTemplatesComponent&#45;&gt;AppModule</title>
<path fill="none" stroke="black" d="M2896,-150.11C2896,-169.95 2896,-198.8 2896,-198.8 2896,-198.8 1933.96,-198.8 1933.96,-198.8"/>
<polygon fill="black" stroke="black" points="1933.96,-195.3 1923.96,-198.8 1933.96,-202.3 1933.96,-195.3"/>
</g>
<!-- BuildISOComponent -->
<g id="node7" class="node">
<title>BuildISOComponent</title>
<polygon fill="#ffffb3" stroke="black" points="2796.5,-149.8 2661.5,-149.8 2661.5,-113.8 2796.5,-113.8 2796.5,-149.8"/>
<text text-anchor="middle" x="2729" y="-127.6" font-family="Times,serif" font-size="14.00">BuildISOComponent</text>
</g>
<!-- BuildISOComponent&#45;&gt;AppModule -->
<g id="edge9" class="edge">
<title>BuildISOComponent&#45;&gt;AppModule</title>
<path fill="none" stroke="black" d="M2729,-149.97C2729,-168.89 2729,-195.8 2729,-195.8 2729,-195.8 1933.71,-195.8 1933.71,-195.8"/>
<polygon fill="black" stroke="black" points="1933.71,-192.3 1923.71,-195.8 1933.71,-199.3 1933.71,-192.3"/>
</g>
<!-- CheckSysComponent -->
<g id="node8" class="node">
<title>CheckSysComponent</title>
<polygon fill="#ffffb3" stroke="black" points="2643.83,-149.8 2506.17,-149.8 2506.17,-113.8 2643.83,-113.8 2643.83,-149.8"/>
<text text-anchor="middle" x="2575" y="-127.6" font-family="Times,serif" font-size="14.00">CheckSysComponent</text>
</g>
<!-- CheckSysComponent&#45;&gt;AppModule -->
<g id="edge10" class="edge">
<title>CheckSysComponent&#45;&gt;AppModule</title>
<path fill="none" stroke="black" d="M2575,-150.07C2575,-168.36 2575,-193.8 2575,-193.8 2575,-193.8 1933.79,-193.8 1933.79,-193.8"/>
<polygon fill="black" stroke="black" points="1933.79,-190.3 1923.79,-193.8 1933.79,-197.3 1933.79,-190.3"/>
</g>
<!-- DistrosComponent -->
<g id="node9" class="node">
<title>DistrosComponent</title>
<polygon fill="#ffffb3" stroke="black" points="2487.77,-149.8 2366.23,-149.8 2366.23,-113.8 2487.77,-113.8 2487.77,-149.8"/>
<text text-anchor="middle" x="2427" y="-127.6" font-family="Times,serif" font-size="14.00">DistrosComponent</text>
</g>
<!-- DistrosComponent&#45;&gt;AppModule -->
<g id="edge11" class="edge">
<title>DistrosComponent&#45;&gt;AppModule</title>
<path fill="none" stroke="black" d="M2447.3,-149.82C2447.3,-167.17 2447.3,-190.8 2447.3,-190.8 2447.3,-190.8 1934.03,-190.8 1934.03,-190.8"/>
<polygon fill="black" stroke="black" points="1934.03,-187.3 1924.03,-190.8 1934.03,-194.3 1934.03,-187.3"/>
</g>
<!-- DistrosComponent&#45;&gt;AppModule -->
<g id="edge12" class="edge">
<title>DistrosComponent&#45;&gt;AppModule</title>
<path fill="none" stroke="black" d="M2406.7,-149.84C2406.7,-166.53 2406.7,-188.8 2406.7,-188.8 2406.7,-188.8 1934.05,-188.8 1934.05,-188.8"/>
<polygon fill="black" stroke="black" points="1934.05,-185.3 1924.05,-188.8 1934.05,-192.3 1934.05,-185.3"/>
</g>
<!-- ImagesComponent -->
<g id="node10" class="node">
<title>ImagesComponent</title>
<polygon fill="#ffffb3" stroke="black" points="2347.76,-149.8 2226.24,-149.8 2226.24,-113.8 2347.76,-113.8 2347.76,-149.8"/>
<text text-anchor="middle" x="2287" y="-127.6" font-family="Times,serif" font-size="14.00">ImagesComponent</text>
</g>
<!-- ImagesComponent&#45;&gt;AppModule -->
<g id="edge13" class="edge">
<title>ImagesComponent&#45;&gt;AppModule</title>
<path fill="none" stroke="black" d="M2307.29,-149.81C2307.29,-165.85 2307.29,-186.8 2307.29,-186.8 2307.29,-186.8 1933.94,-186.8 1933.94,-186.8"/>
<polygon fill="black" stroke="black" points="1933.94,-183.3 1923.94,-186.8 1933.94,-190.3 1933.94,-183.3"/>
</g>
<!-- ImagesComponent&#45;&gt;AppModule -->
<g id="edge14" class="edge">
<title>ImagesComponent&#45;&gt;AppModule</title>
<path fill="none" stroke="black" d="M2266.71,-149.99C2266.71,-164.98 2266.71,-183.8 2266.71,-183.8 2266.71,-183.8 1933.9,-183.8 1933.9,-183.8"/>
<polygon fill="black" stroke="black" points="1933.9,-180.3 1923.9,-183.8 1933.9,-187.3 1933.9,-180.3"/>
</g>
<!-- ImportDVDComponent -->
<g id="node11" class="node">
<title>ImportDVDComponent</title>
<polygon fill="#ffffb3" stroke="black" points="2207.75,-149.8 2058.25,-149.8 2058.25,-113.8 2207.75,-113.8 2207.75,-149.8"/>
<text text-anchor="middle" x="2133" y="-127.6" font-family="Times,serif" font-size="14.00">ImportDVDComponent</text>
</g>
<!-- ImportDVDComponent&#45;&gt;AppModule -->
<g id="edge15" class="edge">
<title>ImportDVDComponent&#45;&gt;AppModule</title>
<path fill="none" stroke="black" d="M2133,-149.85C2133,-164.17 2133,-181.8 2133,-181.8 2133,-181.8 1933.73,-181.8 1933.73,-181.8"/>
<polygon fill="black" stroke="black" points="1933.73,-178.3 1923.73,-181.8 1933.73,-185.3 1933.73,-178.3"/>
</g>
<!-- LogInFormComponent -->
<g id="node12" class="node">
<title>LogInFormComponent</title>
<polygon fill="#ffffb3" stroke="black" points="2039.88,-149.8 1894.12,-149.8 1894.12,-113.8 2039.88,-113.8 2039.88,-149.8"/>
<text text-anchor="middle" x="1967" y="-127.6" font-family="Times,serif" font-size="14.00">LogInFormComponent</text>
</g>
<!-- LogInFormComponent&#45;&gt;AppModule -->
<g id="edge16" class="edge">
<title>LogInFormComponent&#45;&gt;AppModule</title>
<path fill="none" stroke="black" d="M1908.94,-149.91C1908.94,-149.91 1908.94,-168.79 1908.94,-168.79"/>
<polygon fill="black" stroke="black" points="1905.44,-168.79 1908.94,-178.79 1912.44,-168.79 1905.44,-168.79"/>
</g>
<!-- ManageMenuComponent -->
<g id="node13" class="node">
<title>ManageMenuComponent</title>
<polygon fill="#ffffb3" stroke="black" points="1876.58,-149.8 1717.42,-149.8 1717.42,-113.8 1876.58,-113.8 1876.58,-149.8"/>
<text text-anchor="middle" x="1797" y="-127.6" font-family="Times,serif" font-size="14.00">ManageMenuComponent</text>
</g>
<!-- ManageMenuComponent&#45;&gt;AppModule -->
<g id="edge17" class="edge">
<title>ManageMenuComponent&#45;&gt;AppModule</title>
<path fill="none" stroke="black" d="M1858.36,-149.91C1858.36,-149.91 1858.36,-168.79 1858.36,-168.79"/>
<polygon fill="black" stroke="black" points="1854.86,-168.79 1858.36,-178.79 1861.86,-168.79 1854.86,-168.79"/>
</g>
<!-- ManagementClassesComponent -->
<g id="node14" class="node">
<title>ManagementClassesComponent</title>
<polygon fill="#ffffb3" stroke="black" points="1699.41,-149.8 1502.59,-149.8 1502.59,-113.8 1699.41,-113.8 1699.41,-149.8"/>
<text text-anchor="middle" x="1601" y="-127.6" font-family="Times,serif" font-size="14.00">ManagementClassesComponent</text>
</g>
<!-- ManagementClassesComponent&#45;&gt;AppModule -->
<g id="edge18" class="edge">
<title>ManagementClassesComponent&#45;&gt;AppModule</title>
<path fill="none" stroke="black" d="M1601,-149.85C1601,-164.17 1601,-181.8 1601,-181.8 1601,-181.8 1830.23,-181.8 1830.23,-181.8"/>
<polygon fill="black" stroke="black" points="1830.23,-185.3 1840.23,-181.8 1830.23,-178.3 1830.23,-185.3"/>
</g>
<!-- NavbarComponent -->
<g id="node15" class="node">
<title>NavbarComponent</title>
<polygon fill="#ffffb3" stroke="black" points="1485.03,-149.8 1362.97,-149.8 1362.97,-113.8 1485.03,-113.8 1485.03,-149.8"/>
<text text-anchor="middle" x="1424" y="-127.6" font-family="Times,serif" font-size="14.00">NavbarComponent</text>
</g>
<!-- NavbarComponent&#45;&gt;AppModule -->
<g id="edge19" class="edge">
<title>NavbarComponent&#45;&gt;AppModule</title>
<path fill="none" stroke="black" d="M1424,-149.99C1424,-164.98 1424,-183.8 1424,-183.8 1424,-183.8 1830.14,-183.8 1830.14,-183.8"/>
<polygon fill="black" stroke="black" points="1830.14,-187.3 1840.14,-183.8 1830.14,-180.3 1830.14,-187.3"/>
</g>
<!-- NotFoundComponent -->
<g id="node16" class="node">
<title>NotFoundComponent</title>
<polygon fill="#ffffb3" stroke="black" points="1345.11,-149.8 1206.89,-149.8 1206.89,-113.8 1345.11,-113.8 1345.11,-149.8"/>
<text text-anchor="middle" x="1276" y="-127.6" font-family="Times,serif" font-size="14.00">NotFoundComponent</text>
</g>
<!-- NotFoundComponent&#45;&gt;AppModule -->
<g id="edge20" class="edge">
<title>NotFoundComponent&#45;&gt;AppModule</title>
<path fill="none" stroke="black" d="M1276,-149.81C1276,-165.85 1276,-186.8 1276,-186.8 1276,-186.8 1829.87,-186.8 1829.87,-186.8"/>
<polygon fill="black" stroke="black" points="1829.87,-190.3 1839.87,-186.8 1829.87,-183.3 1829.87,-190.3"/>
</g>
<!-- PackagesComponent -->
<g id="node17" class="node">
<title>PackagesComponent</title>
<polygon fill="#ffffb3" stroke="black" points="1188.92,-149.8 1055.08,-149.8 1055.08,-113.8 1188.92,-113.8 1188.92,-149.8"/>
<text text-anchor="middle" x="1122" y="-127.6" font-family="Times,serif" font-size="14.00">PackagesComponent</text>
</g>
<!-- PackagesComponent&#45;&gt;AppModule -->
<g id="edge21" class="edge">
<title>PackagesComponent&#45;&gt;AppModule</title>
<path fill="none" stroke="black" d="M1122,-149.84C1122,-166.53 1122,-188.8 1122,-188.8 1122,-188.8 1830.33,-188.8 1830.33,-188.8"/>
<polygon fill="black" stroke="black" points="1830.33,-192.3 1840.33,-188.8 1830.33,-185.3 1830.33,-192.3"/>
</g>
<!-- ProfilesComponent -->
<g id="node18" class="node">
<title>ProfilesComponent</title>
<polygon fill="#ffffb3" stroke="black" points="1037.38,-149.8 912.62,-149.8 912.62,-113.8 1037.38,-113.8 1037.38,-149.8"/>
<text text-anchor="middle" x="975" y="-127.6" font-family="Times,serif" font-size="14.00">ProfilesComponent</text>
</g>
<!-- ProfilesComponent&#45;&gt;AppModule -->
<g id="edge22" class="edge">
<title>ProfilesComponent&#45;&gt;AppModule</title>
<path fill="none" stroke="black" d="M995.81,-149.82C995.81,-167.17 995.81,-190.8 995.81,-190.8 995.81,-190.8 1830.15,-190.8 1830.15,-190.8"/>
<polygon fill="black" stroke="black" points="1830.15,-194.3 1840.15,-190.8 1830.15,-187.3 1830.15,-194.3"/>
</g>
<!-- ProfilesComponent&#45;&gt;AppModule -->
<g id="edge23" class="edge">
<title>ProfilesComponent&#45;&gt;AppModule</title>
<path fill="none" stroke="black" d="M954.19,-150.07C954.19,-168.36 954.19,-193.8 954.19,-193.8 954.19,-193.8 1830.33,-193.8 1830.33,-193.8"/>
<polygon fill="black" stroke="black" points="1830.33,-197.3 1840.33,-193.8 1830.33,-190.3 1830.33,-197.3"/>
</g>
<!-- RepoSyncComponent -->
<g id="node19" class="node">
<title>RepoSyncComponent</title>
<polygon fill="#ffffb3" stroke="black" points="894.38,-149.8 755.62,-149.8 755.62,-113.8 894.38,-113.8 894.38,-149.8"/>
<text text-anchor="middle" x="825" y="-127.6" font-family="Times,serif" font-size="14.00">RepoSyncComponent</text>
</g>
<!-- RepoSyncComponent&#45;&gt;AppModule -->
<g id="edge24" class="edge">
<title>RepoSyncComponent&#45;&gt;AppModule</title>
<path fill="none" stroke="black" d="M825,-149.97C825,-168.89 825,-195.8 825,-195.8 825,-195.8 1830.24,-195.8 1830.24,-195.8"/>
<polygon fill="black" stroke="black" points="1830.24,-199.3 1840.24,-195.8 1830.24,-192.3 1830.24,-199.3"/>
</g>
<!-- ReposComponent -->
<g id="node20" class="node">
<title>ReposComponent</title>
<polygon fill="#ffffb3" stroke="black" points="737.33,-149.8 620.67,-149.8 620.67,-113.8 737.33,-113.8 737.33,-149.8"/>
<text text-anchor="middle" x="679" y="-127.6" font-family="Times,serif" font-size="14.00">ReposComponent</text>
</g>
<!-- ReposComponent&#45;&gt;AppModule -->
<g id="edge25" class="edge">
<title>ReposComponent&#45;&gt;AppModule</title>
<path fill="none" stroke="black" d="M659.61,-149.93C659.61,-170.37 659.61,-200.8 659.61,-200.8 659.61,-200.8 1830.28,-200.8 1830.28,-200.8"/>
<polygon fill="black" stroke="black" points="1830.28,-204.3 1840.28,-200.8 1830.28,-197.3 1830.28,-204.3"/>
</g>
<!-- ReposComponent&#45;&gt;AppModule -->
<g id="edge26" class="edge">
<title>ReposComponent&#45;&gt;AppModule</title>
<path fill="none" stroke="black" d="M698.39,-150.11C698.39,-169.95 698.39,-198.8 698.39,-198.8 698.39,-198.8 1830.22,-198.8 1830.22,-198.8"/>
<polygon fill="black" stroke="black" points="1830.22,-202.3 1840.22,-198.8 1830.22,-195.3 1830.22,-202.3"/>
</g>
<!-- SnippetsComponent -->
<g id="node21" class="node">
<title>SnippetsComponent</title>
<polygon fill="#ffffb3" stroke="black" points="602.56,-149.8 473.44,-149.8 473.44,-113.8 602.56,-113.8 602.56,-149.8"/>
<text text-anchor="middle" x="538" y="-127.6" font-family="Times,serif" font-size="14.00">SnippetsComponent</text>
</g>
<!-- SnippetsComponent&#45;&gt;AppModule -->
<g id="edge27" class="edge">
<title>SnippetsComponent&#45;&gt;AppModule</title>
<path fill="none" stroke="black" d="M538,-150.08C538,-171.12 538,-202.8 538,-202.8 538,-202.8 1830.3,-202.8 1830.3,-202.8"/>
<polygon fill="black" stroke="black" points="1830.3,-206.3 1840.3,-202.8 1830.3,-199.3 1830.3,-206.3"/>
</g>
<!-- SyncComponent -->
<g id="node22" class="node">
<title>SyncComponent</title>
<polygon fill="#ffffb3" stroke="black" points="455.83,-149.8 346.17,-149.8 346.17,-113.8 455.83,-113.8 455.83,-149.8"/>
<text text-anchor="middle" x="401" y="-127.6" font-family="Times,serif" font-size="14.00">SyncComponent</text>
</g>
<!-- SyncComponent&#45;&gt;AppModule -->
<g id="edge28" class="edge">
<title>SyncComponent&#45;&gt;AppModule</title>
<path fill="none" stroke="black" d="M401,-150.09C401,-172.01 401,-205.8 401,-205.8 401,-205.8 1830.06,-205.8 1830.06,-205.8"/>
<polygon fill="black" stroke="black" points="1830.06,-209.3 1840.06,-205.8 1830.06,-202.3 1830.06,-209.3"/>
</g>
<!-- SystemsComponent -->
<g id="node23" class="node">
<title>SystemsComponent</title>
<polygon fill="#ffffb3" stroke="black" points="328,-149.8 200,-149.8 200,-113.8 328,-113.8 328,-149.8"/>
<text text-anchor="middle" x="264" y="-127.6" font-family="Times,serif" font-size="14.00">SystemsComponent</text>
</g>
<!-- SystemsComponent&#45;&gt;AppModule -->
<g id="edge29" class="edge">
<title>SystemsComponent&#45;&gt;AppModule</title>
<path fill="none" stroke="black" d="M285.33,-149.81C285.33,-172.29 285.33,-207.8 285.33,-207.8 285.33,-207.8 1830.11,-207.8 1830.11,-207.8"/>
<polygon fill="black" stroke="black" points="1830.11,-211.3 1840.11,-207.8 1830.11,-204.3 1830.11,-211.3"/>
</g>
<!-- SystemsComponent&#45;&gt;AppModule -->
<g id="edge30" class="edge">
<title>SystemsComponent&#45;&gt;AppModule</title>
<path fill="none" stroke="black" d="M242.67,-150.12C242.67,-173.46 242.67,-210.8 242.67,-210.8 242.67,-210.8 1830.24,-210.8 1830.24,-210.8"/>
<polygon fill="black" stroke="black" points="1830.24,-214.3 1840.24,-210.8 1830.24,-207.3 1830.24,-214.3"/>
</g>
<!-- UnauthorizedComponent -->
<g id="node24" class="node">
<title>UnauthorizedComponent</title>
<polygon fill="#ffffb3" stroke="black" points="181.53,-149.8 24.47,-149.8 24.47,-113.8 181.53,-113.8 181.53,-149.8"/>
<text text-anchor="middle" x="103" y="-127.6" font-family="Times,serif" font-size="14.00">UnauthorizedComponent</text>
</g>
<!-- UnauthorizedComponent&#45;&gt;AppModule -->
<g id="edge31" class="edge">
<title>UnauthorizedComponent&#45;&gt;AppModule</title>
<path fill="none" stroke="black" d="M103,-150.18C103,-174.08 103,-212.8 103,-212.8 103,-212.8 1830.21,-212.8 1830.21,-212.8"/>
<polygon fill="black" stroke="black" points="1830.21,-216.3 1840.21,-212.8 1830.21,-209.3 1830.21,-216.3"/>
</g>
<!-- AppComponent  -->
<g id="node29" class="node">
<title>AppComponent </title>
<polygon fill="#80b1d3" stroke="black" points="1936.44,-279.8 1827.56,-279.8 1827.56,-243.8 1936.44,-243.8 1936.44,-279.8"/>
<text text-anchor="middle" x="1882" y="-257.6" font-family="Times,serif" font-size="14.00">AppComponent </text>
</g>
<!-- AppModule&#45;&gt;AppComponent  -->
<g id="edge33" class="edge">
<title>AppModule&#45;&gt;AppComponent </title>
<path fill="none" stroke="black" stroke-dasharray="1,5" d="M1882,-214.91C1882,-214.91 1882,-233.79 1882,-233.79"/>
<polygon fill="black" stroke="black" points="1878.5,-233.79 1882,-243.79 1885.5,-233.79 1878.5,-233.79"/>
</g>
<!-- CobblerApiService -->
<g id="node26" class="node">
<title>CobblerApiService</title>
<ellipse fill="#fdb462" stroke="black" cx="3757" cy="-66.8" rx="85.67" ry="18"/>
<text text-anchor="middle" x="3757" y="-62.6" font-family="Times,serif" font-size="14.00">CobblerApiService</text>
</g>
<!-- CobblerApiService&#45;&gt;AppComponent -->
<g id="edge2" class="edge">
<title>CobblerApiService&#45;&gt;AppComponent</title>
<path fill="none" stroke="black" d="M3711.07,-82.2C3711.07,-82.2 3711.07,-103.74 3711.07,-103.74"/>
<polygon fill="black" stroke="black" points="3707.57,-103.74 3711.07,-113.74 3714.57,-103.74 3707.57,-103.74"/>
</g>
<!-- { provide: , useValue: new URL() } -->
<g id="node27" class="node">
<title>{ provide: , useValue: new URL() }</title>
<ellipse fill="#fdb462" stroke="black" cx="3504" cy="-66.8" rx="149.65" ry="18"/>
<text text-anchor="middle" x="3504" y="-62.6" font-family="Times,serif" font-size="14.00">{ provide: , useValue: new URL() }</text>
</g>
<!-- { provide: , useValue: new URL() }&#45;&gt;AppComponent -->
<g id="edge3" class="edge">
<title>{ provide: , useValue: new URL() }&#45;&gt;AppComponent</title>
<path fill="none" stroke="black" d="M3649.55,-71.47C3649.55,-71.47 3649.55,-103.54 3649.55,-103.54"/>
<polygon fill="black" stroke="black" points="3646.05,-103.54 3649.55,-113.54 3653.05,-103.54 3646.05,-103.54"/>
</g>
<!-- AppRoutingModule -->
<g id="node28" class="node">
<title>AppRoutingModule</title>
<polygon fill="#8dd3c7" stroke="black" points="3903.27,-149.8 3900.27,-153.8 3879.27,-153.8 3876.27,-149.8 3774.73,-149.8 3774.73,-113.8 3903.27,-113.8 3903.27,-149.8"/>
<text text-anchor="middle" x="3839" y="-127.6" font-family="Times,serif" font-size="14.00">AppRoutingModule</text>
</g>
<!-- AppRoutingModule&#45;&gt;AppModule -->
<g id="edge32" class="edge">
<title>AppRoutingModule&#45;&gt;AppModule</title>
<path fill="none" stroke="black" d="M3839,-150.18C3839,-174.08 3839,-212.8 3839,-212.8 3839,-212.8 1933.78,-212.8 1933.78,-212.8"/>
<polygon fill="black" stroke="black" points="1933.78,-209.3 1923.78,-212.8 1933.78,-216.3 1933.78,-209.3"/>
</g>
</g>
</svg>
