<?xml version="1.0" encoding="UTF-8" standalone="no"?>
<!DOCTYPE svg PUBLIC "-//W3C//DTD SVG 1.1//EN"
 "http://www.w3.org/Graphics/SVG/1.1/DTD/svg11.dtd">
<!-- Generated by graphviz version 2.47.3 (20210619.1520)
 -->
<!-- Title: dependencies Pages: 1 -->
<svg width="3949pt" height="453pt"
 viewBox="0.00 0.00 3949.00 453.43" xmlns="http://www.w3.org/2000/svg" xmlns:xlink="http://www.w3.org/1999/xlink">
<g id="graph0" class="graph" transform="scale(1 1) rotate(0) translate(4 449.43)">
<title>dependencies</title>
<polygon fill="white" stroke="transparent" points="-4,4 -4,-449.43 3945,-449.43 3945,4 -4,4"/>
<text text-anchor="middle" x="1970.5" y="-8.2" font-family="sans-serif" font-size="14.00">dependencies</text>
<g id="clust1" class="cluster">
<title>cluster_AppModule</title>
<polygon fill="none" stroke="black" stroke-dasharray="1,5" points="8,-32.8 8,-437.43 3933,-437.43 3933,-32.8 8,-32.8"/>
</g>
<g id="clust27" class="cluster">
<title>cluster_AppModule_imports</title>
<polygon fill="none" stroke="black" points="3781,-247.43 3781,-299.43 3925,-299.43 3925,-247.43 3781,-247.43"/>
</g>
<g id="clust29" class="cluster">
<title>cluster_AppModule_bootstrap</title>
<polygon fill="none" stroke="black" points="1905,-377.43 1905,-429.43 2029,-429.43 2029,-377.43 1905,-377.43"/>
</g>
<g id="clust30" class="cluster">
<title>cluster_AppModule_providers</title>
<polygon fill="none" stroke="black" points="3748,-111.61 3748,-163.61 3880,-163.61 3880,-111.61 3748,-111.61"/>
</g>
<g id="clust2" class="cluster">
<title>cluster_AppModule_declarations</title>
<polygon fill="none" stroke="black" points="16,-247.43 16,-299.43 3759,-299.43 3759,-247.43 16,-247.43"/>
</g>
<g id="clust3" class="cluster">
<title>cluster_AppModule_AppComponent_providers</title>
<polygon fill="none" stroke="black" points="3178,-40.8 3178,-234.43 3740,-234.43 3740,-40.8 3178,-40.8"/>
</g>
<!-- AppComponent -->
<g id="node1" class="node">
<title>AppComponent</title>
<polygon fill="#ffffb3" stroke="black" points="3750.94,-291.43 3645.06,-291.43 3645.06,-255.43 3750.94,-255.43 3750.94,-291.43"/>
<text text-anchor="middle" x="3698" y="-269.23" font-family="Times,serif" font-size="14.00">AppComponent</text>
</g>
<!-- AppModule -->
<g id="node25" class="node">
<title>AppModule</title>
<polygon fill="#8dd3c7" stroke="black" points="2008.66,-356.43 2005.66,-360.43 1984.66,-360.43 1981.66,-356.43 1925.34,-356.43 1925.34,-320.43 2008.66,-320.43 2008.66,-356.43"/>
<text text-anchor="middle" x="1967" y="-334.23" font-family="Times,serif" font-size="14.00">AppModule</text>
</g>
<!-- AppComponent&#45;&gt;AppModule -->
<g id="edge1" class="edge">
<title>AppComponent&#45;&gt;AppModule</title>
<path fill="none" stroke="black" d="M3698,-291.67C3698,-314.44 3698,-350.43 3698,-350.43 3698,-350.43 2018.93,-350.43 2018.93,-350.43"/>
<polygon fill="black" stroke="black" points="2018.93,-346.93 2008.93,-350.43 2018.93,-353.93 2018.93,-346.93"/>
</g>
<!-- AppEventsComponent -->
<g id="node2" class="node">
<title>AppEventsComponent</title>
<polygon fill="#ffffb3" stroke="black" points="3627.54,-291.43 3484.46,-291.43 3484.46,-255.43 3627.54,-255.43 3627.54,-291.43"/>
<text text-anchor="middle" x="3556" y="-269.23" font-family="Times,serif" font-size="14.00">AppEventsComponent</text>
</g>
<!-- AppEventsComponent&#45;&gt;AppModule -->
<g id="edge5" class="edge">
<title>AppEventsComponent&#45;&gt;AppModule</title>
<path fill="none" stroke="black" d="M3556,-291.72C3556,-313.63 3556,-347.43 3556,-347.43 3556,-347.43 2018.69,-347.43 2018.69,-347.43"/>
<polygon fill="black" stroke="black" points="2018.69,-343.93 2008.69,-347.43 2018.69,-350.93 2018.69,-343.93"/>
</g>
<!-- AppFilesComponent -->
<g id="node3" class="node">
<title>AppFilesComponent</title>
<polygon fill="#ffffb3" stroke="black" points="3466.16,-291.43 3333.84,-291.43 3333.84,-255.43 3466.16,-255.43 3466.16,-291.43"/>
<text text-anchor="middle" x="3400" y="-269.23" font-family="Times,serif" font-size="14.00">AppFilesComponent</text>
</g>
<!-- AppFilesComponent&#45;&gt;AppModule -->
<g id="edge6" class="edge">
<title>AppFilesComponent&#45;&gt;AppModule</title>
<path fill="none" stroke="black" d="M3400,-291.59C3400,-312.92 3400,-345.43 3400,-345.43 3400,-345.43 2018.73,-345.43 2018.73,-345.43"/>
<polygon fill="black" stroke="black" points="2018.73,-341.93 2008.73,-345.43 2018.73,-348.93 2018.73,-341.93"/>
</g>
<!-- AppManageComponent -->
<g id="node4" class="node">
<title>AppManageComponent</title>
<polygon fill="#ffffb3" stroke="black" points="3315.03,-291.43 3164.97,-291.43 3164.97,-255.43 3315.03,-255.43 3315.03,-291.43"/>
<text text-anchor="middle" x="3240" y="-269.23" font-family="Times,serif" font-size="14.00">AppManageComponent</text>
</g>
<!-- AppManageComponent&#45;&gt;AppModule -->
<g id="edge7" class="edge">
<title>AppManageComponent&#45;&gt;AppModule</title>
<path fill="none" stroke="black" d="M3240,-291.45C3240,-312.19 3240,-343.43 3240,-343.43 3240,-343.43 2018.99,-343.43 2018.99,-343.43"/>
<polygon fill="black" stroke="black" points="2018.99,-339.93 2008.99,-343.43 2018.99,-346.93 2018.99,-339.93"/>
</g>
<!-- AppSettingsComponent -->
<g id="node5" class="node">
<title>AppSettingsComponent</title>
<polygon fill="#ffffb3" stroke="black" points="3146.05,-291.43 2995.95,-291.43 2995.95,-255.43 3146.05,-255.43 3146.05,-291.43"/>
<text text-anchor="middle" x="3071" y="-269.23" font-family="Times,serif" font-size="14.00">AppSettingsComponent</text>
</g>
<!-- AppSettingsComponent&#45;&gt;AppModule -->
<g id="edge8" class="edge">
<title>AppSettingsComponent&#45;&gt;AppModule</title>
<path fill="none" stroke="black" d="M3071,-291.65C3071,-311.79 3071,-341.43 3071,-341.43 3071,-341.43 2018.93,-341.43 2018.93,-341.43"/>
<polygon fill="black" stroke="black" points="2018.93,-337.93 2008.93,-341.43 2018.93,-344.93 2018.93,-337.93"/>
</g>
<!-- AppTemplatesComponent -->
<g id="node6" class="node">
<title>AppTemplatesComponent</title>
<polygon fill="#ffffb3" stroke="black" points="2977.75,-291.43 2814.25,-291.43 2814.25,-255.43 2977.75,-255.43 2977.75,-291.43"/>
<text text-anchor="middle" x="2896" y="-269.23" font-family="Times,serif" font-size="14.00">AppTemplatesComponent</text>
</g>
<!-- AppTemplatesComponent&#45;&gt;AppModule -->
<g id="edge9" class="edge">
<title>AppTemplatesComponent&#45;&gt;AppModule</title>
<path fill="none" stroke="black" d="M2896,-291.53C2896,-310.76 2896,-338.43 2896,-338.43 2896,-338.43 2018.72,-338.43 2018.72,-338.43"/>
<polygon fill="black" stroke="black" points="2018.72,-334.93 2008.72,-338.43 2018.72,-341.93 2018.72,-334.93"/>
</g>
<!-- BuildISOComponent -->
<g id="node7" class="node">
<title>BuildISOComponent</title>
<polygon fill="#ffffb3" stroke="black" points="2796.5,-291.43 2661.5,-291.43 2661.5,-255.43 2796.5,-255.43 2796.5,-291.43"/>
<text text-anchor="middle" x="2729" y="-269.23" font-family="Times,serif" font-size="14.00">BuildISOComponent</text>
</g>
<!-- BuildISOComponent&#45;&gt;AppModule -->
<g id="edge10" class="edge">
<title>BuildISOComponent&#45;&gt;AppModule</title>
<path fill="none" stroke="black" d="M2729,-291.65C2729,-310.25 2729,-336.43 2729,-336.43 2729,-336.43 2018.78,-336.43 2018.78,-336.43"/>
<polygon fill="black" stroke="black" points="2018.78,-332.93 2008.78,-336.43 2018.78,-339.93 2018.78,-332.93"/>
</g>
<!-- CheckSysComponent -->
<g id="node8" class="node">
<title>CheckSysComponent</title>
<polygon fill="#ffffb3" stroke="black" points="2643.83,-291.43 2506.17,-291.43 2506.17,-255.43 2643.83,-255.43 2643.83,-291.43"/>
<text text-anchor="middle" x="2575" y="-269.23" font-family="Times,serif" font-size="14.00">CheckSysComponent</text>
</g>
<!-- CheckSysComponent&#45;&gt;AppModule -->
<g id="edge11" class="edge">
<title>CheckSysComponent&#45;&gt;AppModule</title>
<path fill="none" stroke="black" d="M2575,-291.73C2575,-309.7 2575,-334.43 2575,-334.43 2575,-334.43 2018.79,-334.43 2018.79,-334.43"/>
<polygon fill="black" stroke="black" points="2018.79,-330.93 2008.79,-334.43 2018.79,-337.93 2018.79,-330.93"/>
</g>
<!-- DistrosComponent -->
<g id="node9" class="node">
<title>DistrosComponent</title>
<polygon fill="#ffffb3" stroke="black" points="2487.77,-291.43 2366.23,-291.43 2366.23,-255.43 2487.77,-255.43 2487.77,-291.43"/>
<text text-anchor="middle" x="2427" y="-269.23" font-family="Times,serif" font-size="14.00">DistrosComponent</text>
</g>
<!-- DistrosComponent&#45;&gt;AppModule -->
<g id="edge12" class="edge">
<title>DistrosComponent&#45;&gt;AppModule</title>
<path fill="none" stroke="black" d="M2447.3,-291.45C2447.3,-308.8 2447.3,-332.43 2447.3,-332.43 2447.3,-332.43 2018.78,-332.43 2018.78,-332.43"/>
<polygon fill="black" stroke="black" points="2018.78,-328.93 2008.78,-332.43 2018.78,-335.93 2018.78,-328.93"/>
</g>
<!-- DistrosComponent&#45;&gt;AppModule -->
<g id="edge13" class="edge">
<title>DistrosComponent&#45;&gt;AppModule</title>
<path fill="none" stroke="black" d="M2406.7,-291.45C2406.7,-307.82 2406.7,-329.43 2406.7,-329.43 2406.7,-329.43 2018.76,-329.43 2018.76,-329.43"/>
<polygon fill="black" stroke="black" points="2018.76,-325.93 2008.76,-329.43 2018.76,-332.93 2018.76,-325.93"/>
</g>
<!-- ImagesComponent -->
<g id="node10" class="node">
<title>ImagesComponent</title>
<polygon fill="#ffffb3" stroke="black" points="2347.76,-291.43 2226.24,-291.43 2226.24,-255.43 2347.76,-255.43 2347.76,-291.43"/>
<text text-anchor="middle" x="2287" y="-269.23" font-family="Times,serif" font-size="14.00">ImagesComponent</text>
</g>
<!-- ImagesComponent&#45;&gt;AppModule -->
<g id="edge14" class="edge">
<title>ImagesComponent&#45;&gt;AppModule</title>
<path fill="none" stroke="black" d="M2307.29,-291.71C2307.29,-307.37 2307.29,-327.43 2307.29,-327.43 2307.29,-327.43 2018.73,-327.43 2018.73,-327.43"/>
<polygon fill="black" stroke="black" points="2018.73,-323.93 2008.73,-327.43 2018.73,-330.93 2018.73,-323.93"/>
</g>
<!-- ImagesComponent&#45;&gt;AppModule -->
<g id="edge15" class="edge">
<title>ImagesComponent&#45;&gt;AppModule</title>
<path fill="none" stroke="black" d="M2266.71,-291.61C2266.71,-306.61 2266.71,-325.43 2266.71,-325.43 2266.71,-325.43 2018.67,-325.43 2018.67,-325.43"/>
<polygon fill="black" stroke="black" points="2018.67,-321.93 2008.67,-325.43 2018.67,-328.93 2018.67,-321.93"/>
</g>
<!-- ImportDVDComponent -->
<g id="node11" class="node">
<title>ImportDVDComponent</title>
<polygon fill="#ffffb3" stroke="black" points="2207.75,-291.43 2058.25,-291.43 2058.25,-255.43 2207.75,-255.43 2207.75,-291.43"/>
<text text-anchor="middle" x="2133" y="-269.23" font-family="Times,serif" font-size="14.00">ImportDVDComponent</text>
</g>
<!-- ImportDVDComponent&#45;&gt;AppModule -->
<g id="edge16" class="edge">
<title>ImportDVDComponent&#45;&gt;AppModule</title>
<path fill="none" stroke="black" d="M2133,-291.48C2133,-305.8 2133,-323.43 2133,-323.43 2133,-323.43 2018.89,-323.43 2018.89,-323.43"/>
<polygon fill="black" stroke="black" points="2018.89,-319.93 2008.89,-323.43 2018.89,-326.93 2018.89,-319.93"/>
</g>
<!-- LogInFormComponent -->
<g id="node12" class="node">
<title>LogInFormComponent</title>
<polygon fill="#ffffb3" stroke="black" points="2039.88,-291.43 1894.12,-291.43 1894.12,-255.43 2039.88,-255.43 2039.88,-291.43"/>
<text text-anchor="middle" x="1967" y="-269.23" font-family="Times,serif" font-size="14.00">LogInFormComponent</text>
</g>
<!-- LogInFormComponent&#45;&gt;AppModule -->
<g id="edge17" class="edge">
<title>LogInFormComponent&#45;&gt;AppModule</title>
<path fill="none" stroke="black" d="M1967,-291.53C1967,-291.53 1967,-310.42 1967,-310.42"/>
<polygon fill="black" stroke="black" points="1963.5,-310.42 1967,-320.42 1970.5,-310.42 1963.5,-310.42"/>
</g>
<!-- ManageMenuComponent -->
<g id="node13" class="node">
<title>ManageMenuComponent</title>
<polygon fill="#ffffb3" stroke="black" points="1876.58,-291.43 1717.42,-291.43 1717.42,-255.43 1876.58,-255.43 1876.58,-291.43"/>
<text text-anchor="middle" x="1797" y="-269.23" font-family="Times,serif" font-size="14.00">ManageMenuComponent</text>
</g>
<!-- ManageMenuComponent&#45;&gt;AppModule -->
<g id="edge18" class="edge">
<title>ManageMenuComponent&#45;&gt;AppModule</title>
<path fill="none" stroke="black" d="M1797,-291.48C1797,-305.8 1797,-323.43 1797,-323.43 1797,-323.43 1914.98,-323.43 1914.98,-323.43"/>
<polygon fill="black" stroke="black" points="1914.98,-326.93 1924.98,-323.43 1914.98,-319.93 1914.98,-326.93"/>
</g>
<!-- ManagementClassesComponent -->
<g id="node14" class="node">
<title>ManagementClassesComponent</title>
<polygon fill="#ffffb3" stroke="black" points="1699.41,-291.43 1502.59,-291.43 1502.59,-255.43 1699.41,-255.43 1699.41,-291.43"/>
<text text-anchor="middle" x="1601" y="-269.23" font-family="Times,serif" font-size="14.00">ManagementClassesComponent</text>
</g>
<!-- ManagementClassesComponent&#45;&gt;AppModule -->
<g id="edge19" class="edge">
<title>ManagementClassesComponent&#45;&gt;AppModule</title>
<path fill="none" stroke="black" d="M1601,-291.61C1601,-306.61 1601,-325.43 1601,-325.43 1601,-325.43 1915.02,-325.43 1915.02,-325.43"/>
<polygon fill="black" stroke="black" points="1915.02,-328.93 1925.02,-325.43 1915.02,-321.93 1915.02,-328.93"/>
</g>
<!-- NavbarComponent -->
<g id="node15" class="node">
<title>NavbarComponent</title>
<polygon fill="#ffffb3" stroke="black" points="1485.03,-291.43 1362.97,-291.43 1362.97,-255.43 1485.03,-255.43 1485.03,-291.43"/>
<text text-anchor="middle" x="1424" y="-269.23" font-family="Times,serif" font-size="14.00">NavbarComponent</text>
</g>
<!-- NavbarComponent&#45;&gt;AppModule -->
<g id="edge20" class="edge">
<title>NavbarComponent&#45;&gt;AppModule</title>
<path fill="none" stroke="black" d="M1424,-291.71C1424,-307.37 1424,-327.43 1424,-327.43 1424,-327.43 1915.29,-327.43 1915.29,-327.43"/>
<polygon fill="black" stroke="black" points="1915.29,-330.93 1925.29,-327.43 1915.29,-323.93 1915.29,-330.93"/>
</g>
<!-- NotFoundComponent -->
<g id="node16" class="node">
<title>NotFoundComponent</title>
<polygon fill="#ffffb3" stroke="black" points="1345.11,-291.43 1206.89,-291.43 1206.89,-255.43 1345.11,-255.43 1345.11,-291.43"/>
<text text-anchor="middle" x="1276" y="-269.23" font-family="Times,serif" font-size="14.00">NotFoundComponent</text>
</g>
<!-- NotFoundComponent&#45;&gt;AppModule -->
<g id="edge21" class="edge">
<title>NotFoundComponent&#45;&gt;AppModule</title>
<path fill="none" stroke="black" d="M1276,-291.45C1276,-307.82 1276,-329.43 1276,-329.43 1276,-329.43 1915.33,-329.43 1915.33,-329.43"/>
<polygon fill="black" stroke="black" points="1915.33,-332.93 1925.33,-329.43 1915.33,-325.93 1915.33,-332.93"/>
</g>
<!-- PackagesComponent -->
<g id="node17" class="node">
<title>PackagesComponent</title>
<polygon fill="#ffffb3" stroke="black" points="1188.92,-291.43 1055.08,-291.43 1055.08,-255.43 1188.92,-255.43 1188.92,-291.43"/>
<text text-anchor="middle" x="1122" y="-269.23" font-family="Times,serif" font-size="14.00">PackagesComponent</text>
</g>
<!-- PackagesComponent&#45;&gt;AppModule -->
<g id="edge22" class="edge">
<title>PackagesComponent&#45;&gt;AppModule</title>
<path fill="none" stroke="black" d="M1122,-291.45C1122,-308.8 1122,-332.43 1122,-332.43 1122,-332.43 1915.1,-332.43 1915.1,-332.43"/>
<polygon fill="black" stroke="black" points="1915.1,-335.93 1925.1,-332.43 1915.1,-328.93 1915.1,-335.93"/>
</g>
<!-- ProfilesComponent -->
<g id="node18" class="node">
<title>ProfilesComponent</title>
<polygon fill="#ffffb3" stroke="black" points="1037.38,-291.43 912.62,-291.43 912.62,-255.43 1037.38,-255.43 1037.38,-291.43"/>
<text text-anchor="middle" x="975" y="-269.23" font-family="Times,serif" font-size="14.00">ProfilesComponent</text>
</g>
<!-- ProfilesComponent&#45;&gt;AppModule -->
<g id="edge23" class="edge">
<title>ProfilesComponent&#45;&gt;AppModule</title>
<path fill="none" stroke="black" d="M995.81,-291.73C995.81,-309.7 995.81,-334.43 995.81,-334.43 995.81,-334.43 1915.27,-334.43 1915.27,-334.43"/>
<polygon fill="black" stroke="black" points="1915.27,-337.93 1925.27,-334.43 1915.27,-330.93 1915.27,-337.93"/>
</g>
<!-- ProfilesComponent&#45;&gt;AppModule -->
<g id="edge24" class="edge">
<title>ProfilesComponent&#45;&gt;AppModule</title>
<path fill="none" stroke="black" d="M954.19,-291.65C954.19,-310.25 954.19,-336.43 954.19,-336.43 954.19,-336.43 1915.09,-336.43 1915.09,-336.43"/>
<polygon fill="black" stroke="black" points="1915.09,-339.93 1925.09,-336.43 1915.09,-332.93 1915.09,-339.93"/>
</g>
<!-- RepoSyncComponent -->
<g id="node19" class="node">
<title>RepoSyncComponent</title>
<polygon fill="#ffffb3" stroke="black" points="894.38,-291.43 755.62,-291.43 755.62,-255.43 894.38,-255.43 894.38,-291.43"/>
<text text-anchor="middle" x="825" y="-269.23" font-family="Times,serif" font-size="14.00">RepoSyncComponent</text>
</g>
<!-- RepoSyncComponent&#45;&gt;AppModule -->
<g id="edge25" class="edge">
<title>RepoSyncComponent&#45;&gt;AppModule</title>
<path fill="none" stroke="black" d="M825,-291.53C825,-310.76 825,-338.43 825,-338.43 825,-338.43 1915.34,-338.43 1915.34,-338.43"/>
<polygon fill="black" stroke="black" points="1915.34,-341.93 1925.34,-338.43 1915.34,-334.93 1915.34,-341.93"/>
</g>
<!-- ReposComponent -->
<g id="node20" class="node">
<title>ReposComponent</title>
<polygon fill="#ffffb3" stroke="black" points="737.33,-291.43 620.67,-291.43 620.67,-255.43 737.33,-255.43 737.33,-291.43"/>
<text text-anchor="middle" x="679" y="-269.23" font-family="Times,serif" font-size="14.00">ReposComponent</text>
</g>
<!-- ReposComponent&#45;&gt;AppModule -->
<g id="edge26" class="edge">
<title>ReposComponent&#45;&gt;AppModule</title>
<path fill="none" stroke="black" d="M698.39,-291.65C698.39,-311.79 698.39,-341.43 698.39,-341.43 698.39,-341.43 1915.15,-341.43 1915.15,-341.43"/>
<polygon fill="black" stroke="black" points="1915.15,-344.93 1925.15,-341.43 1915.15,-337.93 1915.15,-344.93"/>
</g>
<!-- ReposComponent&#45;&gt;AppModule -->
<g id="edge27" class="edge">
<title>ReposComponent&#45;&gt;AppModule</title>
<path fill="none" stroke="black" d="M659.61,-291.45C659.61,-312.19 659.61,-343.43 659.61,-343.43 659.61,-343.43 1914.98,-343.43 1914.98,-343.43"/>
<polygon fill="black" stroke="black" points="1914.98,-346.93 1924.98,-343.43 1914.98,-339.93 1914.98,-346.93"/>
</g>
<!-- SnippetsComponent -->
<g id="node21" class="node">
<title>SnippetsComponent</title>
<polygon fill="#ffffb3" stroke="black" points="602.56,-291.43 473.44,-291.43 473.44,-255.43 602.56,-255.43 602.56,-291.43"/>
<text text-anchor="middle" x="538" y="-269.23" font-family="Times,serif" font-size="14.00">SnippetsComponent</text>
</g>
<!-- SnippetsComponent&#45;&gt;AppModule -->
<g id="edge28" class="edge">
<title>SnippetsComponent&#45;&gt;AppModule</title>
<path fill="none" stroke="black" d="M538,-291.59C538,-312.92 538,-345.43 538,-345.43 538,-345.43 1915.01,-345.43 1915.01,-345.43"/>
<polygon fill="black" stroke="black" points="1915.01,-348.93 1925.01,-345.43 1915.01,-341.93 1915.01,-348.93"/>
</g>
<!-- SyncComponent -->
<g id="node22" class="node">
<title>SyncComponent</title>
<polygon fill="#ffffb3" stroke="black" points="455.83,-291.43 346.17,-291.43 346.17,-255.43 455.83,-255.43 455.83,-291.43"/>
<text text-anchor="middle" x="401" y="-269.23" font-family="Times,serif" font-size="14.00">SyncComponent</text>
</g>
<!-- SyncComponent&#45;&gt;AppModule -->
<g id="edge29" class="edge">
<title>SyncComponent&#45;&gt;AppModule</title>
<path fill="none" stroke="black" d="M401,-291.72C401,-313.63 401,-347.43 401,-347.43 401,-347.43 1915.11,-347.43 1915.11,-347.43"/>
<polygon fill="black" stroke="black" points="1915.11,-350.93 1925.11,-347.43 1915.11,-343.93 1915.11,-350.93"/>
</g>
<!-- SystemsComponent -->
<g id="node23" class="node">
<title>SystemsComponent</title>
<polygon fill="#ffffb3" stroke="black" points="328,-291.43 200,-291.43 200,-255.43 328,-255.43 328,-291.43"/>
<text text-anchor="middle" x="264" y="-269.23" font-family="Times,serif" font-size="14.00">SystemsComponent</text>
</g>
<!-- SystemsComponent&#45;&gt;AppModule -->
<g id="edge30" class="edge">
<title>SystemsComponent&#45;&gt;AppModule</title>
<path fill="none" stroke="black" d="M285.33,-291.67C285.33,-314.44 285.33,-350.43 285.33,-350.43 285.33,-350.43 1915.01,-350.43 1915.01,-350.43"/>
<polygon fill="black" stroke="black" points="1915.01,-353.93 1925.01,-350.43 1915.01,-346.93 1915.01,-353.93"/>
</g>
<!-- SystemsComponent&#45;&gt;AppModule -->
<g id="edge31" class="edge">
<title>SystemsComponent&#45;&gt;AppModule</title>
<path fill="none" stroke="black" d="M242.67,-291.75C242.67,-315.09 242.67,-352.43 242.67,-352.43 242.67,-352.43 1915.23,-352.43 1915.23,-352.43"/>
<polygon fill="black" stroke="black" points="1915.23,-355.93 1925.23,-352.43 1915.23,-348.93 1915.23,-355.93"/>
</g>
<!-- UnauthorizedComponent -->
<g id="node24" class="node">
<title>UnauthorizedComponent</title>
<polygon fill="#ffffb3" stroke="black" points="181.53,-291.43 24.47,-291.43 24.47,-255.43 181.53,-255.43 181.53,-291.43"/>
<text text-anchor="middle" x="103" y="-269.23" font-family="Times,serif" font-size="14.00">UnauthorizedComponent</text>
</g>
<!-- UnauthorizedComponent&#45;&gt;AppModule -->
<g id="edge32" class="edge">
<title>UnauthorizedComponent&#45;&gt;AppModule</title>
<path fill="none" stroke="black" d="M103,-291.81C103,-315.7 103,-354.43 103,-354.43 103,-354.43 1915.01,-354.43 1915.01,-354.43"/>
<polygon fill="black" stroke="black" points="1915.01,-357.93 1925.01,-354.43 1915.01,-350.93 1915.01,-357.93"/>
</g>
<!-- AppComponent  -->
<g id="node30" class="node">
<title>AppComponent </title>
<polygon fill="#80b1d3" stroke="black" points="2021.44,-421.43 1912.56,-421.43 1912.56,-385.43 2021.44,-385.43 2021.44,-421.43"/>
<text text-anchor="middle" x="1967" y="-399.23" font-family="Times,serif" font-size="14.00">AppComponent </text>
</g>
<!-- AppModule&#45;&gt;AppComponent  -->
<g id="edge34" class="edge">
<title>AppModule&#45;&gt;AppComponent </title>
<path fill="none" stroke="black" stroke-dasharray="1,5" d="M1967,-356.53C1967,-356.53 1967,-375.42 1967,-375.42"/>
<polygon fill="black" stroke="black" points="1963.5,-375.42 1967,-385.42 1970.5,-375.42 1963.5,-375.42"/>
</g>
<!-- CobblerApiService -->
<g id="node26" class="node">
<title>CobblerApiService</title>
<ellipse fill="#fdb462" stroke="black" cx="3646" cy="-137.61" rx="85.67" ry="18"/>
<text text-anchor="middle" x="3646" y="-133.41" font-family="Times,serif" font-size="14.00">CobblerApiService</text>
</g>
<!-- CobblerApiService&#45;&gt;AppComponent -->
<g id="edge2" class="edge">
<title>CobblerApiService&#45;&gt;AppComponent</title>
<path fill="none" stroke="black" d="M3702.82,-151.13C3702.82,-151.13 3702.82,-245.25 3702.82,-245.25"/>
<polygon fill="black" stroke="black" points="3699.32,-245.25 3702.82,-255.25 3706.32,-245.25 3699.32,-245.25"/>
</g>
<!-- { provide: , useFactory: () =&gt; {
 &#160;&#160;&#160;&#160;&#160;&#160;&#160;const value = localStorage.getItem();
 &#160;&#160;&#160;&#160;&#160;&#160;&#160;if (value) {
 &#160;&#160;&#160;&#160;&#160;&#160;&#160;&#160;&#160;&#160;&#160;return new URL(value);
 &#160;&#160;&#160;&#160;&#160;&#160;&#160;}
 &#160;&#160;&#160;&#160;&#160;&#160;&#160;return new URL();
 &#160;&#160;&#160;} } -->
<g id="node27" class="node">
<title>{ provide: , useFactory: () =&gt; {
 &#160;&#160;&#160;&#160;&#160;&#160;&#160;const value = localStorage.getItem();
 &#160;&#160;&#160;&#160;&#160;&#160;&#160;if (value) {
 &#160;&#160;&#160;&#160;&#160;&#160;&#160;&#160;&#160;&#160;&#160;return new URL(value);
 &#160;&#160;&#160;&#160;&#160;&#160;&#160;}
 &#160;&#160;&#160;&#160;&#160;&#160;&#160;return new URL();
 &#160;&#160;&#160;} }</title>
<ellipse fill="#fdb462" stroke="black" cx="3364" cy="-137.61" rx="177.97" ry="88.63"/>
<text text-anchor="middle" x="3364" y="-183.81" font-family="Times,serif" font-size="14.00">{ provide: , useFactory: () =&gt; {</text>
<text text-anchor="middle" x="3364" y="-167.01" font-family="Times,serif" font-size="14.00"> &#160;&#160;&#160;&#160;&#160;&#160;&#160;const value = localStorage.getItem();</text>
<text text-anchor="middle" x="3364" y="-150.21" font-family="Times,serif" font-size="14.00"> &#160;&#160;&#160;&#160;&#160;&#160;&#160;if (value) {</text>
<text text-anchor="middle" x="3364" y="-133.41" font-family="Times,serif" font-size="14.00"> &#160;&#160;&#160;&#160;&#160;&#160;&#160;&#160;&#160;&#160;&#160;return new URL(value);</text>
<text text-anchor="middle" x="3364" y="-116.61" font-family="Times,serif" font-size="14.00"> &#160;&#160;&#160;&#160;&#160;&#160;&#160;}</text>
<text text-anchor="middle" x="3364" y="-99.81" font-family="Times,serif" font-size="14.00"> &#160;&#160;&#160;&#160;&#160;&#160;&#160;return new URL();</text>
<text text-anchor="middle" x="3364" y="-83.01" font-family="Times,serif" font-size="14.00"> &#160;&#160;&#160;} }</text>
</g>
<!-- { provide: , useFactory: () =&gt; {
 &#160;&#160;&#160;&#160;&#160;&#160;&#160;const value = localStorage.getItem();
 &#160;&#160;&#160;&#160;&#160;&#160;&#160;if (value) {
 &#160;&#160;&#160;&#160;&#160;&#160;&#160;&#160;&#160;&#160;&#160;return new URL(value);
 &#160;&#160;&#160;&#160;&#160;&#160;&#160;}
 &#160;&#160;&#160;&#160;&#160;&#160;&#160;return new URL();
 &#160;&#160;&#160;} }&#45;&gt;AppComponent -->
<g id="edge3" class="edge">
<title>{ provide: , useFactory: () =&gt; {
 &#160;&#160;&#160;&#160;&#160;&#160;&#160;const value = localStorage.getItem();
 &#160;&#160;&#160;&#160;&#160;&#160;&#160;if (value) {
 &#160;&#160;&#160;&#160;&#160;&#160;&#160;&#160;&#160;&#160;&#160;return new URL(value);
 &#160;&#160;&#160;&#160;&#160;&#160;&#160;}
 &#160;&#160;&#160;&#160;&#160;&#160;&#160;return new URL();
 &#160;&#160;&#160;} }&#45;&gt;AppComponent</title>
<path fill="none" stroke="black" d="M3505.87,-191.43C3587.51,-191.43 3674.05,-191.43 3674.05,-191.43 3674.05,-191.43 3674.05,-245.23 3674.05,-245.23"/>
<polygon fill="black" stroke="black" points="3670.55,-245.23 3674.05,-255.23 3677.55,-245.23 3670.55,-245.23"/>
</g>
<!-- UserService -->
<g id="node28" class="node">
<title>UserService</title>
<ellipse fill="#fdb462" stroke="black" cx="3814" cy="-137.61" rx="58.44" ry="18"/>
<text text-anchor="middle" x="3814" y="-133.41" font-family="Times,serif" font-size="14.00">UserService</text>
</g>
<!-- UserService&#45;&gt;AppComponent -->
<g id="edge4" class="edge">
<title>UserService&#45;&gt;AppComponent</title>
<path fill="none" stroke="black" d="M3755.55,-138.43C3747.08,-138.43 3741.15,-138.43 3741.15,-138.43 3741.15,-138.43 3741.15,-245.22 3741.15,-245.22"/>
<polygon fill="black" stroke="black" points="3737.65,-245.22 3741.15,-255.22 3744.65,-245.22 3737.65,-245.22"/>
</g>
<!-- UserService&#45;&gt;AppModule -->
<g id="edge35" class="edge">
<title>UserService&#45;&gt;AppModule</title>
<path fill="none" stroke="black" d="M3772.2,-150.41C3772.2,-196.65 3772.2,-352.43 3772.2,-352.43 3772.2,-352.43 2018.96,-352.43 2018.96,-352.43"/>
<polygon fill="black" stroke="black" points="2018.96,-348.93 2008.96,-352.43 2018.96,-355.93 2018.96,-348.93"/>
</g>
<!-- AppRoutingModule -->
<g id="node29" class="node">
<title>AppRoutingModule</title>
<polygon fill="#8dd3c7" stroke="black" points="3917.27,-291.43 3914.27,-295.43 3893.27,-295.43 3890.27,-291.43 3788.73,-291.43 3788.73,-255.43 3917.27,-255.43 3917.27,-291.43"/>
<text text-anchor="middle" x="3853" y="-269.23" font-family="Times,serif" font-size="14.00">AppRoutingModule</text>
</g>
<!-- AppRoutingModule&#45;&gt;AppModule -->
<g id="edge33" class="edge">
<title>AppRoutingModule&#45;&gt;AppModule</title>
<path fill="none" stroke="black" d="M3853,-291.81C3853,-315.7 3853,-354.43 3853,-354.43 3853,-354.43 2019.04,-354.43 2019.04,-354.43"/>
<polygon fill="black" stroke="black" points="2019.04,-350.93 2009.04,-354.43 2019.04,-357.93 2019.04,-350.93"/>
</g>
</g>
</svg>
