<?xml version="1.0" encoding="UTF-8" standalone="no"?>
<!DOCTYPE svg PUBLIC "-//W3C//DTD SVG 1.1//EN"
 "http://www.w3.org/Graphics/SVG/1.1/DTD/svg11.dtd">
<!-- Generated by graphviz version 2.47.3 (20210619.1520)
 -->
<!-- Title: dependencies Pages: 1 -->
<svg width="4271pt" height="247pt"
 viewBox="0.00 0.00 4271.00 246.80" xmlns="http://www.w3.org/2000/svg" xmlns:xlink="http://www.w3.org/1999/xlink">
<g id="graph0" class="graph" transform="scale(1 1) rotate(0) translate(4 242.8)">
<title>dependencies</title>
<polygon fill="white" stroke="transparent" points="-4,4 -4,-242.8 4267,-242.8 4267,4 -4,4"/>
<text text-anchor="middle" x="2131.5" y="-8.2" font-family="sans-serif" font-size="14.00">dependencies</text>
<g id="clust1" class="cluster">
<title>cluster_AppModule</title>
<polygon fill="none" stroke="black" stroke-dasharray="1,5" points="8,-32.8 8,-230.8 4255,-230.8 4255,-32.8 8,-32.8"/>
</g>
<g id="clust2" class="cluster">
<title>cluster_AppModule_declarations</title>
<polygon fill="none" stroke="black" points="168,-40.8 168,-92.8 4247,-92.8 4247,-40.8 168,-40.8"/>
</g>
<g id="clust29" class="cluster">
<title>cluster_AppModule_imports</title>
<polygon fill="none" stroke="black" points="16,-40.8 16,-92.8 160,-92.8 160,-40.8 16,-40.8"/>
</g>
<g id="clust31" class="cluster">
<title>cluster_AppModule_bootstrap</title>
<polygon fill="none" stroke="black" points="1959,-170.8 1959,-222.8 2083,-222.8 2083,-170.8 1959,-170.8"/>
</g>
<!-- AppComponent -->
<g id="node1" class="node">
<title>AppComponent</title>
<polygon fill="#ffffb3" stroke="black" points="4238.94,-84.8 4133.06,-84.8 4133.06,-48.8 4238.94,-48.8 4238.94,-84.8"/>
<text text-anchor="middle" x="4186" y="-62.6" font-family="Times,serif" font-size="14.00">AppComponent</text>
</g>
<!-- AppModule -->
<g id="node27" class="node">
<title>AppModule</title>
<polygon fill="#8dd3c7" stroke="black" points="2062.66,-149.8 2059.66,-153.8 2038.66,-153.8 2035.66,-149.8 1979.34,-149.8 1979.34,-113.8 2062.66,-113.8 2062.66,-149.8"/>
<text text-anchor="middle" x="2021" y="-127.6" font-family="Times,serif" font-size="14.00">AppModule</text>
</g>
<!-- AppComponent&#45;&gt;AppModule -->
<g id="edge1" class="edge">
<title>AppComponent&#45;&gt;AppModule</title>
<path fill="none" stroke="black" d="M4186,-85.18C4186,-109.08 4186,-147.8 4186,-147.8 4186,-147.8 2072.79,-147.8 2072.79,-147.8"/>
<polygon fill="black" stroke="black" points="2072.79,-144.3 2062.79,-147.8 2072.79,-151.3 2072.79,-144.3"/>
</g>
<!-- AppEventsComponent -->
<g id="node2" class="node">
<title>AppEventsComponent</title>
<polygon fill="#ffffb3" stroke="black" points="4115.54,-84.8 3972.46,-84.8 3972.46,-48.8 4115.54,-48.8 4115.54,-84.8"/>
<text text-anchor="middle" x="4044" y="-62.6" font-family="Times,serif" font-size="14.00">AppEventsComponent</text>
</g>
<!-- AppEventsComponent&#45;&gt;AppModule -->
<g id="edge2" class="edge">
<title>AppEventsComponent&#45;&gt;AppModule</title>
<path fill="none" stroke="black" d="M4044,-85.12C4044,-108.46 4044,-145.8 4044,-145.8 4044,-145.8 2072.79,-145.8 2072.79,-145.8"/>
<polygon fill="black" stroke="black" points="2072.79,-142.3 2062.79,-145.8 2072.79,-149.3 2072.79,-142.3"/>
</g>
<!-- AppFilesComponent -->
<g id="node3" class="node">
<title>AppFilesComponent</title>
<polygon fill="#ffffb3" stroke="black" points="3954.16,-84.8 3821.84,-84.8 3821.84,-48.8 3954.16,-48.8 3954.16,-84.8"/>
<text text-anchor="middle" x="3888" y="-62.6" font-family="Times,serif" font-size="14.00">AppFilesComponent</text>
</g>
<!-- AppFilesComponent&#45;&gt;AppModule -->
<g id="edge3" class="edge">
<title>AppFilesComponent&#45;&gt;AppModule</title>
<path fill="none" stroke="black" d="M3888,-85.05C3888,-107.82 3888,-143.8 3888,-143.8 3888,-143.8 2073.06,-143.8 2073.06,-143.8"/>
<polygon fill="black" stroke="black" points="2073.06,-140.3 2063.06,-143.8 2073.06,-147.3 2073.06,-140.3"/>
</g>
<!-- AppManageComponent -->
<g id="node4" class="node">
<title>AppManageComponent</title>
<polygon fill="#ffffb3" stroke="black" points="3803.03,-84.8 3652.97,-84.8 3652.97,-48.8 3803.03,-48.8 3803.03,-84.8"/>
<text text-anchor="middle" x="3728" y="-62.6" font-family="Times,serif" font-size="14.00">AppManageComponent</text>
</g>
<!-- AppManageComponent&#45;&gt;AppModule -->
<g id="edge4" class="edge">
<title>AppManageComponent&#45;&gt;AppModule</title>
<path fill="none" stroke="black" d="M3728,-85.09C3728,-107.01 3728,-140.8 3728,-140.8 3728,-140.8 2072.77,-140.8 2072.77,-140.8"/>
<polygon fill="black" stroke="black" points="2072.77,-137.3 2062.77,-140.8 2072.77,-144.3 2072.77,-137.3"/>
</g>
<!-- AppSettingsComponent -->
<g id="node5" class="node">
<title>AppSettingsComponent</title>
<polygon fill="#ffffb3" stroke="black" points="3634.05,-84.8 3483.95,-84.8 3483.95,-48.8 3634.05,-48.8 3634.05,-84.8"/>
<text text-anchor="middle" x="3559" y="-62.6" font-family="Times,serif" font-size="14.00">AppSettingsComponent</text>
</g>
<!-- AppSettingsComponent&#45;&gt;AppModule -->
<g id="edge5" class="edge">
<title>AppSettingsComponent&#45;&gt;AppModule</title>
<path fill="none" stroke="black" d="M3559,-84.97C3559,-106.3 3559,-138.8 3559,-138.8 3559,-138.8 2072.94,-138.8 2072.94,-138.8"/>
<polygon fill="black" stroke="black" points="2072.94,-135.3 2062.94,-138.8 2072.94,-142.3 2072.94,-135.3"/>
</g>
<!-- AppTemplatesComponent -->
<g id="node6" class="node">
<title>AppTemplatesComponent</title>
<polygon fill="#ffffb3" stroke="black" points="3465.75,-84.8 3302.25,-84.8 3302.25,-48.8 3465.75,-48.8 3465.75,-84.8"/>
<text text-anchor="middle" x="3384" y="-62.6" font-family="Times,serif" font-size="14.00">AppTemplatesComponent</text>
</g>
<!-- AppTemplatesComponent&#45;&gt;AppModule -->
<g id="edge6" class="edge">
<title>AppTemplatesComponent&#45;&gt;AppModule</title>
<path fill="none" stroke="black" d="M3384,-84.83C3384,-105.57 3384,-136.8 3384,-136.8 3384,-136.8 2072.91,-136.8 2072.91,-136.8"/>
<polygon fill="black" stroke="black" points="2072.91,-133.3 2062.91,-136.8 2072.91,-140.3 2072.91,-133.3"/>
</g>
<!-- BuildISOComponent -->
<g id="node7" class="node">
<title>BuildISOComponent</title>
<polygon fill="#ffffb3" stroke="black" points="3284.5,-84.8 3149.5,-84.8 3149.5,-48.8 3284.5,-48.8 3284.5,-84.8"/>
<text text-anchor="middle" x="3217" y="-62.6" font-family="Times,serif" font-size="14.00">BuildISOComponent</text>
</g>
<!-- BuildISOComponent&#45;&gt;AppModule -->
<g id="edge7" class="edge">
<title>BuildISOComponent&#45;&gt;AppModule</title>
<path fill="none" stroke="black" d="M3217,-85.02C3217,-105.17 3217,-134.8 3217,-134.8 3217,-134.8 2072.86,-134.8 2072.86,-134.8"/>
<polygon fill="black" stroke="black" points="2072.87,-131.3 2062.86,-134.8 2072.86,-138.3 2072.87,-131.3"/>
</g>
<!-- CheckSysComponent -->
<g id="node8" class="node">
<title>CheckSysComponent</title>
<polygon fill="#ffffb3" stroke="black" points="3131.83,-84.8 2994.17,-84.8 2994.17,-48.8 3131.83,-48.8 3131.83,-84.8"/>
<text text-anchor="middle" x="3063" y="-62.6" font-family="Times,serif" font-size="14.00">CheckSysComponent</text>
</g>
<!-- CheckSysComponent&#45;&gt;AppModule -->
<g id="edge8" class="edge">
<title>CheckSysComponent&#45;&gt;AppModule</title>
<path fill="none" stroke="black" d="M3063,-84.91C3063,-104.14 3063,-131.8 3063,-131.8 3063,-131.8 2072.81,-131.8 2072.81,-131.8"/>
<polygon fill="black" stroke="black" points="2072.81,-128.3 2062.81,-131.8 2072.81,-135.3 2072.81,-128.3"/>
</g>
<!-- CurrentOBJComponent -->
<g id="node9" class="node">
<title>CurrentOBJComponent</title>
<polygon fill="#ffffb3" stroke="black" points="2976.48,-84.8 2827.52,-84.8 2827.52,-48.8 2976.48,-48.8 2976.48,-84.8"/>
<text text-anchor="middle" x="2902" y="-62.6" font-family="Times,serif" font-size="14.00">CurrentOBJComponent</text>
</g>
<!-- CurrentOBJComponent&#45;&gt;AppModule -->
<g id="edge9" class="edge">
<title>CurrentOBJComponent&#45;&gt;AppModule</title>
<path fill="none" stroke="black" d="M2902,-85.02C2902,-103.63 2902,-129.8 2902,-129.8 2902,-129.8 2072.9,-129.8 2072.9,-129.8"/>
<polygon fill="black" stroke="black" points="2072.9,-126.3 2062.9,-129.8 2072.9,-133.3 2072.9,-126.3"/>
</g>
<!-- DistrosComponent -->
<g id="node10" class="node">
<title>DistrosComponent</title>
<polygon fill="#ffffb3" stroke="black" points="2809.77,-84.8 2688.23,-84.8 2688.23,-48.8 2809.77,-48.8 2809.77,-84.8"/>
<text text-anchor="middle" x="2749" y="-62.6" font-family="Times,serif" font-size="14.00">DistrosComponent</text>
</g>
<!-- DistrosComponent&#45;&gt;AppModule -->
<g id="edge10" class="edge">
<title>DistrosComponent&#45;&gt;AppModule</title>
<path fill="none" stroke="black" d="M2769.3,-85.1C2769.3,-103.07 2769.3,-127.8 2769.3,-127.8 2769.3,-127.8 2072.84,-127.8 2072.84,-127.8"/>
<polygon fill="black" stroke="black" points="2072.84,-124.3 2062.84,-127.8 2072.83,-131.3 2072.84,-124.3"/>
</g>
<!-- DistrosComponent&#45;&gt;AppModule -->
<g id="edge11" class="edge">
<title>DistrosComponent&#45;&gt;AppModule</title>
<path fill="none" stroke="black" d="M2728.7,-84.82C2728.7,-102.17 2728.7,-125.8 2728.7,-125.8 2728.7,-125.8 2072.89,-125.8 2072.89,-125.8"/>
<polygon fill="black" stroke="black" points="2072.89,-122.3 2062.89,-125.8 2072.89,-129.3 2072.89,-122.3"/>
</g>
<!-- ImagesComponent -->
<g id="node11" class="node">
<title>ImagesComponent</title>
<polygon fill="#ffffb3" stroke="black" points="2669.76,-84.8 2548.24,-84.8 2548.24,-48.8 2669.76,-48.8 2669.76,-84.8"/>
<text text-anchor="middle" x="2609" y="-62.6" font-family="Times,serif" font-size="14.00">ImagesComponent</text>
</g>
<!-- ImagesComponent&#45;&gt;AppModule -->
<g id="edge12" class="edge">
<title>ImagesComponent&#45;&gt;AppModule</title>
<path fill="none" stroke="black" d="M2629.29,-84.83C2629.29,-101.2 2629.29,-122.8 2629.29,-122.8 2629.29,-122.8 2072.81,-122.8 2072.81,-122.8"/>
<polygon fill="black" stroke="black" points="2072.81,-119.3 2062.81,-122.8 2072.81,-126.3 2072.81,-119.3"/>
</g>
<!-- ImagesComponent&#45;&gt;AppModule -->
<g id="edge13" class="edge">
<title>ImagesComponent&#45;&gt;AppModule</title>
<path fill="none" stroke="black" d="M2588.71,-85.08C2588.71,-100.75 2588.71,-120.8 2588.71,-120.8 2588.71,-120.8 2072.74,-120.8 2072.74,-120.8"/>
<polygon fill="black" stroke="black" points="2072.74,-117.3 2062.74,-120.8 2072.74,-124.3 2072.74,-117.3"/>
</g>
<!-- ImportDVDComponent -->
<g id="node12" class="node">
<title>ImportDVDComponent</title>
<polygon fill="#ffffb3" stroke="black" points="2529.75,-84.8 2380.25,-84.8 2380.25,-48.8 2529.75,-48.8 2529.75,-84.8"/>
<text text-anchor="middle" x="2455" y="-62.6" font-family="Times,serif" font-size="14.00">ImportDVDComponent</text>
</g>
<!-- ImportDVDComponent&#45;&gt;AppModule -->
<g id="edge14" class="edge">
<title>ImportDVDComponent&#45;&gt;AppModule</title>
<path fill="none" stroke="black" d="M2455,-84.99C2455,-99.98 2455,-118.8 2455,-118.8 2455,-118.8 2073.01,-118.8 2073.01,-118.8"/>
<polygon fill="black" stroke="black" points="2073.01,-115.3 2063.01,-118.8 2073.01,-122.3 2073.01,-115.3"/>
</g>
<!-- LogInFormComponent -->
<g id="node13" class="node">
<title>LogInFormComponent</title>
<polygon fill="#ffffb3" stroke="black" points="2361.88,-84.8 2216.12,-84.8 2216.12,-48.8 2361.88,-48.8 2361.88,-84.8"/>
<text text-anchor="middle" x="2289" y="-62.6" font-family="Times,serif" font-size="14.00">LogInFormComponent</text>
</g>
<!-- LogInFormComponent&#45;&gt;AppModule -->
<g id="edge15" class="edge">
<title>LogInFormComponent&#45;&gt;AppModule</title>
<path fill="none" stroke="black" d="M2289,-84.85C2289,-99.17 2289,-116.8 2289,-116.8 2289,-116.8 2072.88,-116.8 2072.88,-116.8"/>
<polygon fill="black" stroke="black" points="2072.88,-113.3 2062.88,-116.8 2072.87,-120.3 2072.88,-113.3"/>
</g>
<!-- ManageMenuComponent -->
<g id="node14" class="node">
<title>ManageMenuComponent</title>
<polygon fill="#ffffb3" stroke="black" points="2198.58,-84.8 2039.42,-84.8 2039.42,-48.8 2198.58,-48.8 2198.58,-84.8"/>
<text text-anchor="middle" x="2119" y="-62.6" font-family="Times,serif" font-size="14.00">ManageMenuComponent</text>
</g>
<!-- ManageMenuComponent&#45;&gt;AppModule -->
<g id="edge16" class="edge">
<title>ManageMenuComponent&#45;&gt;AppModule</title>
<path fill="none" stroke="black" d="M2051.14,-84.91C2051.14,-84.91 2051.14,-103.79 2051.14,-103.79"/>
<polygon fill="black" stroke="black" points="2047.64,-103.79 2051.14,-113.79 2054.64,-103.79 2047.64,-103.79"/>
</g>
<!-- ManagementClassesComponent -->
<g id="node15" class="node">
<title>ManagementClassesComponent</title>
<polygon fill="#ffffb3" stroke="black" points="2021.41,-84.8 1824.59,-84.8 1824.59,-48.8 2021.41,-48.8 2021.41,-84.8"/>
<text text-anchor="middle" x="1923" y="-62.6" font-family="Times,serif" font-size="14.00">ManagementClassesComponent</text>
</g>
<!-- ManagementClassesComponent&#45;&gt;AppModule -->
<g id="edge17" class="edge">
<title>ManagementClassesComponent&#45;&gt;AppModule</title>
<path fill="none" stroke="black" d="M2000.19,-84.91C2000.19,-84.91 2000.19,-103.79 2000.19,-103.79"/>
<polygon fill="black" stroke="black" points="1996.69,-103.79 2000.19,-113.79 2003.69,-103.79 1996.69,-103.79"/>
</g>
<!-- NavbarComponent -->
<g id="node16" class="node">
<title>NavbarComponent</title>
<polygon fill="#ffffb3" stroke="black" points="1807.03,-84.8 1684.97,-84.8 1684.97,-48.8 1807.03,-48.8 1807.03,-84.8"/>
<text text-anchor="middle" x="1746" y="-62.6" font-family="Times,serif" font-size="14.00">NavbarComponent</text>
</g>
<!-- NavbarComponent&#45;&gt;AppModule -->
<g id="edge18" class="edge">
<title>NavbarComponent&#45;&gt;AppModule</title>
<path fill="none" stroke="black" d="M1746,-84.85C1746,-99.17 1746,-116.8 1746,-116.8 1746,-116.8 1969.23,-116.8 1969.23,-116.8"/>
<polygon fill="black" stroke="black" points="1969.23,-120.3 1979.23,-116.8 1969.23,-113.3 1969.23,-120.3"/>
</g>
<!-- NotFoundComponent -->
<g id="node17" class="node">
<title>NotFoundComponent</title>
<polygon fill="#ffffb3" stroke="black" points="1667.11,-84.8 1528.89,-84.8 1528.89,-48.8 1667.11,-48.8 1667.11,-84.8"/>
<text text-anchor="middle" x="1598" y="-62.6" font-family="Times,serif" font-size="14.00">NotFoundComponent</text>
</g>
<!-- NotFoundComponent&#45;&gt;AppModule -->
<g id="edge19" class="edge">
<title>NotFoundComponent&#45;&gt;AppModule</title>
<path fill="none" stroke="black" d="M1598,-84.99C1598,-99.98 1598,-118.8 1598,-118.8 1598,-118.8 1969.28,-118.8 1969.28,-118.8"/>
<polygon fill="black" stroke="black" points="1969.28,-122.3 1979.28,-118.8 1969.28,-115.3 1969.28,-122.3"/>
</g>
<!-- PackagesComponent -->
<g id="node18" class="node">
<title>PackagesComponent</title>
<polygon fill="#ffffb3" stroke="black" points="1510.92,-84.8 1377.08,-84.8 1377.08,-48.8 1510.92,-48.8 1510.92,-84.8"/>
<text text-anchor="middle" x="1444" y="-62.6" font-family="Times,serif" font-size="14.00">PackagesComponent</text>
</g>
<!-- PackagesComponent&#45;&gt;AppModule -->
<g id="edge20" class="edge">
<title>PackagesComponent&#45;&gt;AppModule</title>
<path fill="none" stroke="black" d="M1444,-85.08C1444,-100.75 1444,-120.8 1444,-120.8 1444,-120.8 1969.04,-120.8 1969.04,-120.8"/>
<polygon fill="black" stroke="black" points="1969.04,-124.3 1979.04,-120.8 1969.04,-117.3 1969.04,-124.3"/>
</g>
<!-- ProfilesComponent -->
<g id="node19" class="node">
<title>ProfilesComponent</title>
<polygon fill="#ffffb3" stroke="black" points="1359.38,-84.8 1234.62,-84.8 1234.62,-48.8 1359.38,-48.8 1359.38,-84.8"/>
<text text-anchor="middle" x="1297" y="-62.6" font-family="Times,serif" font-size="14.00">ProfilesComponent</text>
</g>
<!-- ProfilesComponent&#45;&gt;AppModule -->
<g id="edge21" class="edge">
<title>ProfilesComponent&#45;&gt;AppModule</title>
<path fill="none" stroke="black" d="M1317.81,-84.83C1317.81,-101.2 1317.81,-122.8 1317.81,-122.8 1317.81,-122.8 1969.12,-122.8 1969.12,-122.8"/>
<polygon fill="black" stroke="black" points="1969.12,-126.3 1979.12,-122.8 1969.12,-119.3 1969.12,-126.3"/>
</g>
<!-- ProfilesComponent&#45;&gt;AppModule -->
<g id="edge22" class="edge">
<title>ProfilesComponent&#45;&gt;AppModule</title>
<path fill="none" stroke="black" d="M1276.19,-84.82C1276.19,-102.17 1276.19,-125.8 1276.19,-125.8 1276.19,-125.8 1969.09,-125.8 1969.09,-125.8"/>
<polygon fill="black" stroke="black" points="1969.09,-129.3 1979.09,-125.8 1969.09,-122.3 1969.09,-129.3"/>
</g>
<!-- RepoSyncComponent -->
<g id="node20" class="node">
<title>RepoSyncComponent</title>
<polygon fill="#ffffb3" stroke="black" points="1216.38,-84.8 1077.62,-84.8 1077.62,-48.8 1216.38,-48.8 1216.38,-84.8"/>
<text text-anchor="middle" x="1147" y="-62.6" font-family="Times,serif" font-size="14.00">RepoSyncComponent</text>
</g>
<!-- RepoSyncComponent&#45;&gt;AppModule -->
<g id="edge23" class="edge">
<title>RepoSyncComponent&#45;&gt;AppModule</title>
<path fill="none" stroke="black" d="M1147,-85.1C1147,-103.07 1147,-127.8 1147,-127.8 1147,-127.8 1969.14,-127.8 1969.14,-127.8"/>
<polygon fill="black" stroke="black" points="1969.14,-131.3 1979.14,-127.8 1969.14,-124.3 1969.14,-131.3"/>
</g>
<!-- ReposComponent -->
<g id="node21" class="node">
<title>ReposComponent</title>
<polygon fill="#ffffb3" stroke="black" points="1059.33,-84.8 942.67,-84.8 942.67,-48.8 1059.33,-48.8 1059.33,-84.8"/>
<text text-anchor="middle" x="1001" y="-62.6" font-family="Times,serif" font-size="14.00">ReposComponent</text>
</g>
<!-- ReposComponent&#45;&gt;AppModule -->
<g id="edge24" class="edge">
<title>ReposComponent&#45;&gt;AppModule</title>
<path fill="none" stroke="black" d="M1020.39,-85.02C1020.39,-103.63 1020.39,-129.8 1020.39,-129.8 1020.39,-129.8 1969.28,-129.8 1969.28,-129.8"/>
<polygon fill="black" stroke="black" points="1969.28,-133.3 1979.28,-129.8 1969.28,-126.3 1969.28,-133.3"/>
</g>
<!-- ReposComponent&#45;&gt;AppModule -->
<g id="edge25" class="edge">
<title>ReposComponent&#45;&gt;AppModule</title>
<path fill="none" stroke="black" d="M981.61,-84.91C981.61,-104.14 981.61,-131.8 981.61,-131.8 981.61,-131.8 1969.29,-131.8 1969.29,-131.8"/>
<polygon fill="black" stroke="black" points="1969.29,-135.3 1979.29,-131.8 1969.29,-128.3 1969.29,-135.3"/>
</g>
<!-- SnippetsComponent -->
<g id="node22" class="node">
<title>SnippetsComponent</title>
<polygon fill="#ffffb3" stroke="black" points="924.56,-84.8 795.44,-84.8 795.44,-48.8 924.56,-48.8 924.56,-84.8"/>
<text text-anchor="middle" x="860" y="-62.6" font-family="Times,serif" font-size="14.00">SnippetsComponent</text>
</g>
<!-- SnippetsComponent&#45;&gt;AppModule -->
<g id="edge26" class="edge">
<title>SnippetsComponent&#45;&gt;AppModule</title>
<path fill="none" stroke="black" d="M860,-85.02C860,-105.17 860,-134.8 860,-134.8 860,-134.8 1969.34,-134.8 1969.34,-134.8"/>
<polygon fill="black" stroke="black" points="1969.34,-138.3 1979.34,-134.8 1969.34,-131.3 1969.34,-138.3"/>
</g>
<!-- SyncComponent -->
<g id="node23" class="node">
<title>SyncComponent</title>
<polygon fill="#ffffb3" stroke="black" points="777.83,-84.8 668.17,-84.8 668.17,-48.8 777.83,-48.8 777.83,-84.8"/>
<text text-anchor="middle" x="723" y="-62.6" font-family="Times,serif" font-size="14.00">SyncComponent</text>
</g>
<!-- SyncComponent&#45;&gt;AppModule -->
<g id="edge27" class="edge">
<title>SyncComponent&#45;&gt;AppModule</title>
<path fill="none" stroke="black" d="M723,-84.83C723,-105.57 723,-136.8 723,-136.8 723,-136.8 1969.28,-136.8 1969.28,-136.8"/>
<polygon fill="black" stroke="black" points="1969.28,-140.3 1979.28,-136.8 1969.28,-133.3 1969.28,-140.3"/>
</g>
<!-- SystemsComponent -->
<g id="node24" class="node">
<title>SystemsComponent</title>
<polygon fill="#ffffb3" stroke="black" points="650,-84.8 522,-84.8 522,-48.8 650,-48.8 650,-84.8"/>
<text text-anchor="middle" x="586" y="-62.6" font-family="Times,serif" font-size="14.00">SystemsComponent</text>
</g>
<!-- SystemsComponent&#45;&gt;AppModule -->
<g id="edge28" class="edge">
<title>SystemsComponent&#45;&gt;AppModule</title>
<path fill="none" stroke="black" d="M607.33,-84.97C607.33,-106.3 607.33,-138.8 607.33,-138.8 607.33,-138.8 1969.08,-138.8 1969.08,-138.8"/>
<polygon fill="black" stroke="black" points="1969.08,-142.3 1979.08,-138.8 1969.08,-135.3 1969.08,-142.3"/>
</g>
<!-- SystemsComponent&#45;&gt;AppModule -->
<g id="edge29" class="edge">
<title>SystemsComponent&#45;&gt;AppModule</title>
<path fill="none" stroke="black" d="M564.67,-85.09C564.67,-107.01 564.67,-140.8 564.67,-140.8 564.67,-140.8 1968.99,-140.8 1968.99,-140.8"/>
<polygon fill="black" stroke="black" points="1968.99,-144.3 1978.99,-140.8 1968.99,-137.3 1968.99,-144.3"/>
</g>
<!-- TestServicesComponent -->
<g id="node25" class="node">
<title>TestServicesComponent</title>
<polygon fill="#ffffb3" stroke="black" points="504.36,-84.8 351.64,-84.8 351.64,-48.8 504.36,-48.8 504.36,-84.8"/>
<text text-anchor="middle" x="428" y="-62.6" font-family="Times,serif" font-size="14.00">TestServicesComponent</text>
</g>
<!-- TestServicesComponent&#45;&gt;AppModule -->
<g id="edge30" class="edge">
<title>TestServicesComponent&#45;&gt;AppModule</title>
<path fill="none" stroke="black" d="M428,-85.05C428,-107.82 428,-143.8 428,-143.8 428,-143.8 1969.21,-143.8 1969.21,-143.8"/>
<polygon fill="black" stroke="black" points="1969.21,-147.3 1979.21,-143.8 1969.21,-140.3 1969.21,-147.3"/>
</g>
<!-- UnauthorizedComponent -->
<g id="node26" class="node">
<title>UnauthorizedComponent</title>
<polygon fill="#ffffb3" stroke="black" points="333.53,-84.8 176.47,-84.8 176.47,-48.8 333.53,-48.8 333.53,-84.8"/>
<text text-anchor="middle" x="255" y="-62.6" font-family="Times,serif" font-size="14.00">UnauthorizedComponent</text>
</g>
<!-- UnauthorizedComponent&#45;&gt;AppModule -->
<g id="edge31" class="edge">
<title>UnauthorizedComponent&#45;&gt;AppModule</title>
<path fill="none" stroke="black" d="M255,-85.12C255,-108.46 255,-145.8 255,-145.8 255,-145.8 1969.09,-145.8 1969.09,-145.8"/>
<polygon fill="black" stroke="black" points="1969.09,-149.3 1979.09,-145.8 1969.09,-142.3 1969.09,-149.3"/>
</g>
<!-- AppComponent  -->
<g id="node29" class="node">
<title>AppComponent </title>
<polygon fill="#80b1d3" stroke="black" points="2075.44,-214.8 1966.56,-214.8 1966.56,-178.8 2075.44,-178.8 2075.44,-214.8"/>
<text text-anchor="middle" x="2021" y="-192.6" font-family="Times,serif" font-size="14.00">AppComponent </text>
</g>
<!-- AppModule&#45;&gt;AppComponent  -->
<g id="edge33" class="edge">
<title>AppModule&#45;&gt;AppComponent </title>
<path fill="none" stroke="black" stroke-dasharray="1,5" d="M2021,-149.91C2021,-149.91 2021,-168.79 2021,-168.79"/>
<polygon fill="black" stroke="black" points="2017.5,-168.79 2021,-178.79 2024.5,-168.79 2017.5,-168.79"/>
</g>
<!-- AppRoutingModule -->
<g id="node28" class="node">
<title>AppRoutingModule</title>
<polygon fill="#8dd3c7" stroke="black" points="152.27,-84.8 149.27,-88.8 128.27,-88.8 125.27,-84.8 23.73,-84.8 23.73,-48.8 152.27,-48.8 152.27,-84.8"/>
<text text-anchor="middle" x="88" y="-62.6" font-family="Times,serif" font-size="14.00">AppRoutingModule</text>
</g>
<!-- AppRoutingModule&#45;&gt;AppModule -->
<g id="edge32" class="edge">
<title>AppRoutingModule&#45;&gt;AppModule</title>
<path fill="none" stroke="black" d="M88,-85.18C88,-109.08 88,-147.8 88,-147.8 88,-147.8 1969.28,-147.8 1969.28,-147.8"/>
<polygon fill="black" stroke="black" points="1969.28,-151.3 1979.28,-147.8 1969.28,-144.3 1969.28,-151.3"/>
</g>
</g>
</svg>
