<?xml version="1.0" encoding="UTF-8" standalone="no"?>
<!DOCTYPE svg PUBLIC "-//W3C//DTD SVG 1.1//EN"
 "http://www.w3.org/Graphics/SVG/1.1/DTD/svg11.dtd">
<!-- Generated by graphviz version 2.47.3 (20210619.1520)
 -->
<!-- Title: dependencies Pages: 1 -->
<svg width="4550pt" height="247pt"
 viewBox="0.00 0.00 4550.00 246.80" xmlns="http://www.w3.org/2000/svg" xmlns:xlink="http://www.w3.org/1999/xlink">
<g id="graph0" class="graph" transform="scale(1 1) rotate(0) translate(4 242.8)">
<title>dependencies</title>
<polygon fill="white" stroke="transparent" points="-4,4 -4,-242.8 4546,-242.8 4546,4 -4,4"/>
<text text-anchor="middle" x="2271" y="-8.2" font-family="sans-serif" font-size="14.00">dependencies</text>
<g id="clust1" class="cluster">
<title>cluster_AppModule</title>
<polygon fill="none" stroke="black" stroke-dasharray="1,5" points="8,-32.8 8,-230.8 4534,-230.8 4534,-32.8 8,-32.8"/>
</g>
<g id="clust33" class="cluster">
<title>cluster_AppModule_providers</title>
<polygon fill="none" stroke="black" points="4394,-40.8 4394,-92.8 4526,-92.8 4526,-40.8 4394,-40.8"/>
</g>
<g id="clust30" class="cluster">
<title>cluster_AppModule_imports</title>
<polygon fill="none" stroke="black" points="4242,-40.8 4242,-92.8 4386,-92.8 4386,-40.8 4242,-40.8"/>
</g>
<g id="clust32" class="cluster">
<title>cluster_AppModule_bootstrap</title>
<polygon fill="none" stroke="black" points="2128,-170.8 2128,-222.8 2252,-222.8 2252,-170.8 2128,-170.8"/>
</g>
<g id="clust2" class="cluster">
<title>cluster_AppModule_declarations</title>
<polygon fill="none" stroke="black" points="16,-40.8 16,-92.8 4234,-92.8 4234,-40.8 16,-40.8"/>
</g>
<!-- AppComponent -->
<g id="node1" class="node">
<title>AppComponent</title>
<polygon fill="#ffffb3" stroke="black" points="4225.94,-84.8 4120.06,-84.8 4120.06,-48.8 4225.94,-48.8 4225.94,-84.8"/>
<text text-anchor="middle" x="4173" y="-62.6" font-family="Times,serif" font-size="14.00">AppComponent</text>
</g>
<!-- AppModule -->
<g id="node28" class="node">
<title>AppModule</title>
<polygon fill="#8dd3c7" stroke="black" points="2231.66,-149.8 2228.66,-153.8 2207.66,-153.8 2204.66,-149.8 2148.34,-149.8 2148.34,-113.8 2231.66,-113.8 2231.66,-149.8"/>
<text text-anchor="middle" x="2190" y="-127.6" font-family="Times,serif" font-size="14.00">AppModule</text>
</g>
<!-- AppComponent&#45;&gt;AppModule -->
<g id="edge1" class="edge">
<title>AppComponent&#45;&gt;AppModule</title>
<path fill="none" stroke="black" d="M4173,-85.05C4173,-107.82 4173,-143.8 4173,-143.8 4173,-143.8 2241.88,-143.8 2241.88,-143.8"/>
<polygon fill="black" stroke="black" points="2241.88,-140.3 2231.88,-143.8 2241.88,-147.3 2241.88,-140.3"/>
</g>
<!-- AppEventsComponent -->
<g id="node2" class="node">
<title>AppEventsComponent</title>
<polygon fill="#ffffb3" stroke="black" points="4102.54,-84.8 3959.46,-84.8 3959.46,-48.8 4102.54,-48.8 4102.54,-84.8"/>
<text text-anchor="middle" x="4031" y="-62.6" font-family="Times,serif" font-size="14.00">AppEventsComponent</text>
</g>
<!-- AppEventsComponent&#45;&gt;AppModule -->
<g id="edge2" class="edge">
<title>AppEventsComponent&#45;&gt;AppModule</title>
<path fill="none" stroke="black" d="M4031,-84.96C4031,-107.15 4031,-141.8 4031,-141.8 4031,-141.8 2241.91,-141.8 2241.91,-141.8"/>
<polygon fill="black" stroke="black" points="2241.91,-138.3 2231.91,-141.8 2241.91,-145.3 2241.91,-138.3"/>
</g>
<!-- AppManageComponent -->
<g id="node3" class="node">
<title>AppManageComponent</title>
<polygon fill="#ffffb3" stroke="black" points="3941.03,-84.8 3790.97,-84.8 3790.97,-48.8 3941.03,-48.8 3941.03,-84.8"/>
<text text-anchor="middle" x="3866" y="-62.6" font-family="Times,serif" font-size="14.00">AppManageComponent</text>
</g>
<!-- AppManageComponent&#45;&gt;AppModule -->
<g id="edge3" class="edge">
<title>AppManageComponent&#45;&gt;AppModule</title>
<path fill="none" stroke="black" d="M3866,-84.84C3866,-106.46 3866,-139.8 3866,-139.8 3866,-139.8 2241.85,-139.8 2241.85,-139.8"/>
<polygon fill="black" stroke="black" points="2241.85,-136.3 2231.85,-139.8 2241.85,-143.3 2241.85,-136.3"/>
</g>
<!-- BuildISOComponent -->
<g id="node4" class="node">
<title>BuildISOComponent</title>
<polygon fill="#ffffb3" stroke="black" points="3772.5,-84.8 3637.5,-84.8 3637.5,-48.8 3772.5,-48.8 3772.5,-84.8"/>
<text text-anchor="middle" x="3705" y="-62.6" font-family="Times,serif" font-size="14.00">BuildISOComponent</text>
</g>
<!-- BuildISOComponent&#45;&gt;AppModule -->
<g id="edge4" class="edge">
<title>BuildISOComponent&#45;&gt;AppModule</title>
<path fill="none" stroke="black" d="M3705,-85.08C3705,-106.12 3705,-137.8 3705,-137.8 3705,-137.8 2241.7,-137.8 2241.7,-137.8"/>
<polygon fill="black" stroke="black" points="2241.7,-134.3 2231.7,-137.8 2241.7,-141.3 2241.7,-134.3"/>
</g>
<!-- CheckSysComponent -->
<g id="node5" class="node">
<title>CheckSysComponent</title>
<polygon fill="#ffffb3" stroke="black" points="3619.83,-84.8 3482.17,-84.8 3482.17,-48.8 3619.83,-48.8 3619.83,-84.8"/>
<text text-anchor="middle" x="3551" y="-62.6" font-family="Times,serif" font-size="14.00">CheckSysComponent</text>
</g>
<!-- CheckSysComponent&#45;&gt;AppModule -->
<g id="edge5" class="edge">
<title>CheckSysComponent&#45;&gt;AppModule</title>
<path fill="none" stroke="black" d="M3551,-84.93C3551,-105.37 3551,-135.8 3551,-135.8 3551,-135.8 2241.85,-135.8 2241.85,-135.8"/>
<polygon fill="black" stroke="black" points="2241.85,-132.3 2231.85,-135.8 2241.85,-139.3 2241.85,-132.3"/>
</g>
<!-- DistrosComponent -->
<g id="node6" class="node">
<title>DistrosComponent</title>
<polygon fill="#ffffb3" stroke="black" points="3463.77,-84.8 3342.23,-84.8 3342.23,-48.8 3463.77,-48.8 3463.77,-84.8"/>
<text text-anchor="middle" x="3403" y="-62.6" font-family="Times,serif" font-size="14.00">DistrosComponent</text>
</g>
<!-- DistrosComponent&#45;&gt;AppModule -->
<g id="edge6" class="edge">
<title>DistrosComponent&#45;&gt;AppModule</title>
<path fill="none" stroke="black" d="M3423.3,-85.11C3423.3,-104.95 3423.3,-133.8 3423.3,-133.8 3423.3,-133.8 2241.74,-133.8 2241.74,-133.8"/>
<polygon fill="black" stroke="black" points="2241.74,-130.3 2231.74,-133.8 2241.74,-137.3 2241.74,-130.3"/>
</g>
<!-- DistrosComponent&#45;&gt;AppModule -->
<g id="edge7" class="edge">
<title>DistrosComponent&#45;&gt;AppModule</title>
<path fill="none" stroke="black" d="M3382.7,-84.97C3382.7,-103.89 3382.7,-130.8 3382.7,-130.8 3382.7,-130.8 2241.75,-130.8 2241.75,-130.8"/>
<polygon fill="black" stroke="black" points="2241.75,-127.3 2231.75,-130.8 2241.75,-134.3 2241.75,-127.3"/>
</g>
<!-- EditableTreeComponent -->
<g id="node7" class="node">
<title>EditableTreeComponent</title>
<polygon fill="#ffffb3" stroke="black" points="3323.63,-84.8 3170.37,-84.8 3170.37,-48.8 3323.63,-48.8 3323.63,-84.8"/>
<text text-anchor="middle" x="3247" y="-62.6" font-family="Times,serif" font-size="14.00">EditableTreeComponent</text>
</g>
<!-- EditableTreeComponent&#45;&gt;AppModule -->
<g id="edge8" class="edge">
<title>EditableTreeComponent&#45;&gt;AppModule</title>
<path fill="none" stroke="black" d="M3247,-85.07C3247,-103.36 3247,-128.8 3247,-128.8 3247,-128.8 2241.76,-128.8 2241.76,-128.8"/>
<polygon fill="black" stroke="black" points="2241.76,-125.3 2231.76,-128.8 2241.76,-132.3 2241.76,-125.3"/>
</g>
<!-- FilesComponent -->
<g id="node8" class="node">
<title>FilesComponent</title>
<polygon fill="#ffffb3" stroke="black" points="3152.06,-84.8 3043.94,-84.8 3043.94,-48.8 3152.06,-48.8 3152.06,-84.8"/>
<text text-anchor="middle" x="3098" y="-62.6" font-family="Times,serif" font-size="14.00">FilesComponent</text>
</g>
<!-- FilesComponent&#45;&gt;AppModule -->
<g id="edge9" class="edge">
<title>FilesComponent&#45;&gt;AppModule</title>
<path fill="none" stroke="black" d="M3098,-84.8C3098,-102.48 3098,-126.8 3098,-126.8 3098,-126.8 2241.67,-126.8 2241.67,-126.8"/>
<polygon fill="black" stroke="black" points="2241.67,-123.3 2231.67,-126.8 2241.67,-130.3 2241.67,-123.3"/>
</g>
<!-- ImagesComponent -->
<g id="node9" class="node">
<title>ImagesComponent</title>
<polygon fill="#ffffb3" stroke="black" points="3025.76,-84.8 2904.24,-84.8 2904.24,-48.8 3025.76,-48.8 3025.76,-84.8"/>
<text text-anchor="middle" x="2965" y="-62.6" font-family="Times,serif" font-size="14.00">ImagesComponent</text>
</g>
<!-- ImagesComponent&#45;&gt;AppModule -->
<g id="edge10" class="edge">
<title>ImagesComponent&#45;&gt;AppModule</title>
<path fill="none" stroke="black" d="M2944.71,-84.83C2944.71,-101.2 2944.71,-122.8 2944.71,-122.8 2944.71,-122.8 2241.92,-122.8 2241.92,-122.8"/>
<polygon fill="black" stroke="black" points="2241.92,-119.3 2231.92,-122.8 2241.92,-126.3 2241.92,-119.3"/>
</g>
<!-- ImagesComponent&#45;&gt;AppModule -->
<g id="edge11" class="edge">
<title>ImagesComponent&#45;&gt;AppModule</title>
<path fill="none" stroke="black" d="M2985.29,-84.83C2985.29,-101.86 2985.29,-124.8 2985.29,-124.8 2985.29,-124.8 2241.92,-124.8 2241.92,-124.8"/>
<polygon fill="black" stroke="black" points="2241.92,-121.3 2231.92,-124.8 2241.92,-128.3 2241.92,-121.3"/>
</g>
<!-- ImportDVDComponent -->
<g id="node10" class="node">
<title>ImportDVDComponent</title>
<polygon fill="#ffffb3" stroke="black" points="2885.75,-84.8 2736.25,-84.8 2736.25,-48.8 2885.75,-48.8 2885.75,-84.8"/>
<text text-anchor="middle" x="2811" y="-62.6" font-family="Times,serif" font-size="14.00">ImportDVDComponent</text>
</g>
<!-- ImportDVDComponent&#45;&gt;AppModule -->
<g id="edge12" class="edge">
<title>ImportDVDComponent&#45;&gt;AppModule</title>
<path fill="none" stroke="black" d="M2811,-85.08C2811,-100.75 2811,-120.8 2811,-120.8 2811,-120.8 2241.71,-120.8 2241.71,-120.8"/>
<polygon fill="black" stroke="black" points="2241.71,-117.3 2231.71,-120.8 2241.71,-124.3 2241.71,-117.3"/>
</g>
<!-- LogInFormComponent -->
<g id="node11" class="node">
<title>LogInFormComponent</title>
<polygon fill="#ffffb3" stroke="black" points="2717.88,-84.8 2572.12,-84.8 2572.12,-48.8 2717.88,-48.8 2717.88,-84.8"/>
<text text-anchor="middle" x="2645" y="-62.6" font-family="Times,serif" font-size="14.00">LogInFormComponent</text>
</g>
<!-- LogInFormComponent&#45;&gt;AppModule -->
<g id="edge13" class="edge">
<title>LogInFormComponent&#45;&gt;AppModule</title>
<path fill="none" stroke="black" d="M2645,-84.99C2645,-99.98 2645,-118.8 2645,-118.8 2645,-118.8 2241.99,-118.8 2241.99,-118.8"/>
<polygon fill="black" stroke="black" points="2241.99,-115.3 2231.99,-118.8 2241.99,-122.3 2241.99,-115.3"/>
</g>
<!-- ManageMenuComponent -->
<g id="node12" class="node">
<title>ManageMenuComponent</title>
<polygon fill="#ffffb3" stroke="black" points="2554.58,-84.8 2395.42,-84.8 2395.42,-48.8 2554.58,-48.8 2554.58,-84.8"/>
<text text-anchor="middle" x="2475" y="-62.6" font-family="Times,serif" font-size="14.00">ManageMenuComponent</text>
</g>
<!-- ManageMenuComponent&#45;&gt;AppModule -->
<g id="edge14" class="edge">
<title>ManageMenuComponent&#45;&gt;AppModule</title>
<path fill="none" stroke="black" d="M2475,-84.85C2475,-99.17 2475,-116.8 2475,-116.8 2475,-116.8 2241.75,-116.8 2241.75,-116.8"/>
<polygon fill="black" stroke="black" points="2241.75,-113.3 2231.75,-116.8 2241.75,-120.3 2241.75,-113.3"/>
</g>
<!-- ManagementClassesComponent -->
<g id="node13" class="node">
<title>ManagementClassesComponent</title>
<polygon fill="#ffffb3" stroke="black" points="2377.41,-84.8 2180.59,-84.8 2180.59,-48.8 2377.41,-48.8 2377.41,-84.8"/>
<text text-anchor="middle" x="2279" y="-62.6" font-family="Times,serif" font-size="14.00">ManagementClassesComponent</text>
</g>
<!-- ManagementClassesComponent&#45;&gt;AppModule -->
<g id="edge15" class="edge">
<title>ManagementClassesComponent&#45;&gt;AppModule</title>
<path fill="none" stroke="black" d="M2206.31,-84.91C2206.31,-84.91 2206.31,-103.79 2206.31,-103.79"/>
<polygon fill="black" stroke="black" points="2202.81,-103.79 2206.31,-113.79 2209.81,-103.79 2202.81,-103.79"/>
</g>
<!-- NavbarComponent -->
<g id="node14" class="node">
<title>NavbarComponent</title>
<polygon fill="#ffffb3" stroke="black" points="2163.03,-84.8 2040.97,-84.8 2040.97,-48.8 2163.03,-48.8 2163.03,-84.8"/>
<text text-anchor="middle" x="2102" y="-62.6" font-family="Times,serif" font-size="14.00">NavbarComponent</text>
</g>
<!-- NavbarComponent&#45;&gt;AppModule -->
<g id="edge16" class="edge">
<title>NavbarComponent&#45;&gt;AppModule</title>
<path fill="none" stroke="black" d="M2155.72,-84.91C2155.72,-84.91 2155.72,-103.79 2155.72,-103.79"/>
<polygon fill="black" stroke="black" points="2152.22,-103.79 2155.72,-113.79 2159.22,-103.79 2152.22,-103.79"/>
</g>
<!-- NotFoundComponent -->
<g id="node15" class="node">
<title>NotFoundComponent</title>
<polygon fill="#ffffb3" stroke="black" points="2023.11,-84.8 1884.89,-84.8 1884.89,-48.8 2023.11,-48.8 2023.11,-84.8"/>
<text text-anchor="middle" x="1954" y="-62.6" font-family="Times,serif" font-size="14.00">NotFoundComponent</text>
</g>
<!-- NotFoundComponent&#45;&gt;AppModule -->
<g id="edge17" class="edge">
<title>NotFoundComponent&#45;&gt;AppModule</title>
<path fill="none" stroke="black" d="M1954,-84.85C1954,-99.17 1954,-116.8 1954,-116.8 1954,-116.8 2138.08,-116.8 2138.08,-116.8"/>
<polygon fill="black" stroke="black" points="2138.08,-120.3 2148.08,-116.8 2138.08,-113.3 2138.08,-120.3"/>
</g>
<!-- PackagesComponent -->
<g id="node16" class="node">
<title>PackagesComponent</title>
<polygon fill="#ffffb3" stroke="black" points="1866.92,-84.8 1733.08,-84.8 1733.08,-48.8 1866.92,-48.8 1866.92,-84.8"/>
<text text-anchor="middle" x="1800" y="-62.6" font-family="Times,serif" font-size="14.00">PackagesComponent</text>
</g>
<!-- PackagesComponent&#45;&gt;AppModule -->
<g id="edge18" class="edge">
<title>PackagesComponent&#45;&gt;AppModule</title>
<path fill="none" stroke="black" d="M1800,-84.99C1800,-99.98 1800,-118.8 1800,-118.8 1800,-118.8 2138.26,-118.8 2138.26,-118.8"/>
<polygon fill="black" stroke="black" points="2138.26,-122.3 2148.26,-118.8 2138.26,-115.3 2138.26,-122.3"/>
</g>
<!-- ProfilesComponent -->
<g id="node17" class="node">
<title>ProfilesComponent</title>
<polygon fill="#ffffb3" stroke="black" points="1715.38,-84.8 1590.62,-84.8 1590.62,-48.8 1715.38,-48.8 1715.38,-84.8"/>
<text text-anchor="middle" x="1653" y="-62.6" font-family="Times,serif" font-size="14.00">ProfilesComponent</text>
</g>
<!-- ProfilesComponent&#45;&gt;AppModule -->
<g id="edge19" class="edge">
<title>ProfilesComponent&#45;&gt;AppModule</title>
<path fill="none" stroke="black" d="M1632.19,-84.83C1632.19,-101.2 1632.19,-122.8 1632.19,-122.8 1632.19,-122.8 2138.07,-122.8 2138.07,-122.8"/>
<polygon fill="black" stroke="black" points="2138.07,-126.3 2148.07,-122.8 2138.07,-119.3 2138.07,-126.3"/>
</g>
<!-- ProfilesComponent&#45;&gt;AppModule -->
<g id="edge20" class="edge">
<title>ProfilesComponent&#45;&gt;AppModule</title>
<path fill="none" stroke="black" d="M1673.81,-85.08C1673.81,-100.75 1673.81,-120.8 1673.81,-120.8 1673.81,-120.8 2138.2,-120.8 2138.2,-120.8"/>
<polygon fill="black" stroke="black" points="2138.2,-124.3 2148.2,-120.8 2138.2,-117.3 2138.2,-124.3"/>
</g>
<!-- RepoSyncComponent -->
<g id="node18" class="node">
<title>RepoSyncComponent</title>
<polygon fill="#ffffb3" stroke="black" points="1572.38,-84.8 1433.62,-84.8 1433.62,-48.8 1572.38,-48.8 1572.38,-84.8"/>
<text text-anchor="middle" x="1503" y="-62.6" font-family="Times,serif" font-size="14.00">RepoSyncComponent</text>
</g>
<!-- RepoSyncComponent&#45;&gt;AppModule -->
<g id="edge21" class="edge">
<title>RepoSyncComponent&#45;&gt;AppModule</title>
<path fill="none" stroke="black" d="M1503,-84.83C1503,-101.86 1503,-124.8 1503,-124.8 1503,-124.8 2138.32,-124.8 2138.32,-124.8"/>
<polygon fill="black" stroke="black" points="2138.32,-128.3 2148.32,-124.8 2138.32,-121.3 2138.32,-128.3"/>
</g>
<!-- ReposComponent -->
<g id="node19" class="node">
<title>ReposComponent</title>
<polygon fill="#ffffb3" stroke="black" points="1415.33,-84.8 1298.67,-84.8 1298.67,-48.8 1415.33,-48.8 1415.33,-84.8"/>
<text text-anchor="middle" x="1357" y="-62.6" font-family="Times,serif" font-size="14.00">ReposComponent</text>
</g>
<!-- ReposComponent&#45;&gt;AppModule -->
<g id="edge22" class="edge">
<title>ReposComponent&#45;&gt;AppModule</title>
<path fill="none" stroke="black" d="M1337.61,-85.07C1337.61,-103.36 1337.61,-128.8 1337.61,-128.8 1337.61,-128.8 2138.31,-128.8 2138.31,-128.8"/>
<polygon fill="black" stroke="black" points="2138.31,-132.3 2148.31,-128.8 2138.31,-125.3 2138.31,-132.3"/>
</g>
<!-- ReposComponent&#45;&gt;AppModule -->
<g id="edge23" class="edge">
<title>ReposComponent&#45;&gt;AppModule</title>
<path fill="none" stroke="black" d="M1376.39,-84.8C1376.39,-102.48 1376.39,-126.8 1376.39,-126.8 1376.39,-126.8 2138.25,-126.8 2138.25,-126.8"/>
<polygon fill="black" stroke="black" points="2138.25,-130.3 2148.25,-126.8 2138.25,-123.3 2138.25,-130.3"/>
</g>
<!-- SettingsEditComponent -->
<g id="node20" class="node">
<title>SettingsEditComponent</title>
<polygon fill="#ffffb3" stroke="black" points="1280.78,-84.8 1131.22,-84.8 1131.22,-48.8 1280.78,-48.8 1280.78,-84.8"/>
<text text-anchor="middle" x="1206" y="-62.6" font-family="Times,serif" font-size="14.00">SettingsEditComponent</text>
</g>
<!-- SettingsEditComponent&#45;&gt;AppModule -->
<g id="edge24" class="edge">
<title>SettingsEditComponent&#45;&gt;AppModule</title>
<path fill="none" stroke="black" d="M1206,-84.97C1206,-103.89 1206,-130.8 1206,-130.8 1206,-130.8 2138.03,-130.8 2138.03,-130.8"/>
<polygon fill="black" stroke="black" points="2138.03,-134.3 2148.03,-130.8 2138.03,-127.3 2138.03,-134.3"/>
</g>
<!-- SettingsViewComponent -->
<g id="node21" class="node">
<title>SettingsViewComponent</title>
<polygon fill="#ffffb3" stroke="black" points="1113.26,-84.8 956.74,-84.8 956.74,-48.8 1113.26,-48.8 1113.26,-84.8"/>
<text text-anchor="middle" x="1035" y="-62.6" font-family="Times,serif" font-size="14.00">SettingsViewComponent</text>
</g>
<!-- SettingsViewComponent&#45;&gt;AppModule -->
<g id="edge25" class="edge">
<title>SettingsViewComponent&#45;&gt;AppModule</title>
<path fill="none" stroke="black" d="M1035,-85.11C1035,-104.95 1035,-133.8 1035,-133.8 1035,-133.8 2138.21,-133.8 2138.21,-133.8"/>
<polygon fill="black" stroke="black" points="2138.21,-137.3 2148.21,-133.8 2138.21,-130.3 2138.21,-137.3"/>
</g>
<!-- SnippetsComponent -->
<g id="node22" class="node">
<title>SnippetsComponent</title>
<polygon fill="#ffffb3" stroke="black" points="938.56,-84.8 809.44,-84.8 809.44,-48.8 938.56,-48.8 938.56,-84.8"/>
<text text-anchor="middle" x="874" y="-62.6" font-family="Times,serif" font-size="14.00">SnippetsComponent</text>
</g>
<!-- SnippetsComponent&#45;&gt;AppModule -->
<g id="edge26" class="edge">
<title>SnippetsComponent&#45;&gt;AppModule</title>
<path fill="none" stroke="black" d="M874,-84.93C874,-105.37 874,-135.8 874,-135.8 874,-135.8 2138.07,-135.8 2138.07,-135.8"/>
<polygon fill="black" stroke="black" points="2138.07,-139.3 2148.07,-135.8 2138.07,-132.3 2138.07,-139.3"/>
</g>
<!-- SyncComponent -->
<g id="node23" class="node">
<title>SyncComponent</title>
<polygon fill="#ffffb3" stroke="black" points="791.83,-84.8 682.17,-84.8 682.17,-48.8 791.83,-48.8 791.83,-84.8"/>
<text text-anchor="middle" x="737" y="-62.6" font-family="Times,serif" font-size="14.00">SyncComponent</text>
</g>
<!-- SyncComponent&#45;&gt;AppModule -->
<g id="edge27" class="edge">
<title>SyncComponent&#45;&gt;AppModule</title>
<path fill="none" stroke="black" d="M737,-85.08C737,-106.12 737,-137.8 737,-137.8 737,-137.8 2138.08,-137.8 2138.08,-137.8"/>
<polygon fill="black" stroke="black" points="2138.08,-141.3 2148.08,-137.8 2138.08,-134.3 2138.08,-141.3"/>
</g>
<!-- SystemsComponent -->
<g id="node24" class="node">
<title>SystemsComponent</title>
<polygon fill="#ffffb3" stroke="black" points="664,-84.8 536,-84.8 536,-48.8 664,-48.8 664,-84.8"/>
<text text-anchor="middle" x="600" y="-62.6" font-family="Times,serif" font-size="14.00">SystemsComponent</text>
</g>
<!-- SystemsComponent&#45;&gt;AppModule -->
<g id="edge28" class="edge">
<title>SystemsComponent&#45;&gt;AppModule</title>
<path fill="none" stroke="black" d="M621.33,-84.84C621.33,-106.46 621.33,-139.8 621.33,-139.8 621.33,-139.8 2138.04,-139.8 2138.04,-139.8"/>
<polygon fill="black" stroke="black" points="2138.04,-143.3 2148.04,-139.8 2138.04,-136.3 2138.04,-143.3"/>
</g>
<!-- SystemsComponent&#45;&gt;AppModule -->
<g id="edge29" class="edge">
<title>SystemsComponent&#45;&gt;AppModule</title>
<path fill="none" stroke="black" d="M578.67,-84.96C578.67,-107.15 578.67,-141.8 578.67,-141.8 578.67,-141.8 2138.14,-141.8 2138.14,-141.8"/>
<polygon fill="black" stroke="black" points="2138.14,-145.3 2148.14,-141.8 2138.14,-138.3 2138.14,-145.3"/>
</g>
<!-- TemplatesComponent -->
<g id="node25" class="node">
<title>TemplatesComponent</title>
<polygon fill="#ffffb3" stroke="black" points="517.65,-84.8 378.35,-84.8 378.35,-48.8 517.65,-48.8 517.65,-84.8"/>
<text text-anchor="middle" x="448" y="-62.6" font-family="Times,serif" font-size="14.00">TemplatesComponent</text>
</g>
<!-- TemplatesComponent&#45;&gt;AppModule -->
<g id="edge30" class="edge">
<title>TemplatesComponent&#45;&gt;AppModule</title>
<path fill="none" stroke="black" d="M448,-85.05C448,-107.82 448,-143.8 448,-143.8 448,-143.8 2138.23,-143.8 2138.23,-143.8"/>
<polygon fill="black" stroke="black" points="2138.23,-147.3 2148.23,-143.8 2138.23,-140.3 2138.23,-147.3"/>
</g>
<!-- UnauthorizedComponent -->
<g id="node26" class="node">
<title>UnauthorizedComponent</title>
<polygon fill="#ffffb3" stroke="black" points="359.53,-84.8 202.47,-84.8 202.47,-48.8 359.53,-48.8 359.53,-84.8"/>
<text text-anchor="middle" x="281" y="-62.6" font-family="Times,serif" font-size="14.00">UnauthorizedComponent</text>
</g>
<!-- UnauthorizedComponent&#45;&gt;AppModule -->
<g id="edge31" class="edge">
<title>UnauthorizedComponent&#45;&gt;AppModule</title>
<path fill="none" stroke="black" d="M281,-85.12C281,-108.46 281,-145.8 281,-145.8 281,-145.8 2137.9,-145.8 2137.9,-145.8"/>
<polygon fill="black" stroke="black" points="2137.9,-149.3 2147.9,-145.8 2137.9,-142.3 2137.9,-149.3"/>
</g>
<!-- ViewableTreeComponent -->
<g id="node27" class="node">
<title>ViewableTreeComponent</title>
<polygon fill="#ffffb3" stroke="black" points="184.11,-84.8 23.89,-84.8 23.89,-48.8 184.11,-48.8 184.11,-84.8"/>
<text text-anchor="middle" x="104" y="-62.6" font-family="Times,serif" font-size="14.00">ViewableTreeComponent</text>
</g>
<!-- ViewableTreeComponent&#45;&gt;AppModule -->
<g id="edge32" class="edge">
<title>ViewableTreeComponent&#45;&gt;AppModule</title>
<path fill="none" stroke="black" d="M104,-85.18C104,-109.08 104,-147.8 104,-147.8 104,-147.8 2138.33,-147.8 2138.33,-147.8"/>
<polygon fill="black" stroke="black" points="2138.33,-151.3 2148.33,-147.8 2138.33,-144.3 2138.33,-151.3"/>
</g>
<!-- AppComponent  -->
<g id="node30" class="node">
<title>AppComponent </title>
<polygon fill="#80b1d3" stroke="black" points="2244.44,-214.8 2135.56,-214.8 2135.56,-178.8 2244.44,-178.8 2244.44,-214.8"/>
<text text-anchor="middle" x="2190" y="-192.6" font-family="Times,serif" font-size="14.00">AppComponent </text>
</g>
<!-- AppModule&#45;&gt;AppComponent  -->
<g id="edge34" class="edge">
<title>AppModule&#45;&gt;AppComponent </title>
<path fill="none" stroke="black" stroke-dasharray="1,5" d="M2190,-149.91C2190,-149.91 2190,-168.79 2190,-168.79"/>
<polygon fill="black" stroke="black" points="2186.5,-168.79 2190,-178.79 2193.5,-168.79 2186.5,-168.79"/>
</g>
<!-- AppRoutingModule -->
<g id="node29" class="node">
<title>AppRoutingModule</title>
<polygon fill="#8dd3c7" stroke="black" points="4378.27,-84.8 4375.27,-88.8 4354.27,-88.8 4351.27,-84.8 4249.73,-84.8 4249.73,-48.8 4378.27,-48.8 4378.27,-84.8"/>
<text text-anchor="middle" x="4314" y="-62.6" font-family="Times,serif" font-size="14.00">AppRoutingModule</text>
</g>
<!-- AppRoutingModule&#45;&gt;AppModule -->
<g id="edge33" class="edge">
<title>AppRoutingModule&#45;&gt;AppModule</title>
<path fill="none" stroke="black" d="M4314,-85.12C4314,-108.46 4314,-145.8 4314,-145.8 4314,-145.8 2241.95,-145.8 2241.95,-145.8"/>
<polygon fill="black" stroke="black" points="2241.95,-142.3 2231.95,-145.8 2241.95,-149.3 2241.95,-142.3"/>
</g>
<!-- UserService -->
<g id="node31" class="node">
<title>UserService</title>
<ellipse fill="#fdb462" stroke="black" cx="4460" cy="-66.8" rx="58.44" ry="18"/>
<text text-anchor="middle" x="4460" y="-62.6" font-family="Times,serif" font-size="14.00">UserService</text>
</g>
<!-- UserService&#45;&gt;AppModule -->
<g id="edge35" class="edge">
<title>UserService&#45;&gt;AppModule</title>
<path fill="none" stroke="black" d="M4460,-85.18C4460,-109.08 4460,-147.8 4460,-147.8 4460,-147.8 2241.83,-147.8 2241.83,-147.8"/>
<polygon fill="black" stroke="black" points="2241.83,-144.3 2231.83,-147.8 2241.83,-151.3 2241.83,-144.3"/>
</g>
</g>
</svg>
