<?xml version="1.0" encoding="UTF-8" standalone="no"?>
<!DOCTYPE svg PUBLIC "-//W3C//DTD SVG 1.1//EN"
 "http://www.w3.org/Graphics/SVG/1.1/DTD/svg11.dtd">
<!-- Generated by graphviz version 2.47.3 (20210619.1520)
 -->
<!-- Title: dependencies Pages: 1 -->
<svg width="3901pt" height="453pt"
 viewBox="0.00 0.00 3901.00 453.43" xmlns="http://www.w3.org/2000/svg" xmlns:xlink="http://www.w3.org/1999/xlink">
<g id="graph0" class="graph" transform="scale(1 1) rotate(0) translate(4 449.43)">
<title>dependencies</title>
<polygon fill="white" stroke="transparent" points="-4,4 -4,-449.43 3897,-449.43 3897,4 -4,4"/>
<text text-anchor="middle" x="1946.5" y="-8.2" font-family="sans-serif" font-size="14.00">dependencies</text>
<g id="clust1" class="cluster">
<title>cluster_AppModule</title>
<polygon fill="none" stroke="black" stroke-dasharray="1,5" points="8,-32.8 8,-437.43 3885,-437.43 3885,-32.8 8,-32.8"/>
</g>
<g id="clust2" class="cluster">
<title>cluster_AppModule_declarations</title>
<polygon fill="none" stroke="black" points="16,-247.43 16,-299.43 3711,-299.43 3711,-247.43 16,-247.43"/>
</g>
<g id="clust27" class="cluster">
<title>cluster_AppModule_imports</title>
<polygon fill="none" stroke="black" points="3733,-247.43 3733,-299.43 3877,-299.43 3877,-247.43 3733,-247.43"/>
</g>
<g id="clust29" class="cluster">
<title>cluster_AppModule_bootstrap</title>
<polygon fill="none" stroke="black" points="1893,-377.43 1893,-429.43 2017,-429.43 2017,-377.43 1893,-377.43"/>
</g>
<g id="clust30" class="cluster">
<title>cluster_AppModule_providers</title>
<polygon fill="none" stroke="black" points="3700,-111.61 3700,-163.61 3832,-163.61 3832,-111.61 3700,-111.61"/>
</g>
<g id="clust3" class="cluster">
<title>cluster_AppModule_AppComponent_providers</title>
<polygon fill="none" stroke="black" points="3130,-40.8 3130,-234.43 3692,-234.43 3692,-40.8 3130,-40.8"/>
</g>
<!-- AppComponent -->
<g id="node1" class="node">
<title>AppComponent</title>
<polygon fill="#ffffb3" stroke="black" points="3702.94,-291.43 3597.06,-291.43 3597.06,-255.43 3702.94,-255.43 3702.94,-291.43"/>
<text text-anchor="middle" x="3650" y="-269.23" font-family="Times,serif" font-size="14.00">AppComponent</text>
</g>
<!-- AppModule -->
<g id="node25" class="node">
<title>AppModule</title>
<polygon fill="#8dd3c7" stroke="black" points="1996.66,-356.43 1993.66,-360.43 1972.66,-360.43 1969.66,-356.43 1913.34,-356.43 1913.34,-320.43 1996.66,-320.43 1996.66,-356.43"/>
<text text-anchor="middle" x="1955" y="-334.23" font-family="Times,serif" font-size="14.00">AppModule</text>
</g>
<!-- AppComponent&#45;&gt;AppModule -->
<g id="edge1" class="edge">
<title>AppComponent&#45;&gt;AppModule</title>
<path fill="none" stroke="black" d="M3650,-291.67C3650,-314.44 3650,-350.43 3650,-350.43 3650,-350.43 2006.9,-350.43 2006.9,-350.43"/>
<polygon fill="black" stroke="black" points="2006.9,-346.93 1996.9,-350.43 2006.9,-353.93 2006.9,-346.93"/>
</g>
<!-- AppEventsComponent -->
<g id="node2" class="node">
<title>AppEventsComponent</title>
<polygon fill="#ffffb3" stroke="black" points="3579.54,-291.43 3436.46,-291.43 3436.46,-255.43 3579.54,-255.43 3579.54,-291.43"/>
<text text-anchor="middle" x="3508" y="-269.23" font-family="Times,serif" font-size="14.00">AppEventsComponent</text>
</g>
<!-- AppEventsComponent&#45;&gt;AppModule -->
<g id="edge5" class="edge">
<title>AppEventsComponent&#45;&gt;AppModule</title>
<path fill="none" stroke="black" d="M3508,-291.72C3508,-313.63 3508,-347.43 3508,-347.43 3508,-347.43 2006.94,-347.43 2006.94,-347.43"/>
<polygon fill="black" stroke="black" points="2006.94,-343.93 1996.94,-347.43 2006.94,-350.93 2006.94,-343.93"/>
</g>
<!-- AppManageComponent -->
<g id="node3" class="node">
<title>AppManageComponent</title>
<polygon fill="#ffffb3" stroke="black" points="3418.03,-291.43 3267.97,-291.43 3267.97,-255.43 3418.03,-255.43 3418.03,-291.43"/>
<text text-anchor="middle" x="3343" y="-269.23" font-family="Times,serif" font-size="14.00">AppManageComponent</text>
</g>
<!-- AppManageComponent&#45;&gt;AppModule -->
<g id="edge6" class="edge">
<title>AppManageComponent&#45;&gt;AppModule</title>
<path fill="none" stroke="black" d="M3343,-291.59C3343,-312.92 3343,-345.43 3343,-345.43 3343,-345.43 2006.92,-345.43 2006.92,-345.43"/>
<polygon fill="black" stroke="black" points="2006.92,-341.93 1996.92,-345.43 2006.92,-348.93 2006.92,-341.93"/>
</g>
<!-- AppSettingsComponent -->
<g id="node4" class="node">
<title>AppSettingsComponent</title>
<polygon fill="#ffffb3" stroke="black" points="3249.05,-291.43 3098.95,-291.43 3098.95,-255.43 3249.05,-255.43 3249.05,-291.43"/>
<text text-anchor="middle" x="3174" y="-269.23" font-family="Times,serif" font-size="14.00">AppSettingsComponent</text>
</g>
<!-- AppSettingsComponent&#45;&gt;AppModule -->
<g id="edge7" class="edge">
<title>AppSettingsComponent&#45;&gt;AppModule</title>
<path fill="none" stroke="black" d="M3174,-291.45C3174,-312.19 3174,-343.43 3174,-343.43 3174,-343.43 2006.96,-343.43 2006.96,-343.43"/>
<polygon fill="black" stroke="black" points="2006.96,-339.93 1996.96,-343.43 2006.96,-346.93 2006.96,-339.93"/>
</g>
<!-- BuildISOComponent -->
<g id="node5" class="node">
<title>BuildISOComponent</title>
<polygon fill="#ffffb3" stroke="black" points="3080.5,-291.43 2945.5,-291.43 2945.5,-255.43 3080.5,-255.43 3080.5,-291.43"/>
<text text-anchor="middle" x="3013" y="-269.23" font-family="Times,serif" font-size="14.00">BuildISOComponent</text>
</g>
<!-- BuildISOComponent&#45;&gt;AppModule -->
<g id="edge8" class="edge">
<title>BuildISOComponent&#45;&gt;AppModule</title>
<path fill="none" stroke="black" d="M3013,-291.65C3013,-311.79 3013,-341.43 3013,-341.43 3013,-341.43 2006.8,-341.43 2006.8,-341.43"/>
<polygon fill="black" stroke="black" points="2006.8,-337.93 1996.8,-341.43 2006.8,-344.93 2006.8,-337.93"/>
</g>
<!-- CheckSysComponent -->
<g id="node6" class="node">
<title>CheckSysComponent</title>
<polygon fill="#ffffb3" stroke="black" points="2927.83,-291.43 2790.17,-291.43 2790.17,-255.43 2927.83,-255.43 2927.83,-291.43"/>
<text text-anchor="middle" x="2859" y="-269.23" font-family="Times,serif" font-size="14.00">CheckSysComponent</text>
</g>
<!-- CheckSysComponent&#45;&gt;AppModule -->
<g id="edge9" class="edge">
<title>CheckSysComponent&#45;&gt;AppModule</title>
<path fill="none" stroke="black" d="M2859,-291.53C2859,-310.76 2859,-338.43 2859,-338.43 2859,-338.43 2006.79,-338.43 2006.79,-338.43"/>
<polygon fill="black" stroke="black" points="2006.79,-334.93 1996.79,-338.43 2006.79,-341.93 2006.79,-334.93"/>
</g>
<!-- DistrosComponent -->
<g id="node7" class="node">
<title>DistrosComponent</title>
<polygon fill="#ffffb3" stroke="black" points="2771.77,-291.43 2650.23,-291.43 2650.23,-255.43 2771.77,-255.43 2771.77,-291.43"/>
<text text-anchor="middle" x="2711" y="-269.23" font-family="Times,serif" font-size="14.00">DistrosComponent</text>
</g>
<!-- DistrosComponent&#45;&gt;AppModule -->
<g id="edge10" class="edge">
<title>DistrosComponent&#45;&gt;AppModule</title>
<path fill="none" stroke="black" d="M2690.7,-291.73C2690.7,-309.7 2690.7,-334.43 2690.7,-334.43 2690.7,-334.43 2006.66,-334.43 2006.66,-334.43"/>
<polygon fill="black" stroke="black" points="2006.66,-330.93 1996.66,-334.43 2006.66,-337.93 2006.66,-330.93"/>
</g>
<!-- DistrosComponent&#45;&gt;AppModule -->
<g id="edge11" class="edge">
<title>DistrosComponent&#45;&gt;AppModule</title>
<path fill="none" stroke="black" d="M2731.3,-291.65C2731.3,-310.25 2731.3,-336.43 2731.3,-336.43 2731.3,-336.43 2006.74,-336.43 2006.74,-336.43"/>
<polygon fill="black" stroke="black" points="2006.74,-332.93 1996.74,-336.43 2006.74,-339.93 2006.74,-332.93"/>
</g>
<!-- FilesComponent -->
<g id="node8" class="node">
<title>FilesComponent</title>
<polygon fill="#ffffb3" stroke="black" points="2632.06,-291.43 2523.94,-291.43 2523.94,-255.43 2632.06,-255.43 2632.06,-291.43"/>
<text text-anchor="middle" x="2578" y="-269.23" font-family="Times,serif" font-size="14.00">FilesComponent</text>
</g>
<!-- FilesComponent&#45;&gt;AppModule -->
<g id="edge12" class="edge">
<title>FilesComponent&#45;&gt;AppModule</title>
<path fill="none" stroke="black" d="M2578,-291.45C2578,-308.8 2578,-332.43 2578,-332.43 2578,-332.43 2006.84,-332.43 2006.84,-332.43"/>
<polygon fill="black" stroke="black" points="2006.84,-328.93 1996.84,-332.43 2006.84,-335.93 2006.84,-328.93"/>
</g>
<!-- ImagesComponent -->
<g id="node9" class="node">
<title>ImagesComponent</title>
<polygon fill="#ffffb3" stroke="black" points="2505.76,-291.43 2384.24,-291.43 2384.24,-255.43 2505.76,-255.43 2505.76,-291.43"/>
<text text-anchor="middle" x="2445" y="-269.23" font-family="Times,serif" font-size="14.00">ImagesComponent</text>
</g>
<!-- ImagesComponent&#45;&gt;AppModule -->
<g id="edge13" class="edge">
<title>ImagesComponent&#45;&gt;AppModule</title>
<path fill="none" stroke="black" d="M2465.29,-291.45C2465.29,-307.82 2465.29,-329.43 2465.29,-329.43 2465.29,-329.43 2006.76,-329.43 2006.76,-329.43"/>
<polygon fill="black" stroke="black" points="2006.76,-325.93 1996.76,-329.43 2006.76,-332.93 2006.76,-325.93"/>
</g>
<!-- ImagesComponent&#45;&gt;AppModule -->
<g id="edge14" class="edge">
<title>ImagesComponent&#45;&gt;AppModule</title>
<path fill="none" stroke="black" d="M2424.71,-291.71C2424.71,-307.37 2424.71,-327.43 2424.71,-327.43 2424.71,-327.43 2006.68,-327.43 2006.68,-327.43"/>
<polygon fill="black" stroke="black" points="2006.68,-323.93 1996.68,-327.43 2006.68,-330.93 2006.68,-323.93"/>
</g>
<!-- ImportDVDComponent -->
<g id="node10" class="node">
<title>ImportDVDComponent</title>
<polygon fill="#ffffb3" stroke="black" points="2365.75,-291.43 2216.25,-291.43 2216.25,-255.43 2365.75,-255.43 2365.75,-291.43"/>
<text text-anchor="middle" x="2291" y="-269.23" font-family="Times,serif" font-size="14.00">ImportDVDComponent</text>
</g>
<!-- ImportDVDComponent&#45;&gt;AppModule -->
<g id="edge15" class="edge">
<title>ImportDVDComponent&#45;&gt;AppModule</title>
<path fill="none" stroke="black" d="M2291,-291.61C2291,-306.61 2291,-325.43 2291,-325.43 2291,-325.43 2006.88,-325.43 2006.88,-325.43"/>
<polygon fill="black" stroke="black" points="2006.88,-321.93 1996.88,-325.43 2006.88,-328.93 2006.88,-321.93"/>
</g>
<!-- LogInFormComponent -->
<g id="node11" class="node">
<title>LogInFormComponent</title>
<polygon fill="#ffffb3" stroke="black" points="2197.88,-291.43 2052.12,-291.43 2052.12,-255.43 2197.88,-255.43 2197.88,-291.43"/>
<text text-anchor="middle" x="2125" y="-269.23" font-family="Times,serif" font-size="14.00">LogInFormComponent</text>
</g>
<!-- LogInFormComponent&#45;&gt;AppModule -->
<g id="edge16" class="edge">
<title>LogInFormComponent&#45;&gt;AppModule</title>
<path fill="none" stroke="black" d="M2125,-291.48C2125,-305.8 2125,-323.43 2125,-323.43 2125,-323.43 2007.02,-323.43 2007.02,-323.43"/>
<polygon fill="black" stroke="black" points="2007.02,-319.93 1997.02,-323.43 2007.02,-326.93 2007.02,-319.93"/>
</g>
<!-- ManageMenuComponent -->
<g id="node12" class="node">
<title>ManageMenuComponent</title>
<polygon fill="#ffffb3" stroke="black" points="2034.58,-291.43 1875.42,-291.43 1875.42,-255.43 2034.58,-255.43 2034.58,-291.43"/>
<text text-anchor="middle" x="1955" y="-269.23" font-family="Times,serif" font-size="14.00">ManageMenuComponent</text>
</g>
<!-- ManageMenuComponent&#45;&gt;AppModule -->
<g id="edge17" class="edge">
<title>ManageMenuComponent&#45;&gt;AppModule</title>
<path fill="none" stroke="black" d="M1955,-291.53C1955,-291.53 1955,-310.42 1955,-310.42"/>
<polygon fill="black" stroke="black" points="1951.5,-310.42 1955,-320.42 1958.5,-310.42 1951.5,-310.42"/>
</g>
<!-- ManagementClassesComponent -->
<g id="node13" class="node">
<title>ManagementClassesComponent</title>
<polygon fill="#ffffb3" stroke="black" points="1857.41,-291.43 1660.59,-291.43 1660.59,-255.43 1857.41,-255.43 1857.41,-291.43"/>
<text text-anchor="middle" x="1759" y="-269.23" font-family="Times,serif" font-size="14.00">ManagementClassesComponent</text>
</g>
<!-- ManagementClassesComponent&#45;&gt;AppModule -->
<g id="edge18" class="edge">
<title>ManagementClassesComponent&#45;&gt;AppModule</title>
<path fill="none" stroke="black" d="M1759,-291.48C1759,-305.8 1759,-323.43 1759,-323.43 1759,-323.43 1902.95,-323.43 1902.95,-323.43"/>
<polygon fill="black" stroke="black" points="1902.95,-326.93 1912.95,-323.43 1902.95,-319.93 1902.95,-326.93"/>
</g>
<!-- NavbarComponent -->
<g id="node14" class="node">
<title>NavbarComponent</title>
<polygon fill="#ffffb3" stroke="black" points="1643.03,-291.43 1520.97,-291.43 1520.97,-255.43 1643.03,-255.43 1643.03,-291.43"/>
<text text-anchor="middle" x="1582" y="-269.23" font-family="Times,serif" font-size="14.00">NavbarComponent</text>
</g>
<!-- NavbarComponent&#45;&gt;AppModule -->
<g id="edge19" class="edge">
<title>NavbarComponent&#45;&gt;AppModule</title>
<path fill="none" stroke="black" d="M1582,-291.61C1582,-306.61 1582,-325.43 1582,-325.43 1582,-325.43 1903.3,-325.43 1903.3,-325.43"/>
<polygon fill="black" stroke="black" points="1903.3,-328.93 1913.3,-325.43 1903.3,-321.93 1903.3,-328.93"/>
</g>
<!-- NotFoundComponent -->
<g id="node15" class="node">
<title>NotFoundComponent</title>
<polygon fill="#ffffb3" stroke="black" points="1503.11,-291.43 1364.89,-291.43 1364.89,-255.43 1503.11,-255.43 1503.11,-291.43"/>
<text text-anchor="middle" x="1434" y="-269.23" font-family="Times,serif" font-size="14.00">NotFoundComponent</text>
</g>
<!-- NotFoundComponent&#45;&gt;AppModule -->
<g id="edge20" class="edge">
<title>NotFoundComponent&#45;&gt;AppModule</title>
<path fill="none" stroke="black" d="M1434,-291.71C1434,-307.37 1434,-327.43 1434,-327.43 1434,-327.43 1903.25,-327.43 1903.25,-327.43"/>
<polygon fill="black" stroke="black" points="1903.25,-330.93 1913.25,-327.43 1903.25,-323.93 1903.25,-330.93"/>
</g>
<!-- PackagesComponent -->
<g id="node16" class="node">
<title>PackagesComponent</title>
<polygon fill="#ffffb3" stroke="black" points="1346.92,-291.43 1213.08,-291.43 1213.08,-255.43 1346.92,-255.43 1346.92,-291.43"/>
<text text-anchor="middle" x="1280" y="-269.23" font-family="Times,serif" font-size="14.00">PackagesComponent</text>
</g>
<!-- PackagesComponent&#45;&gt;AppModule -->
<g id="edge21" class="edge">
<title>PackagesComponent&#45;&gt;AppModule</title>
<path fill="none" stroke="black" d="M1280,-291.45C1280,-307.82 1280,-329.43 1280,-329.43 1280,-329.43 1903.29,-329.43 1903.29,-329.43"/>
<polygon fill="black" stroke="black" points="1903.29,-332.93 1913.29,-329.43 1903.29,-325.93 1903.29,-332.93"/>
</g>
<!-- ProfilesComponent -->
<g id="node17" class="node">
<title>ProfilesComponent</title>
<polygon fill="#ffffb3" stroke="black" points="1195.38,-291.43 1070.62,-291.43 1070.62,-255.43 1195.38,-255.43 1195.38,-291.43"/>
<text text-anchor="middle" x="1133" y="-269.23" font-family="Times,serif" font-size="14.00">ProfilesComponent</text>
</g>
<!-- ProfilesComponent&#45;&gt;AppModule -->
<g id="edge22" class="edge">
<title>ProfilesComponent&#45;&gt;AppModule</title>
<path fill="none" stroke="black" d="M1112.19,-291.73C1112.19,-309.7 1112.19,-334.43 1112.19,-334.43 1112.19,-334.43 1903.2,-334.43 1903.2,-334.43"/>
<polygon fill="black" stroke="black" points="1903.2,-337.93 1913.2,-334.43 1903.2,-330.93 1903.2,-337.93"/>
</g>
<!-- ProfilesComponent&#45;&gt;AppModule -->
<g id="edge23" class="edge">
<title>ProfilesComponent&#45;&gt;AppModule</title>
<path fill="none" stroke="black" d="M1153.81,-291.45C1153.81,-308.8 1153.81,-332.43 1153.81,-332.43 1153.81,-332.43 1903.33,-332.43 1903.33,-332.43"/>
<polygon fill="black" stroke="black" points="1903.33,-335.93 1913.33,-332.43 1903.33,-328.93 1903.33,-335.93"/>
</g>
<!-- RepoSyncComponent -->
<g id="node18" class="node">
<title>RepoSyncComponent</title>
<polygon fill="#ffffb3" stroke="black" points="1052.38,-291.43 913.62,-291.43 913.62,-255.43 1052.38,-255.43 1052.38,-291.43"/>
<text text-anchor="middle" x="983" y="-269.23" font-family="Times,serif" font-size="14.00">RepoSyncComponent</text>
</g>
<!-- RepoSyncComponent&#45;&gt;AppModule -->
<g id="edge24" class="edge">
<title>RepoSyncComponent&#45;&gt;AppModule</title>
<path fill="none" stroke="black" d="M983,-291.65C983,-310.25 983,-336.43 983,-336.43 983,-336.43 1903.23,-336.43 1903.23,-336.43"/>
<polygon fill="black" stroke="black" points="1903.23,-339.93 1913.23,-336.43 1903.23,-332.93 1903.23,-339.93"/>
</g>
<!-- ReposComponent -->
<g id="node19" class="node">
<title>ReposComponent</title>
<polygon fill="#ffffb3" stroke="black" points="895.33,-291.43 778.67,-291.43 778.67,-255.43 895.33,-255.43 895.33,-291.43"/>
<text text-anchor="middle" x="837" y="-269.23" font-family="Times,serif" font-size="14.00">ReposComponent</text>
</g>
<!-- ReposComponent&#45;&gt;AppModule -->
<g id="edge25" class="edge">
<title>ReposComponent&#45;&gt;AppModule</title>
<path fill="none" stroke="black" d="M817.61,-291.65C817.61,-311.79 817.61,-341.43 817.61,-341.43 817.61,-341.43 1903.17,-341.43 1903.17,-341.43"/>
<polygon fill="black" stroke="black" points="1903.17,-344.93 1913.17,-341.43 1903.17,-337.93 1903.17,-344.93"/>
</g>
<!-- ReposComponent&#45;&gt;AppModule -->
<g id="edge26" class="edge">
<title>ReposComponent&#45;&gt;AppModule</title>
<path fill="none" stroke="black" d="M856.39,-291.53C856.39,-310.76 856.39,-338.43 856.39,-338.43 856.39,-338.43 1903.27,-338.43 1903.27,-338.43"/>
<polygon fill="black" stroke="black" points="1903.27,-341.93 1913.27,-338.43 1903.27,-334.93 1903.27,-341.93"/>
</g>
<!-- SnippetsComponent -->
<g id="node20" class="node">
<title>SnippetsComponent</title>
<polygon fill="#ffffb3" stroke="black" points="760.56,-291.43 631.44,-291.43 631.44,-255.43 760.56,-255.43 760.56,-291.43"/>
<text text-anchor="middle" x="696" y="-269.23" font-family="Times,serif" font-size="14.00">SnippetsComponent</text>
</g>
<!-- SnippetsComponent&#45;&gt;AppModule -->
<g id="edge27" class="edge">
<title>SnippetsComponent&#45;&gt;AppModule</title>
<path fill="none" stroke="black" d="M696,-291.45C696,-312.19 696,-343.43 696,-343.43 696,-343.43 1903.11,-343.43 1903.11,-343.43"/>
<polygon fill="black" stroke="black" points="1903.11,-346.93 1913.11,-343.43 1903.11,-339.93 1903.11,-346.93"/>
</g>
<!-- SyncComponent -->
<g id="node21" class="node">
<title>SyncComponent</title>
<polygon fill="#ffffb3" stroke="black" points="613.83,-291.43 504.17,-291.43 504.17,-255.43 613.83,-255.43 613.83,-291.43"/>
<text text-anchor="middle" x="559" y="-269.23" font-family="Times,serif" font-size="14.00">SyncComponent</text>
</g>
<!-- SyncComponent&#45;&gt;AppModule -->
<g id="edge28" class="edge">
<title>SyncComponent&#45;&gt;AppModule</title>
<path fill="none" stroke="black" d="M559,-291.59C559,-312.92 559,-345.43 559,-345.43 559,-345.43 1903.22,-345.43 1903.22,-345.43"/>
<polygon fill="black" stroke="black" points="1903.22,-348.93 1913.22,-345.43 1903.22,-341.93 1903.22,-348.93"/>
</g>
<!-- SystemsComponent -->
<g id="node22" class="node">
<title>SystemsComponent</title>
<polygon fill="#ffffb3" stroke="black" points="486,-291.43 358,-291.43 358,-255.43 486,-255.43 486,-291.43"/>
<text text-anchor="middle" x="422" y="-269.23" font-family="Times,serif" font-size="14.00">SystemsComponent</text>
</g>
<!-- SystemsComponent&#45;&gt;AppModule -->
<g id="edge29" class="edge">
<title>SystemsComponent&#45;&gt;AppModule</title>
<path fill="none" stroke="black" d="M400.67,-291.67C400.67,-314.44 400.67,-350.43 400.67,-350.43 400.67,-350.43 1903.02,-350.43 1903.02,-350.43"/>
<polygon fill="black" stroke="black" points="1903.02,-353.93 1913.02,-350.43 1903.02,-346.93 1903.02,-353.93"/>
</g>
<!-- SystemsComponent&#45;&gt;AppModule -->
<g id="edge30" class="edge">
<title>SystemsComponent&#45;&gt;AppModule</title>
<path fill="none" stroke="black" d="M443.33,-291.72C443.33,-313.63 443.33,-347.43 443.33,-347.43 443.33,-347.43 1902.99,-347.43 1902.99,-347.43"/>
<polygon fill="black" stroke="black" points="1902.99,-350.93 1912.99,-347.43 1902.99,-343.93 1902.99,-350.93"/>
</g>
<!-- TemplatesComponent -->
<g id="node23" class="node">
<title>TemplatesComponent</title>
<polygon fill="#ffffb3" stroke="black" points="339.65,-291.43 200.35,-291.43 200.35,-255.43 339.65,-255.43 339.65,-291.43"/>
<text text-anchor="middle" x="270" y="-269.23" font-family="Times,serif" font-size="14.00">TemplatesComponent</text>
</g>
<!-- TemplatesComponent&#45;&gt;AppModule -->
<g id="edge31" class="edge">
<title>TemplatesComponent&#45;&gt;AppModule</title>
<path fill="none" stroke="black" d="M270,-291.75C270,-315.09 270,-352.43 270,-352.43 270,-352.43 1902.93,-352.43 1902.93,-352.43"/>
<polygon fill="black" stroke="black" points="1902.93,-355.93 1912.93,-352.43 1902.93,-348.93 1902.93,-355.93"/>
</g>
<!-- UnauthorizedComponent -->
<g id="node24" class="node">
<title>UnauthorizedComponent</title>
<polygon fill="#ffffb3" stroke="black" points="181.53,-291.43 24.47,-291.43 24.47,-255.43 181.53,-255.43 181.53,-291.43"/>
<text text-anchor="middle" x="103" y="-269.23" font-family="Times,serif" font-size="14.00">UnauthorizedComponent</text>
</g>
<!-- UnauthorizedComponent&#45;&gt;AppModule -->
<g id="edge32" class="edge">
<title>UnauthorizedComponent&#45;&gt;AppModule</title>
<path fill="none" stroke="black" d="M103,-291.81C103,-315.7 103,-354.43 103,-354.43 103,-354.43 1903.28,-354.43 1903.28,-354.43"/>
<polygon fill="black" stroke="black" points="1903.28,-357.93 1913.28,-354.43 1903.28,-350.93 1903.28,-357.93"/>
</g>
<!-- AppComponent  -->
<g id="node30" class="node">
<title>AppComponent </title>
<polygon fill="#80b1d3" stroke="black" points="2009.44,-421.43 1900.56,-421.43 1900.56,-385.43 2009.44,-385.43 2009.44,-421.43"/>
<text text-anchor="middle" x="1955" y="-399.23" font-family="Times,serif" font-size="14.00">AppComponent </text>
</g>
<!-- AppModule&#45;&gt;AppComponent  -->
<g id="edge34" class="edge">
<title>AppModule&#45;&gt;AppComponent </title>
<path fill="none" stroke="black" stroke-dasharray="1,5" d="M1955,-356.53C1955,-356.53 1955,-375.42 1955,-375.42"/>
<polygon fill="black" stroke="black" points="1951.5,-375.42 1955,-385.42 1958.5,-375.42 1951.5,-375.42"/>
</g>
<!-- CobblerApiService -->
<g id="node26" class="node">
<title>CobblerApiService</title>
<ellipse fill="#fdb462" stroke="black" cx="3598" cy="-137.61" rx="85.67" ry="18"/>
<text text-anchor="middle" x="3598" y="-133.41" font-family="Times,serif" font-size="14.00">CobblerApiService</text>
</g>
<!-- CobblerApiService&#45;&gt;AppComponent -->
<g id="edge2" class="edge">
<title>CobblerApiService&#45;&gt;AppComponent</title>
<path fill="none" stroke="black" d="M3654.82,-151.13C3654.82,-151.13 3654.82,-245.25 3654.82,-245.25"/>
<polygon fill="black" stroke="black" points="3651.32,-245.25 3654.82,-255.25 3658.32,-245.25 3651.32,-245.25"/>
</g>
<!-- { provide: , useFactory: () =&gt; {
 &#160;&#160;&#160;&#160;&#160;&#160;&#160;const value = localStorage.getItem();
 &#160;&#160;&#160;&#160;&#160;&#160;&#160;if (value) {
 &#160;&#160;&#160;&#160;&#160;&#160;&#160;&#160;&#160;&#160;&#160;return new URL(value);
 &#160;&#160;&#160;&#160;&#160;&#160;&#160;}
 &#160;&#160;&#160;&#160;&#160;&#160;&#160;return new URL();
 &#160;&#160;&#160;} } -->
<g id="node27" class="node">
<title>{ provide: , useFactory: () =&gt; {
 &#160;&#160;&#160;&#160;&#160;&#160;&#160;const value = localStorage.getItem();
 &#160;&#160;&#160;&#160;&#160;&#160;&#160;if (value) {
 &#160;&#160;&#160;&#160;&#160;&#160;&#160;&#160;&#160;&#160;&#160;return new URL(value);
 &#160;&#160;&#160;&#160;&#160;&#160;&#160;}
 &#160;&#160;&#160;&#160;&#160;&#160;&#160;return new URL();
 &#160;&#160;&#160;} }</title>
<ellipse fill="#fdb462" stroke="black" cx="3316" cy="-137.61" rx="177.97" ry="88.63"/>
<text text-anchor="middle" x="3316" y="-183.81" font-family="Times,serif" font-size="14.00">{ provide: , useFactory: () =&gt; {</text>
<text text-anchor="middle" x="3316" y="-167.01" font-family="Times,serif" font-size="14.00"> &#160;&#160;&#160;&#160;&#160;&#160;&#160;const value = localStorage.getItem();</text>
<text text-anchor="middle" x="3316" y="-150.21" font-family="Times,serif" font-size="14.00"> &#160;&#160;&#160;&#160;&#160;&#160;&#160;if (value) {</text>
<text text-anchor="middle" x="3316" y="-133.41" font-family="Times,serif" font-size="14.00"> &#160;&#160;&#160;&#160;&#160;&#160;&#160;&#160;&#160;&#160;&#160;return new URL(value);</text>
<text text-anchor="middle" x="3316" y="-116.61" font-family="Times,serif" font-size="14.00"> &#160;&#160;&#160;&#160;&#160;&#160;&#160;}</text>
<text text-anchor="middle" x="3316" y="-99.81" font-family="Times,serif" font-size="14.00"> &#160;&#160;&#160;&#160;&#160;&#160;&#160;return new URL();</text>
<text text-anchor="middle" x="3316" y="-83.01" font-family="Times,serif" font-size="14.00"> &#160;&#160;&#160;} }</text>
</g>
<!-- { provide: , useFactory: () =&gt; {
 &#160;&#160;&#160;&#160;&#160;&#160;&#160;const value = localStorage.getItem();
 &#160;&#160;&#160;&#160;&#160;&#160;&#160;if (value) {
 &#160;&#160;&#160;&#160;&#160;&#160;&#160;&#160;&#160;&#160;&#160;return new URL(value);
 &#160;&#160;&#160;&#160;&#160;&#160;&#160;}
 &#160;&#160;&#160;&#160;&#160;&#160;&#160;return new URL();
 &#160;&#160;&#160;} }&#45;&gt;AppComponent -->
<g id="edge3" class="edge">
<title>{ provide: , useFactory: () =&gt; {
 &#160;&#160;&#160;&#160;&#160;&#160;&#160;const value = localStorage.getItem();
 &#160;&#160;&#160;&#160;&#160;&#160;&#160;if (value) {
 &#160;&#160;&#160;&#160;&#160;&#160;&#160;&#160;&#160;&#160;&#160;return new URL(value);
 &#160;&#160;&#160;&#160;&#160;&#160;&#160;}
 &#160;&#160;&#160;&#160;&#160;&#160;&#160;return new URL();
 &#160;&#160;&#160;} }&#45;&gt;AppComponent</title>
<path fill="none" stroke="black" d="M3457.87,-191.43C3539.51,-191.43 3626.05,-191.43 3626.05,-191.43 3626.05,-191.43 3626.05,-245.23 3626.05,-245.23"/>
<polygon fill="black" stroke="black" points="3622.55,-245.23 3626.05,-255.23 3629.55,-245.23 3622.55,-245.23"/>
</g>
<!-- UserService -->
<g id="node28" class="node">
<title>UserService</title>
<ellipse fill="#fdb462" stroke="black" cx="3766" cy="-137.61" rx="58.44" ry="18"/>
<text text-anchor="middle" x="3766" y="-133.41" font-family="Times,serif" font-size="14.00">UserService</text>
</g>
<!-- UserService&#45;&gt;AppComponent -->
<g id="edge4" class="edge">
<title>UserService&#45;&gt;AppComponent</title>
<path fill="none" stroke="black" d="M3707.55,-138.43C3699.08,-138.43 3693.15,-138.43 3693.15,-138.43 3693.15,-138.43 3693.15,-245.22 3693.15,-245.22"/>
<polygon fill="black" stroke="black" points="3689.65,-245.22 3693.15,-255.22 3696.65,-245.22 3689.65,-245.22"/>
</g>
<!-- UserService&#45;&gt;AppModule -->
<g id="edge35" class="edge">
<title>UserService&#45;&gt;AppModule</title>
<path fill="none" stroke="black" d="M3724.2,-150.41C3724.2,-196.65 3724.2,-352.43 3724.2,-352.43 3724.2,-352.43 2006.99,-352.43 2006.99,-352.43"/>
<polygon fill="black" stroke="black" points="2006.99,-348.93 1996.99,-352.43 2006.99,-355.93 2006.99,-348.93"/>
</g>
<!-- AppRoutingModule -->
<g id="node29" class="node">
<title>AppRoutingModule</title>
<polygon fill="#8dd3c7" stroke="black" points="3869.27,-291.43 3866.27,-295.43 3845.27,-295.43 3842.27,-291.43 3740.73,-291.43 3740.73,-255.43 3869.27,-255.43 3869.27,-291.43"/>
<text text-anchor="middle" x="3805" y="-269.23" font-family="Times,serif" font-size="14.00">AppRoutingModule</text>
</g>
<!-- AppRoutingModule&#45;&gt;AppModule -->
<g id="edge33" class="edge">
<title>AppRoutingModule&#45;&gt;AppModule</title>
<path fill="none" stroke="black" d="M3805,-291.81C3805,-315.7 3805,-354.43 3805,-354.43 3805,-354.43 2006.67,-354.43 2006.67,-354.43"/>
<polygon fill="black" stroke="black" points="2006.67,-350.93 1996.67,-354.43 2006.67,-357.93 2006.67,-350.93"/>
</g>
</g>
</svg>
